<?xml version="1.0" standalone="no"?>
<!DOCTYPE svg PUBLIC "-//W3C//DTD SVG 20010904//EN"
 "http://www.w3.org/TR/2001/REC-SVG-20010904/DTD/svg10.dtd">
<svg version="1.0" xmlns="http://www.w3.org/2000/svg"
 width="880.000000pt" height="880.000000pt" viewBox="0 0 880.000000 880.000000"
 preserveAspectRatio="xMidYMid meet">
<metadata>
Created by potrace 1.14, written by Peter Selinger 2001-2017
</metadata>
<g transform="translate(0.000000,880.000000) scale(0.100000,-0.100000)"
fill="#000000" stroke="none">
<path d="M1540 7983 c-25 -8 -61 -23 -79 -32 -19 -9 -39 -15 -43 -13 -5 1 -11
-5 -14 -13 -4 -8 -14 -15 -23 -15 -9 0 -34 -15 -56 -34 -22 -19 -42 -33 -44
-30 -8 8 -31 -18 -31 -35 0 -10 -11 -27 -25 -39 -14 -12 -25 -28 -25 -35 0 -7
-13 -29 -30 -47 -16 -18 -30 -38 -31 -44 -2 -30 -11 -61 -20 -72 -6 -7 -12
-58 -14 -113 -2 -55 -6 -104 -10 -110 -3 -6 -3 -11 2 -11 4 0 2 -4 -5 -9 -8
-4 -15 -32 -17 -61 -2 -29 -8 -56 -15 -60 -6 -3 -13 -17 -15 -30 -2 -13 -8
-26 -12 -29 -5 -3 -14 -18 -20 -32 -17 -38 -98 -123 -138 -145 -19 -10 -35
-22 -35 -25 0 -4 -13 -10 -30 -14 -16 -4 -30 -10 -30 -15 0 -4 -12 -11 -27
-15 -15 -3 -31 -11 -34 -17 -4 -6 -35 -12 -69 -15 -35 -2 -72 -9 -83 -15 -12
-6 -50 -12 -86 -14 -85 -4 -131 -13 -131 -24 0 -6 -11 -10 -24 -10 -13 0 -26
-7 -30 -15 -3 -8 -12 -15 -20 -15 -8 0 -36 -18 -62 -41 -26 -22 -58 -45 -71
-50 -12 -5 -23 -15 -23 -22 0 -8 -13 -31 -30 -52 -16 -21 -30 -46 -30 -55 0
-10 -7 -20 -15 -24 -9 -3 -15 -18 -15 -35 0 -16 -7 -41 -15 -57 -19 -38 -19
-269 1 -301 8 -12 14 -35 14 -51 0 -16 7 -35 15 -42 8 -7 15 -19 15 -27 0 -9
13 -31 30 -50 16 -18 30 -40 30 -49 0 -8 12 -20 27 -26 16 -7 38 -23 51 -36
12 -13 32 -25 43 -27 12 -3 28 -13 35 -24 12 -16 47 -32 79 -35 6 -1 21 -7 35
-15 33 -19 272 -20 295 -1 8 7 29 14 47 16 17 2 39 10 47 18 9 7 25 17 36 20
11 4 40 24 63 46 24 22 50 40 58 40 12 0 18 12 15 32 0 4 13 19 29 35 17 15
30 36 30 45 0 9 7 23 15 32 8 8 16 23 18 34 2 11 9 27 17 36 7 9 14 36 16 60
1 24 8 54 14 66 7 13 14 67 15 120 2 54 8 106 14 116 6 11 15 38 21 61 6 24
19 47 29 53 10 5 21 20 25 34 8 32 131 156 154 156 5 0 15 7 22 15 7 8 20 15
30 15 10 0 23 7 30 15 7 8 23 15 37 15 13 0 34 5 46 12 31 17 40 18 148 19 58
0 106 -4 119 -11 13 -7 35 -14 50 -16 36 -6 96 -37 130 -68 15 -13 36 -26 46
-28 11 -2 20 -9 20 -16 1 -6 2 -17 3 -23 0 -5 15 -15 31 -20 17 -6 30 -18 30
-27 1 -10 14 -33 30 -52 17 -19 30 -42 30 -51 0 -10 5 -19 11 -21 6 -2 13 -15
14 -28 5 -39 9 -55 19 -61 5 -4 11 -49 14 -100 2 -52 8 -99 13 -105 5 -6 12
-36 14 -65 8 -78 10 -88 23 -101 7 -7 12 -18 12 -26 0 -8 14 -30 30 -49 17
-18 30 -40 30 -47 0 -17 67 -86 85 -86 7 0 26 -13 42 -30 15 -16 36 -30 45
-30 10 0 26 -8 36 -18 10 -10 29 -18 43 -17 13 2 30 -2 38 -8 20 -16 36 -18
153 -19 69 0 113 4 122 11 8 7 27 14 43 17 26 4 91 32 103 44 3 3 21 14 40 24
43 24 116 99 137 141 9 16 20 32 24 35 5 3 10 16 12 29 2 12 8 26 13 29 24 17
44 112 47 222 2 63 9 125 15 137 7 12 12 28 12 36 0 8 7 20 15 27 8 7 15 23
15 36 0 13 4 24 9 24 5 0 14 15 22 33 7 17 23 43 36 56 13 13 23 32 23 41 0
10 12 23 28 29 15 7 47 30 70 51 24 22 52 40 63 40 10 0 19 7 19 15 0 13 25
21 53 16 4 -1 21 6 38 15 39 20 219 22 264 3 17 -7 37 -14 45 -15 32 -4 107
-44 130 -68 13 -15 29 -26 36 -26 17 0 124 -103 124 -118 0 -7 4 -12 9 -12 5
0 13 -10 17 -22 3 -12 13 -28 20 -36 8 -7 14 -22 14 -32 0 -10 5 -20 10 -22 6
-2 12 -25 15 -51 3 -26 10 -58 16 -70 7 -12 14 -69 16 -126 2 -58 9 -111 14
-117 6 -7 12 -24 15 -38 7 -42 23 -76 34 -76 6 0 17 -15 25 -34 20 -46 130
-156 166 -164 8 -2 18 -10 22 -18 5 -8 13 -12 18 -8 6 3 18 0 27 -8 9 -8 35
-22 57 -31 51 -23 229 -29 283 -10 20 7 52 15 70 18 19 3 40 12 48 20 9 8 23
15 33 15 10 0 27 11 37 25 10 14 34 30 52 36 25 8 38 21 51 53 10 23 25 47 34
54 21 18 58 95 59 124 1 13 7 30 14 38 8 9 14 31 15 50 1 19 8 53 15 75 7 22
15 78 17 125 3 49 9 86 16 88 6 2 11 11 11 21 0 9 7 26 15 37 8 10 15 27 15
37 0 9 3 17 8 17 4 0 18 20 31 44 25 48 92 116 113 116 7 0 31 18 53 41 38 39
55 47 105 53 14 1 39 8 55 15 46 19 225 16 265 -4 17 -9 34 -14 37 -11 9 9
113 -52 155 -90 21 -19 42 -34 48 -34 16 0 60 -50 60 -69 0 -9 11 -27 25 -39
13 -12 27 -33 31 -47 3 -14 10 -25 15 -25 5 0 9 -6 9 -12 0 -7 7 -26 16 -43
10 -19 17 -65 19 -127 2 -53 9 -106 15 -117 6 -12 12 -41 14 -66 2 -25 9 -52
16 -60 7 -9 14 -25 15 -38 1 -12 3 -27 4 -34 0 -7 11 -23 24 -36 12 -12 31
-41 42 -62 11 -22 29 -41 40 -44 11 -2 41 -23 67 -47 26 -24 53 -44 61 -44 8
0 22 -9 32 -20 10 -11 21 -18 23 -15 3 3 17 -2 31 -11 32 -21 263 -24 300 -4
13 7 38 14 55 17 17 3 33 8 36 11 3 4 27 18 54 32 28 14 59 32 69 40 39 31
102 102 113 129 7 16 17 32 23 35 6 4 11 15 11 25 0 10 7 24 15 31 8 7 15 23
15 35 0 12 6 38 14 56 18 44 17 240 -1 247 -8 2 -13 20 -13 43 0 26 -5 42 -15
45 -8 4 -15 16 -15 29 0 12 -7 28 -15 35 -8 7 -15 19 -15 26 0 20 -164 184
-184 184 -9 0 -19 7 -22 15 -4 9 -19 15 -38 15 -18 0 -37 5 -43 11 -12 12 -47
18 -118 23 -22 1 -56 7 -75 14 -19 6 -62 13 -96 16 -55 4 -73 9 -124 37 -8 5
-28 16 -45 25 -41 22 -179 163 -200 205 -10 19 -22 37 -27 40 -5 3 -10 19 -12
35 -1 16 -8 39 -15 52 -7 13 -14 64 -16 114 -3 49 -9 95 -14 102 -5 6 -12 40
-15 74 -3 35 -12 73 -21 85 -8 12 -15 29 -15 39 0 10 -4 18 -10 18 -5 0 -16
15 -24 33 -21 49 -154 177 -183 177 -7 0 -13 4 -13 9 0 5 -16 15 -35 21 -19 6
-35 15 -35 20 0 5 -19 8 -42 8 -24 0 -56 8 -73 16 -38 20 -107 21 -144 1 -15
-7 -47 -15 -70 -17 -23 -1 -44 -5 -47 -9 -2 -4 -32 -21 -67 -37 -34 -16 -71
-39 -81 -51 -11 -11 -25 -21 -32 -21 -8 0 -26 -19 -40 -42 -15 -24 -35 -50
-46 -59 -10 -9 -25 -33 -33 -53 -8 -20 -19 -36 -23 -36 -4 0 -9 -16 -10 -36
-2 -20 -9 -46 -16 -57 -7 -13 -14 -61 -15 -116 -1 -52 -7 -104 -13 -115 -6
-11 -13 -39 -15 -61 -5 -43 -50 -145 -65 -145 -5 0 -16 -17 -25 -37 -17 -43
-89 -117 -123 -128 -12 -4 -32 -18 -44 -31 -12 -13 -37 -26 -56 -29 -19 -3
-40 -11 -48 -17 -8 -8 -68 -12 -160 -13 -117 -2 -157 2 -197 16 -27 9 -53 15
-56 13 -4 -2 -29 16 -57 41 -27 25 -53 45 -58 45 -20 0 -77 57 -95 96 -12 24
-25 44 -30 44 -5 0 -15 14 -24 30 -9 17 -12 30 -9 30 4 0 -1 9 -10 19 -10 11
-19 38 -20 63 -1 24 -7 52 -13 63 -6 11 -13 72 -16 136 -5 105 -10 129 -39
179 -5 8 -15 30 -24 48 -8 19 -25 44 -38 55 -13 12 -31 37 -40 55 -10 19 -29
38 -46 43 -16 6 -31 17 -34 25 -3 7 -23 21 -46 30 -22 9 -40 20 -40 25 0 5 -6
9 -14 9 -7 0 -27 7 -42 15 -16 8 -45 15 -65 15 -20 0 -42 6 -48 14 -13 15
-141 20 -141 5 0 -4 -17 -11 -37 -15 -21 -4 -50 -13 -65 -20 -15 -8 -36 -14
-47 -14 -11 0 -37 -15 -57 -34 -21 -19 -41 -33 -45 -30 -10 6 -107 -93 -115
-119 -4 -12 -9 -24 -13 -27 -23 -19 -43 -53 -48 -82 -3 -18 -10 -39 -15 -46
-6 -7 -12 -40 -14 -74 -2 -33 -9 -67 -15 -74 -6 -7 -13 -55 -16 -106 -3 -55
-10 -100 -19 -112 -8 -11 -14 -28 -14 -38 0 -10 -4 -18 -10 -18 -5 0 -13 -12
-16 -27 -4 -15 -18 -39 -31 -53 -13 -14 -26 -35 -29 -47 -3 -12 -18 -26 -32
-32 -15 -6 -44 -27 -64 -46 -20 -19 -41 -35 -46 -35 -5 0 -21 -9 -34 -20 -14
-10 -29 -16 -32 -12 -4 4 -14 -1 -21 -12 -11 -14 -31 -19 -91 -23 -43 -2 -86
-8 -96 -14 -12 -7 -25 -6 -39 2 -12 6 -52 11 -90 12 -38 1 -69 5 -69 9 0 3
-16 12 -35 18 -19 6 -35 15 -35 20 0 4 -11 11 -25 14 -30 8 -201 177 -211 209
-3 12 -13 29 -20 38 -8 8 -15 29 -17 45 -2 16 -9 39 -15 51 -7 12 -13 57 -14
100 0 43 -7 90 -14 105 -8 15 -14 48 -15 75 -1 26 -8 58 -15 70 -8 12 -14 31
-14 43 0 11 -4 20 -10 20 -5 0 -16 15 -23 33 -28 65 -199 217 -246 217 -10 0
-21 6 -24 13 -3 8 -25 14 -53 16 -27 1 -52 7 -55 13 -11 18 -148 19 -199 1z"/>
<path d="M1555 5684 c-14 -7 -40 -15 -57 -18 -18 -3 -34 -10 -36 -15 -2 -6
-12 -11 -22 -11 -10 0 -26 -7 -34 -16 -9 -8 -26 -17 -38 -19 -12 -3 -26 -11
-31 -20 -4 -8 -26 -24 -48 -35 -26 -14 -39 -27 -39 -41 0 -11 -7 -22 -15 -25
-8 -3 -23 -25 -35 -49 -11 -23 -29 -50 -39 -59 -11 -10 -22 -34 -26 -54 -4
-20 -11 -42 -16 -48 -5 -7 -12 -60 -14 -119 -3 -59 -9 -113 -14 -119 -6 -7
-12 -32 -15 -57 -6 -63 -62 -176 -117 -236 -36 -38 -92 -83 -105 -83 -6 0 -17
-7 -24 -15 -7 -8 -21 -15 -32 -15 -10 0 -21 -7 -24 -15 -4 -8 -15 -15 -25 -15
-11 0 -30 -6 -42 -14 -12 -7 -44 -14 -72 -15 -27 -2 -56 -8 -63 -14 -13 -11
-35 -13 -137 -17 -33 -2 -67 -8 -75 -15 -8 -7 -28 -15 -43 -19 -15 -4 -25 -11
-22 -16 3 -6 -3 -10 -14 -10 -11 0 -41 -18 -67 -41 -26 -23 -58 -46 -71 -52
-13 -5 -23 -17 -23 -25 0 -8 -13 -30 -30 -49 -16 -18 -30 -41 -30 -49 0 -9 -7
-22 -15 -30 -8 -9 -15 -28 -15 -43 0 -15 -6 -33 -12 -39 -20 -19 -21 -271 -2
-307 8 -15 14 -40 14 -55 0 -15 7 -33 15 -40 8 -7 15 -20 15 -30 0 -9 9 -25
19 -34 11 -10 27 -33 36 -52 9 -19 27 -39 39 -44 13 -5 36 -20 51 -34 15 -14
30 -24 34 -22 4 3 22 -9 40 -25 19 -16 36 -29 40 -30 46 -6 67 -12 73 -22 9
-15 271 -15 290 0 7 6 28 13 46 16 19 3 42 13 51 21 10 9 22 16 28 16 5 0 21
9 34 21 13 11 34 28 45 39 12 10 31 21 43 25 12 3 22 11 22 16 1 5 2 13 3 19
0 5 13 22 27 38 14 15 30 38 34 52 4 14 12 28 17 31 4 3 11 16 13 29 2 13 9
26 14 30 6 3 12 26 14 51 2 25 9 55 16 67 6 11 13 69 16 128 2 58 10 113 16
120 6 8 13 28 14 45 1 16 11 40 22 52 10 12 32 42 48 67 35 54 124 140 146
140 9 0 19 7 23 15 3 8 13 15 22 15 9 0 28 6 42 14 61 31 103 39 208 43 89 4
118 1 142 -11 17 -9 42 -16 55 -16 14 0 30 -6 36 -14 7 -8 24 -17 38 -21 14
-3 34 -17 45 -30 10 -13 28 -25 41 -27 14 -2 23 -11 25 -26 2 -16 14 -27 33
-34 16 -6 29 -17 29 -27 0 -9 14 -31 30 -49 17 -18 30 -42 30 -53 0 -11 6 -22
13 -25 7 -2 14 -17 15 -33 1 -16 8 -44 15 -62 8 -19 15 -67 16 -108 1 -41 7
-84 13 -95 6 -12 13 -48 15 -81 2 -33 10 -66 18 -75 8 -9 15 -24 15 -33 0 -9
14 -30 30 -47 17 -17 30 -37 30 -44 0 -18 65 -86 82 -86 8 0 27 -13 43 -30 15
-16 41 -32 56 -35 16 -4 29 -11 29 -15 0 -5 17 -12 38 -16 20 -4 43 -11 50
-17 18 -14 246 -14 264 0 7 5 27 13 43 17 43 10 115 46 115 57 0 6 4 8 9 5 19
-12 144 106 157 148 4 11 15 28 25 39 10 11 16 24 13 29 -4 5 3 16 14 24 13 9
18 21 15 34 -3 11 -1 20 5 20 15 0 22 46 26 184 2 67 9 123 15 129 6 6 11 19
11 28 0 9 7 22 15 29 8 7 15 21 15 31 0 11 9 27 19 36 11 9 17 21 15 28 -3 6
7 24 22 40 14 16 31 41 36 56 5 15 19 30 31 33 12 3 42 23 65 46 24 22 49 40
57 40 7 0 18 7 25 15 7 8 23 15 37 15 13 0 36 6 51 14 34 18 236 20 266 3 12
-6 31 -13 43 -14 36 -6 123 -53 136 -74 6 -10 19 -19 29 -19 19 0 148 -126
148 -145 0 -6 9 -22 20 -35 11 -13 20 -31 20 -41 0 -9 4 -19 10 -21 5 -1 12
-28 16 -58 3 -30 11 -61 17 -68 5 -7 12 -61 14 -119 2 -59 8 -112 13 -118 5
-6 11 -22 14 -37 6 -34 25 -69 48 -90 11 -9 19 -19 19 -22 -1 -3 -1 -10 -1
-15 0 -14 115 -130 141 -141 13 -5 33 -15 44 -22 49 -30 70 -41 70 -37 1 2 14
-5 30 -15 26 -17 49 -20 161 -20 80 0 137 4 145 10 8 6 28 14 44 18 44 10 116
47 122 62 2 7 24 22 48 33 29 14 46 29 53 50 6 16 19 38 29 48 24 24 63 103
63 127 0 9 7 30 15 47 9 16 17 47 18 68 1 21 7 45 13 52 6 8 12 43 14 79 4
107 5 119 18 132 7 7 12 20 12 29 0 10 6 24 13 31 8 7 17 26 21 41 3 15 11 27
16 27 6 0 10 7 10 15 0 9 6 23 13 32 37 46 86 92 113 106 18 9 45 30 60 47 26
27 43 34 109 43 11 2 30 9 43 15 32 18 230 15 260 -4 12 -8 28 -14 35 -12 18
3 57 -12 57 -23 0 -5 9 -9 19 -9 11 0 41 -20 68 -45 26 -25 52 -45 59 -45 18
0 49 -33 63 -67 7 -18 20 -38 27 -44 8 -7 30 -44 50 -83 32 -64 35 -81 39
-175 3 -57 10 -109 15 -116 6 -7 13 -37 16 -66 3 -30 9 -56 14 -59 5 -3 11
-18 14 -33 8 -43 17 -67 26 -67 4 0 17 -20 29 -45 14 -31 32 -51 58 -64 21
-11 54 -35 72 -55 19 -20 43 -36 52 -36 10 0 24 -8 31 -17 7 -10 22 -20 33
-21 11 -2 26 -9 32 -14 20 -16 236 -17 280 -1 21 7 51 15 68 19 16 3 35 10 43
17 8 6 21 12 30 13 8 2 18 7 21 12 3 5 20 16 36 25 44 23 112 90 136 137 12
22 25 43 30 46 5 3 9 13 9 23 0 10 7 24 15 31 8 7 15 26 15 42 0 16 6 39 14
51 19 29 19 213 0 242 -7 11 -14 35 -16 52 -1 18 -8 35 -16 38 -8 3 -11 12 -8
20 3 9 -3 24 -13 34 -11 11 -22 30 -26 43 -8 24 -147 168 -163 168 -5 0 -19 9
-32 20 -13 11 -37 20 -57 20 -18 0 -33 4 -33 9 0 12 -40 20 -110 22 -30 1 -64
7 -75 14 -11 7 -52 14 -90 17 -39 3 -82 11 -95 18 -14 7 -32 17 -40 21 -8 5
-28 15 -45 24 -39 20 -186 171 -205 210 -8 17 -19 33 -23 36 -4 3 -9 23 -11
44 -2 21 -9 41 -15 44 -6 4 -13 50 -15 105 -3 53 -9 103 -14 109 -6 7 -13 41
-16 76 -3 36 -13 72 -21 81 -9 10 -15 21 -13 26 4 15 -52 97 -106 152 -53 56
-146 122 -170 122 -8 0 -16 5 -18 11 -2 5 -24 13 -48 16 -25 2 -59 11 -76 19
-35 15 -126 13 -146 -3 -7 -6 -31 -13 -53 -15 -47 -5 -193 -72 -201 -92 -3 -8
-19 -19 -36 -25 -16 -6 -32 -20 -35 -31 -3 -11 -9 -20 -14 -20 -5 0 -8 -4 -6
-8 1 -4 -11 -21 -27 -37 -15 -15 -35 -43 -42 -61 -8 -18 -18 -35 -22 -38 -5
-3 -9 -18 -10 -33 0 -15 -7 -40 -14 -55 -9 -15 -15 -64 -16 -118 -2 -51 -8
-102 -14 -114 -11 -21 -17 -49 -20 -98 0 -16 -5 -28 -9 -28 -4 0 -13 -16 -19
-35 -6 -19 -17 -38 -24 -42 -6 -5 -24 -29 -38 -54 -28 -48 -102 -119 -124
-119 -7 0 -26 -14 -43 -31 -17 -17 -38 -29 -45 -26 -8 3 -30 -3 -50 -13 -51
-25 -324 -23 -373 3 -18 10 -35 17 -38 17 -3 0 -9 0 -15 0 -5 0 -27 15 -47 34
-21 18 -52 41 -70 49 -62 33 -170 202 -175 276 -1 20 -8 47 -14 61 -7 14 -15
77 -18 141 -4 105 -9 129 -38 179 -5 8 -15 29 -23 45 -7 17 -25 42 -39 57 -14
15 -34 42 -44 60 -10 18 -24 33 -30 33 -6 0 -23 11 -38 24 -44 38 -178 101
-216 101 -19 0 -39 5 -45 11 -18 18 -110 21 -146 5 -18 -9 -45 -17 -60 -19
-16 -2 -32 -8 -36 -15 -4 -6 -25 -14 -46 -17 -22 -2 -46 -13 -55 -24 -8 -10
-30 -26 -49 -36 -37 -19 -111 -92 -111 -110 0 -6 -13 -26 -29 -44 -16 -18 -32
-49 -36 -69 -4 -20 -11 -43 -17 -49 -6 -7 -12 -41 -14 -75 -3 -34 -10 -68 -16
-75 -6 -7 -13 -55 -15 -106 -3 -50 -9 -97 -14 -103 -5 -7 -12 -21 -14 -33 -2
-12 -11 -28 -20 -37 -8 -9 -13 -19 -11 -23 3 -4 -11 -27 -30 -50 -19 -24 -34
-49 -34 -56 0 -7 -13 -18 -29 -25 -16 -6 -42 -25 -57 -42 -16 -16 -44 -36 -61
-43 -18 -8 -33 -19 -33 -25 0 -6 -8 -10 -18 -8 -11 2 -27 -4 -37 -12 -19 -16
-24 -17 -110 -19 -31 0 -60 -7 -67 -15 -11 -11 -16 -11 -33 0 -11 7 -49 14
-85 15 -65 2 -81 8 -175 62 -59 35 -203 180 -211 214 -4 12 -10 23 -14 23 -10
0 -25 40 -22 57 2 7 -4 26 -12 42 -9 17 -16 59 -17 98 -1 37 -8 88 -15 113 -8
25 -14 61 -14 80 0 19 -7 48 -15 64 -8 15 -15 37 -15 47 0 11 -4 19 -10 19 -5
0 -16 16 -26 35 -19 41 -147 172 -178 181 -11 4 -26 14 -33 23 -6 9 -15 13
-19 8 -4 -4 -15 0 -25 9 -10 9 -38 19 -61 21 -24 3 -54 11 -68 18 -32 16 -144
15 -175 -1z"/>
<path d="M1575 3392 c-11 -2 -22 -8 -25 -12 -3 -4 -22 -10 -44 -13 -21 -3 -42
-10 -46 -16 -3 -6 -16 -13 -28 -16 -12 -2 -29 -11 -38 -19 -8 -9 -22 -16 -31
-16 -8 0 -24 -11 -34 -24 -10 -13 -30 -26 -43 -30 -15 -4 -28 -17 -34 -36 -6
-16 -15 -30 -20 -30 -5 0 -18 -17 -27 -37 -10 -21 -29 -52 -43 -69 -14 -17
-27 -46 -29 -64 -2 -18 -8 -39 -14 -46 -6 -7 -12 -58 -14 -113 -2 -55 -9 -110
-15 -122 -7 -12 -14 -41 -16 -63 -4 -41 -23 -87 -57 -138 -10 -16 -15 -28 -10
-28 4 0 -3 -11 -17 -24 -14 -14 -40 -40 -58 -59 -19 -19 -49 -43 -68 -53 -19
-10 -34 -22 -34 -26 0 -5 -11 -8 -25 -8 -14 0 -28 -7 -31 -15 -4 -8 -14 -15
-24 -15 -10 0 -25 -6 -32 -13 -7 -7 -38 -14 -68 -16 -30 -1 -66 -9 -80 -16
-14 -7 -54 -13 -90 -13 -88 -1 -101 -5 -170 -44 -8 -4 -24 -12 -36 -17 -11 -5
-42 -27 -67 -49 -26 -22 -56 -43 -67 -47 -11 -3 -20 -14 -20 -24 0 -9 -10 -28
-23 -41 -27 -29 -67 -108 -67 -133 0 -10 -7 -31 -15 -46 -20 -39 -19 -266 1
-298 8 -12 14 -35 14 -51 0 -16 6 -35 14 -41 8 -7 18 -26 21 -42 4 -17 13 -33
20 -35 7 -3 21 -23 30 -45 10 -22 23 -38 30 -35 6 2 28 -11 49 -30 21 -19 44
-34 51 -34 7 0 23 -11 36 -25 13 -13 40 -28 59 -31 19 -4 41 -11 48 -17 20
-16 255 -17 289 -1 15 7 45 15 66 19 20 3 37 9 37 13 0 4 13 13 30 20 16 8 42
27 57 42 15 16 40 34 55 41 15 6 30 21 34 33 3 11 15 30 25 42 23 24 59 91 64
118 3 11 9 22 14 26 6 3 13 30 16 60 3 29 10 59 16 66 5 7 12 60 14 119 2 58
8 112 14 119 5 6 13 27 16 46 3 19 14 42 24 50 10 9 26 31 35 50 9 19 34 54
55 77 41 44 141 113 165 113 8 0 16 5 18 12 4 12 30 20 65 19 11 0 23 5 26 12
7 18 241 22 259 4 7 -7 26 -14 42 -15 35 -5 102 -38 136 -67 14 -13 35 -26 48
-30 13 -4 22 -14 22 -26 0 -13 10 -24 31 -31 17 -6 28 -16 26 -23 -3 -6 10
-29 29 -50 19 -21 34 -47 34 -57 0 -10 4 -18 10 -18 5 0 12 -17 15 -37 3 -21
12 -49 19 -63 8 -14 14 -61 15 -104 1 -44 7 -88 12 -99 6 -10 12 -36 14 -56 6
-62 16 -106 26 -109 5 -2 9 -12 9 -21 0 -10 11 -30 25 -45 13 -14 32 -42 41
-62 10 -20 35 -47 58 -62 23 -14 50 -34 62 -44 30 -27 94 -59 129 -65 17 -3
36 -10 43 -16 8 -6 59 -12 120 -13 82 -1 117 3 149 17 22 10 44 15 47 12 3 -3
22 5 43 18 21 13 40 23 43 23 27 -5 190 143 190 173 0 6 7 19 16 27 8 9 17 26
19 38 3 13 9 24 15 26 5 2 10 11 10 21 0 9 7 26 14 37 11 15 16 60 20 156 3
106 8 142 21 162 10 14 14 26 10 26 -4 0 -2 7 5 15 15 18 50 86 50 98 0 5 15
27 34 49 19 22 32 46 30 53 -3 7 9 18 27 26 18 7 44 25 58 39 32 33 109 74
176 93 62 19 237 19 274 1 14 -7 39 -14 54 -17 16 -2 32 -8 35 -14 4 -6 16
-13 27 -15 11 -1 30 -13 41 -25 12 -11 35 -28 52 -37 38 -20 123 -105 142
-143 8 -15 19 -34 24 -42 6 -7 11 -20 12 -28 1 -7 8 -21 15 -30 7 -8 14 -35
15 -59 1 -25 8 -51 14 -59 8 -9 14 -58 16 -121 3 -69 9 -113 19 -127 15 -23
15 -24 15 -57 0 -11 9 -29 19 -39 11 -11 28 -35 37 -53 19 -37 142 -163 151
-154 3 3 17 -4 31 -14 13 -11 30 -20 38 -20 7 0 14 -5 16 -12 2 -6 14 -12 25
-13 12 0 29 -8 39 -16 22 -18 259 -20 295 -2 27 13 80 27 92 25 4 -1 7 3 7 8
0 6 7 10 15 10 8 0 33 16 55 36 22 20 40 33 40 30 0 -21 45 23 61 60 11 24 24
44 29 44 16 0 79 150 85 200 5 44 13 79 21 91 9 15 13 46 17 139 3 44 9 76 16
78 6 2 11 12 11 22 0 9 7 23 15 30 8 7 15 23 15 36 0 13 4 24 10 24 5 0 16 15
24 32 16 38 87 118 105 118 6 0 30 17 54 39 52 47 73 58 116 59 18 0 40 7 50
15 12 11 45 15 133 15 65 0 120 -3 123 -8 3 -4 27 -13 55 -20 27 -7 50 -16 50
-21 0 -5 8 -9 18 -9 9 0 37 -19 62 -41 25 -23 59 -47 76 -55 20 -8 36 -25 44
-46 7 -18 22 -42 32 -54 10 -11 34 -52 54 -90 32 -62 36 -78 39 -164 2 -52 8
-108 15 -125 7 -16 14 -48 17 -69 2 -22 9 -49 16 -60 11 -21 13 -27 15 -58 1
-9 14 -31 29 -49 15 -17 28 -39 30 -48 2 -19 49 -61 67 -61 6 0 28 -16 46 -35
19 -20 46 -42 60 -49 14 -7 34 -17 45 -23 65 -36 88 -40 210 -39 83 1 129 6
137 14 7 7 24 12 39 12 15 0 34 7 43 15 8 8 21 15 29 15 8 0 26 9 40 20 14 11
30 20 35 20 17 0 125 114 139 148 7 17 18 32 23 32 6 0 10 11 10 24 0 13 7 29
15 36 8 7 15 23 15 37 0 13 7 37 15 52 18 35 16 214 -3 248 -7 12 -12 33 -12
47 0 13 -7 31 -15 40 -8 8 -15 21 -15 30 0 8 -6 21 -14 28 -7 8 -16 23 -20 35
-10 30 -122 145 -176 179 -25 16 -58 30 -74 31 -17 2 -33 8 -36 14 -4 6 -29
12 -56 15 -90 7 -123 13 -143 23 -11 6 -46 11 -77 11 -52 0 -137 28 -154 50
-3 4 -18 14 -35 23 -55 29 -215 200 -201 215 3 3 -2 10 -11 17 -8 6 -16 25
-17 42 -1 17 -7 37 -13 45 -7 8 -14 55 -17 105 -2 50 -9 100 -15 110 -5 11
-12 48 -15 82 -3 35 -11 70 -18 78 -7 8 -13 21 -14 27 -7 47 -152 215 -205
236 -16 7 -29 16 -29 20 0 4 -12 11 -27 15 -15 3 -30 11 -34 16 -3 5 -29 12
-59 15 -29 3 -58 11 -65 18 -16 15 -129 13 -148 -2 -7 -6 -29 -13 -48 -15 -42
-5 -129 -37 -129 -47 0 -4 -11 -11 -24 -14 -14 -3 -39 -19 -57 -36 -18 -16
-36 -27 -41 -24 -4 3 -16 -9 -26 -27 -9 -18 -31 -48 -48 -68 -38 -45 -74 -115
-74 -144 0 -13 -5 -28 -11 -34 -13 -13 -16 -42 -20 -158 -1 -38 -7 -76 -13
-84 -6 -8 -12 -33 -13 -56 -2 -41 -46 -145 -62 -145 -4 0 -18 -21 -32 -46 -22
-44 -101 -124 -122 -124 -5 0 -25 -14 -44 -30 -18 -17 -43 -30 -54 -30 -11 0
-32 -6 -47 -14 -37 -19 -326 -20 -356 -1 -12 7 -35 16 -52 19 -17 4 -46 22
-65 40 -32 31 -78 62 -89 59 -5 -1 -23 22 -75 97 -43 62 -77 134 -79 170 -1
19 -7 47 -14 61 -6 15 -13 80 -16 145 -3 71 -9 120 -15 122 -6 2 -11 14 -11
27 0 12 -7 28 -15 35 -8 6 -17 22 -21 33 -3 12 -19 36 -34 52 -16 17 -37 46
-47 65 -11 20 -29 36 -41 38 -12 2 -30 14 -40 27 -11 13 -31 27 -45 31 -15 3
-27 10 -27 14 0 4 -12 11 -27 15 -15 3 -31 11 -34 16 -3 6 -30 13 -60 16 -29
3 -59 11 -65 18 -16 16 -130 11 -151 -6 -9 -8 -29 -14 -45 -14 -16 0 -32 -5
-36 -12 -4 -6 -22 -13 -40 -16 -31 -5 -47 -15 -90 -54 -7 -7 -19 -13 -26 -13
-19 0 -116 -103 -116 -123 0 -6 -12 -23 -26 -38 -14 -14 -28 -42 -31 -60 -3
-19 -9 -40 -15 -46 -6 -7 -12 -40 -14 -74 -3 -33 -9 -70 -16 -82 -6 -11 -13
-57 -15 -101 -2 -45 -11 -97 -19 -116 -41 -92 -56 -119 -71 -132 -9 -7 -22
-28 -30 -45 -7 -18 -19 -33 -26 -33 -7 0 -37 -20 -66 -45 -29 -25 -59 -45 -67
-45 -8 0 -14 -4 -14 -10 0 -5 -12 -13 -27 -16 -16 -4 -31 -11 -34 -16 -3 -5
-25 -11 -50 -13 -91 -10 -115 -14 -137 -20 -12 -4 -28 -3 -35 2 -6 6 -43 11
-82 12 -44 2 -76 8 -86 17 -8 8 -24 14 -35 14 -11 0 -25 9 -32 20 -7 12 -17
18 -23 15 -13 -8 -194 174 -204 205 -4 13 -14 30 -21 38 -8 7 -15 22 -15 33
-2 27 -3 31 -16 54 -5 11 -11 47 -12 80 -2 80 -8 120 -20 143 -5 10 -11 41
-12 68 -1 27 -8 60 -15 74 -7 14 -15 32 -18 40 -24 61 -172 230 -201 230 -7 0
-22 9 -35 20 -13 11 -31 20 -41 20 -9 0 -19 5 -21 11 -2 6 -26 13 -53 15 -27
3 -55 10 -62 16 -13 11 -121 18 -158 10z"/>
</g>
</svg>
