<?xml version="1.0" encoding="UTF-8"?>
<svg width="45px" height="47px" viewBox="0 0 45 47" version="1.1" xmlns="http://www.w3.org/2000/svg" xmlns:xlink="http://www.w3.org/1999/xlink">
    <title>A48671E6-AB7E-4AD7-9131-E45E90DCF746</title>
    <defs>
        <polygon id="path-1" points="0 0 18.4337349 0 18.4337349 16.7471264 0 16.7471264"></polygon>
        <polygon id="path-3" points="0 47 45 47 45 0 0 0"></polygon>
    </defs>
    <g id="Homepage-CI" stroke="none" stroke-width="1" fill="none" fill-rule="evenodd">
        <g id="CI-HmPg-1280D_v2" transform="translate(-130.000000, -1635.000000)">
            <g id="Why-Choose-Culligan" transform="translate(-1.000000, 1212.000000)">
                <g id="CostEffective-icon" transform="translate(131.000000, 423.000000)">
                    <path d="M16.2650602,40.1061376 L29.2136508,40.1061376 L29.2629821,40.1090399 C29.8815791,40.1412104 31.2779446,39.8917142 32.8352985,39.2220782 C33.9331087,38.7499761 35.0841998,38.0715281 36.0556601,37.1397375 C38.202265,35.0809303 41.3440281,30.6357712 42.6963548,28.7223607 C42.914574,28.4136637 43.0854761,28.1718604 43.2139588,27.9948877 C43.4012125,27.7369992 43.3920493,27.1627207 43.1783328,26.7062493 C43.1143482,26.5694547 43.0347229,26.4574524 42.9417082,26.3925519 C42.8883877,26.3553111 42.818992,26.3351346 42.7320203,26.3411491 C42.2545055,26.3741588 41.5234615,26.8460161 40.459579,28.0950708 C38.5193838,30.3729172 36.7947219,32.2723756 35.0072998,33.6478394 C33.1427012,35.0826437 31.225019,35.9359663 28.9720101,36.0340164 C24.8709911,36.2125627 21.9376914,36.1505645 21.9291997,36.1504247 L21.9621399,34.665791 C21.9704342,34.6658959 24.8266759,34.7264254 28.8931352,34.5493827 C30.7237272,34.4697607 32.3225527,33.7450852 33.9091342,32.5242496 C35.5728132,31.2440385 37.2345569,29.4096555 39.1180349,27.198423 C40.5175996,25.5552097 41.6904535,24.9199122 42.6071318,24.8565154 C43.1503691,24.8189598 43.6074247,24.961664 43.9807078,25.2223499 C44.3143757,25.4552364 44.5620593,25.7763469 44.7303152,26.1356775 C45.1332603,26.9962034 45.0729094,28.185428 44.6277818,28.798346 C44.5273418,28.9367141 44.3494882,29.1884133 44.1233303,29.5083 C42.7456467,31.4576226 39.5448755,35.9861803 37.291985,38.146954 C36.1616297,39.2311698 34.8308681,40.0168994 33.5651971,40.5611403 C31.7697572,41.3331625 30.0524812,41.62483 29.2136508,41.5957367 L16.2650602,41.5965759 L16.2650602,40.1061376 Z" id="Fill-1" fill="#FFFFFF"></path>
                    <g id="Group-5" transform="translate(0.000000, 30.252874)">
                        <mask id="mask-2" fill="white">
                            <use xlink:href="#path-1"></use>
                        </mask>
                        <g id="Clip-4"></g>
                        <path d="M5.92556781,2.20540847 L2.42754872,5.38338339 L12.5081268,14.5416594 L16.0061862,11.3636845 L5.92556781,2.20540847 Z M0.606887181,4.83202212 L5.92556781,0 L18.4337349,11.3636845 L12.5081268,16.7471411 L0,5.38345657 L0.606887181,4.83202212 Z" id="Fill-3" fill="#FFFFFF" mask="url(#mask-2)"></path>
                    </g>
                    <path d="M27.4677181,34.6946983 C27.4731274,34.6930662 29.3713842,34.1205604 29.2029808,33.3408857 C29.0964659,32.8478349 28.8449347,32.4612804 28.2878592,32.2209496 C27.563852,31.9085827 26.3785452,31.7819444 24.4982265,31.890926 C22.1321472,32.0279876 20.1485353,31.6286357 18.3141158,31.2592186 C16.9273932,30.9800135 15.6311964,30.7189844 14.40357,30.7506996 C13.0528827,30.7856049 11.9026168,31.0233762 10.9548805,31.5902066 C10.0106443,32.1549597 9.23210688,33.0700268 8.6110747,34.4675358 L7.48174946,33.3408857 C8.24350226,31.6266698 8.80608692,31.0009715 10.0409919,30.2623597 C11.2724366,29.525788 12.7063711,29.2185029 14.3571934,29.175808 C15.8067988,29.1383432 17.1909361,29.417029 18.6717642,29.7152632 C20.3997482,30.063203 22.2683734,30.4395197 24.3988709,30.3160344 C26.5767791,30.1898784 28.0236003,30.3684109 28.9964341,30.7881272 C30.1362791,31.2798427 30.6468587,32.0525437 30.8584965,33.0320798 C31.3264383,35.1976532 28.5154216,35.9300287 28.5059554,35.932922 L27.4677181,34.6946983 Z" id="Fill-6" fill="#FFFFFF"></path>
                    <path d="M11.871554,29.1724138 C11.3557723,28.1649444 10.9638703,27.1104339 10.7008145,26.02885 C10.4360105,24.9403429 10.3012048,23.8336898 10.3012048,22.7289315 C10.3012048,18.5410962 12.1520913,14.7496679 15.1445948,12.0052075 C18.1370586,9.26071078 22.2710997,7.56321839 26.8373693,7.56321839 C31.4035991,7.56321839 35.5376402,9.26071078 38.530104,12.0052075 C41.5226075,14.7496679 43.373494,18.5410962 43.373494,22.7289315 C43.373494,23.1111643 43.3568469,23.5001744 43.3235924,23.8951604 L41.6367533,23.7799076 C41.6655977,23.4372099 41.6800596,23.0865687 41.6800596,22.7289315 C41.6800596,18.96986 40.0187275,15.5666039 37.3327847,13.1032978 C34.6468817,10.6399552 30.9360899,9.11630769 26.8373693,9.11630769 C22.7386089,9.11630769 19.0278171,10.6399552 16.3419141,13.1032978 C13.6559713,15.5666039 11.9946392,18.96986 11.9946392,22.7289315 C11.9946392,23.7381863 12.1137911,24.7328295 12.3479231,25.6951524 C12.583684,26.6644714 12.9357363,27.6110531 13.3996299,28.5172253 L11.871554,29.1724138 Z" id="Fill-8" fill="#FFFFFF"></path>
                    <polygon id="Fill-10" fill="#FFFFFF" points="11.9366499 42.6781609 10.8433735 41.5887941 11.9187718 40.5172414 13.0120482 41.6066082"></polygon>
                    <path d="M25.0427109,22.1494253 C24.2138934,21.9403671 23.5103202,21.4810633 23.0135269,20.8715184 C22.5175207,20.2629486 22.2289157,19.5056198 22.2289157,18.6992639 C22.2289157,17.7127512 22.6537442,16.8194567 23.3405794,16.1729366 C24.0272903,15.5263385 24.9761735,15.1264368 26.0240757,15.1264368 C27.0720193,15.1264368 28.0207782,15.5263385 28.7076548,16.1729366 C29.39449,16.8194567 29.8192771,17.7127512 29.8192771,18.6992639 L28.053384,18.6992639 C28.053384,18.1716651 27.826179,17.6939516 27.4591046,17.3483426 C27.0919059,17.0026946 26.5845478,16.7888781 26.0240757,16.7888781 C25.4636864,16.7888781 24.956204,17.0027726 24.5891296,17.3483426 C24.2220137,17.6939516 23.9948088,18.1716651 23.9948088,18.6992639 C23.9948088,19.1336056 24.1490132,19.5399428 24.4138785,19.864919 C24.6777909,20.1888031 25.0536486,20.4333934 25.4979909,20.5454111 L25.0427109,22.1494253 Z" id="Fill-12" fill="#FFFFFF"></path>
                    <path d="M27.0054818,21.0689655 C27.8342166,21.2780237 28.5378725,21.7372885 29.0346659,22.3468724 C29.5306721,22.9554032 29.8192771,23.712732 29.8192771,24.5191269 C29.8192771,25.5056396 29.3943243,26.3989341 28.7076134,27.0454152 C28.0207782,27.6920523 27.0719364,28.091954 26.0240342,28.091954 C24.9761735,28.091954 24.0272489,27.6919353 23.340538,27.0454152 C22.6537028,26.3988171 22.2289157,25.5056396 22.2289157,24.5191269 L23.9948088,24.5191269 C23.9948088,25.0466867 24.2219309,25.5243612 24.5890881,25.8700092 C24.956204,26.2156182 25.463645,26.4295127 26.0240342,26.4295127 C26.5844649,26.4295127 27.0919059,26.2156962 27.4590632,25.8700092 C27.826179,25.5244002 28.053384,25.0466867 28.053384,24.5191269 C28.053384,24.0847462 27.8991796,23.678448 27.6343143,23.3534328 C27.3704019,23.0295877 26.9945442,22.7849974 26.5502019,22.6729797 L27.0054818,21.0689655 Z" id="Fill-14" fill="#FFFFFF"></path>
                    <mask id="mask-4" fill="white">
                        <use xlink:href="#path-3"></use>
                    </mask>
                    <g id="Clip-19"></g>
                    <polygon id="Fill-18" fill="#FFFFFF" mask="url(#mask-4)" points="24.939759 15.6666667 27.1084337 15.6666667 27.1084337 14.045977 24.939759 14.045977"></polygon>
                    <polygon id="Fill-18" fill="#FFFFFF" mask="url(#mask-4)" points="24.939759 29.1724138 27.1084337 29.1724138 27.1084337 27.5517241 24.939759 27.5517241"></polygon>
                    <polygon id="Fill-18" fill="#FFFFFF" mask="url(#mask-4)" points="24.9427976 22.1228152 26.5977763 22.6904535 27.1066087 21.1012034 25.4506591 20.5262408"></polygon>
                    <path d="M22.1757827,9.10344828 C21.7317305,8.26781954 21.0413314,7.43232375 20.3512138,6.59689445 C19.6182079,5.70981172 18.8852422,4.82262927 18.3725122,3.85783374 L17.8915663,2.95286842 L19.0858442,2.87000356 C20.7732585,2.75300224 21.8292554,2.35283779 22.8508128,1.96580274 C24.7996616,1.22749783 26.6399213,0.530276331 31.5865347,1.41323742 L32.5301205,1.58172597 L32.2161418,2.33465605 C31.7477888,3.45816787 31.1012034,4.56103825 30.4546181,5.66380893 C29.8353912,6.72011146 29.2160436,7.77661343 28.77348,8.83803477 L27.1524502,8.37870488 C27.6208031,7.25529278 28.267469,6.15232267 28.9139336,5.049552 C29.3847006,4.24659721 29.8555077,3.44347622 30.2486249,2.6381947 C26.5806581,2.1056725 25.1105021,2.66262537 23.560886,3.24972603 C22.6649361,3.58916281 21.7455305,3.93747441 20.4658378,4.14166165 C20.8512704,4.69452612 21.3079558,5.24729088 21.7646814,5.80002239 C22.4975264,6.68710512 23.2304921,7.57425433 23.7432221,8.53898339 L22.1757827,9.10344828 Z" id="Fill-21" fill="#FFFFFF" mask="url(#mask-4)"></path>
                </g>
            </g>
        </g>
    </g>
</svg>