<?xml version="1.0" encoding="UTF-8"?>
<svg width="37px" height="49px" viewBox="0 0 37 49" version="1.1" xmlns="http://www.w3.org/2000/svg" xmlns:xlink="http://www.w3.org/1999/xlink">
    <title>ACE69130-098F-4E2F-AEA5-8EC7E7A58254</title>
    <defs>
        <polygon id="path-1" points="0 0 37 0 37 49 0 49"></polygon>
    </defs>
    <g id="Homepage-CI" stroke="none" stroke-width="1" fill="none" fill-rule="evenodd">
        <g id="CI-HmPg-1280D_v2" transform="translate(-665.000000, -1634.000000)">
            <g id="Why-Choose-Culligan" transform="translate(-1.000000, 1212.000000)">
                <g id="CustomSolutions_Icon" transform="translate(666.000000, 422.000000)">
                    <path d="M16.83004,42.4277273 C16.3610919,42.4277273 15.9794404,42.0509941 15.9794404,41.5880895 C15.9794404,41.1249474 16.3610919,40.7482143 16.83004,40.7482143 C21.5010029,40.7482143 25.3009249,37.5869316 25.3009249,33.7011438 C25.3009249,33.2382392 25.6825765,32.861506 26.1515245,32.861506 C26.6204725,32.861506 27.0021241,33.2382392 27.0021241,33.7011438 C27.0021241,38.5129783 22.438899,42.4277273 16.83004,42.4277273" id="Fill-1" fill="#FFFFFF"></path>
                    <g id="Group-5">
                        <mask id="mask-2" fill="white">
                            <use xlink:href="#path-1"></use>
                        </mask>
                        <g id="Clip-4"></g>
                        <path d="M27.3273576,7.3986406 C22.9319918,7.3986406 19.3562029,10.9285853 19.3562029,15.2673075 C19.3562029,19.6060296 22.9319918,23.1357369 27.3273576,23.1357369 C31.7227233,23.1357369 35.2987527,19.6060296 35.2987527,15.2673075 C35.2987527,10.9285853 31.7227233,7.3986406 27.3273576,7.3986406 L27.3273576,7.3986406 Z M16.3910084,4.05362039 C14.7936993,7.28113403 12.5526086,10.3469871 10.3853472,13.3121881 C6.11599623,19.1540448 1.70115108,25.194357 1.70115108,32.7812455 C1.70115108,40.7982792 8.48791135,47.3207244 16.8301362,47.3207244 C25.1721205,47.3207244 31.9591213,40.7982792 31.9591213,32.7812455 C31.9591213,30.2521244 31.3595892,27.6501255 30.1261356,24.8266445 L29.9659719,24.460119 L29.5725365,24.5526999 C28.8335225,24.726942 28.0779149,24.8152499 27.3273576,24.8152499 C21.9938553,24.8152499 17.6547633,20.5320763 17.6547633,15.2673075 C17.6547633,13.0681543 18.4344194,10.919802 19.849921,9.21821194 L20.0702064,8.95328805 L19.885032,8.66367591 C18.7749478,6.92719002 17.9397394,5.46346178 17.2569991,4.05670642 L16.8274908,3.17172769 L16.3910084,4.05362039 Z M16.8301362,49 C7.55001527,49 -4.80972344e-05,41.7243259 -4.80972344e-05,32.7812455 C-4.80972344e-05,24.6514529 4.57808716,18.3875222 9.00543759,12.329406 C11.885019,8.3899687 14.6051581,4.66869011 16.0252289,0.568067088 C16.1428267,0.228128906 16.4665211,0 16.8301362,0 C17.1937513,0 17.5174456,0.228128906 17.6350434,0.568067088 C18.3464015,2.62146463 19.4317156,4.77527687 21.0506685,7.34617807 L21.3207345,7.77513638 L21.737978,7.48267559 C23.3819414,6.32897478 25.3147288,5.71912758 27.3273576,5.71912758 C32.6611004,5.71912758 37.0001924,10.0025386 37.0001924,15.2673075 C37.0001924,18.7599824 35.0640382,21.9734902 31.9475779,23.653478 L31.564243,23.8600047 L31.7359501,24.2566783 C33.0309681,27.246805 33.6603204,30.0351527 33.6603204,32.7812455 C33.6603204,41.7243259 26.1102571,49 16.8301362,49 L16.8301362,49 Z" id="Fill-3" fill="#FFFFFF" mask="url(#mask-2)"></path>
                    </g>
                    <path d="M26.4779123,18.7368846 C26.3458854,18.7354603 26.2143395,18.6378942 26.1272835,18.5567079 L23.5802944,16.1778528 C23.2452972,15.8649767 23.2301466,15.3213605 23.5468669,14.9906804 C23.709195,14.8214234 23.9285184,14.7281304 24.1649163,14.7281304 C24.3832778,14.7281304 24.5908173,14.8100289 24.7495382,14.9581584 L26.4793552,16.5738143 L30.7806909,12.5237547 C30.9396523,12.3739635 31.1479133,12.2915902 31.3674772,12.2915902 C31.6024322,12.2915902 31.8210341,12.3839337 31.9831218,12.551529 C32.3065757,12.886482 32.2940704,13.4191784 31.9545039,13.7387013 L26.7953541,18.5970637 C26.7804439,18.6113069 26.6421644,18.7368846 26.4815196,18.7368846 L26.4779123,18.7368846 Z" id="Fill-6" fill="#FFFFFF"></path>
                </g>
            </g>
        </g>
    </g>
</svg>