<?xml version="1.0" encoding="UTF-8"?>
<svg width="51px" height="45px" viewBox="0 0 51 45" version="1.1" xmlns="http://www.w3.org/2000/svg" xmlns:xlink="http://www.w3.org/1999/xlink">
    <title>1B6064AC-9092-4D47-93C8-F920F5A1815D</title>
    <g id="Homepage-CI" stroke="none" stroke-width="1" fill="none" fill-rule="evenodd" stroke-linecap="round" stroke-linejoin="round">
        <g id="CI-HmPg-1280D_v2" transform="translate(-378.000000, -1636.000000)" stroke="#FFFFFF" stroke-width="1.429">
            <g id="Why-Choose-Culligan" transform="translate(-1.000000, 1212.000000)">
                <g id="Efficient-Icon" transform="translate(380.000000, 425.000000)">
                    <path d="M31,27 C30.6007642,28.7050244 29.4925487,30.1450727 28,31" id="Stroke-1"></path>
                    <line x1="31.02035" y1="24" x2="30.97965" y2="23" id="Stroke-3"></line>
                    <path d="M24,6 C24,6 34,14.2305582 34,24.9397816 C34,30.4958933 29.5227833,35 24,35 C18.4771461,35 14,30.4958933 14,24.9397816 C14,14.2305582 24,6 24,6 Z" id="Stroke-5"></path>
                    <path d="M46,19 C44.5587728,8.26685155 35.5743094,0 24.7059112,0 C15.89239,0 8.31773582,5.43639165 5,13.2158385" id="Stroke-7"></path>
                    <path d="M3,24 C4.44636634,34.7346872 13.4084647,43 24.2484092,43 C33.1206486,43 40.7350045,37.4630279 44,29.5668612" id="Stroke-9"></path>
                    <path d="M49,22 C49,20.3431947 47.656877,19 46,19 C44.343123,19 43,20.3431947 43,22 C43,23.6568053 44.343123,25 46,25 C47.656877,25 49,23.6568053 49,22 Z" id="Stroke-11"></path>
                    <path d="M6,22 C6,20.3431947 4.65686099,19 3.00003587,19 C1.34313901,19 0,20.3431947 0,22 C0,23.6568053 1.34313901,25 3.00003587,25 C4.65686099,25 6,23.6568053 6,22 Z" id="Stroke-13"></path>
                </g>
            </g>
        </g>
    </g>
</svg>