<?xml version="1.0" encoding="UTF-8"?>
<svg width="52px" height="52px" viewBox="0 0 52 52" version="1.1" xmlns="http://www.w3.org/2000/svg" xmlns:xlink="http://www.w3.org/1999/xlink">
    <title>503142C7-D104-44A9-A80E-1DDBA7046C4F</title>
    <defs>
        <polygon id="path-1" points="0 0 52 0 52 52 0 52"></polygon>
    </defs>
    <g id="Homepage-CI" stroke="none" stroke-width="1" fill="none" fill-rule="evenodd">
        <g id="CI-HmPg-1280D_v2" transform="translate(-919.000000, -1632.000000)">
            <g id="Why-Choose-Culligan" transform="translate(-1.000000, 1212.000000)">
                <g id="Sustainable-Icon" transform="translate(920.000000, 420.000000)">
                    <mask id="mask-2" fill="white">
                        <use xlink:href="#path-1"></use>
                    </mask>
                    <g id="Clip-2"></g>
                    <path d="M28.9247041,8.50074211 L28.9247041,7.40812619 C28.9247041,7.2593886 28.8034224,7.13810694 28.6546848,7.13810694 L23.345099,7.13810694 C23.1963614,7.13810694 23.0750797,7.2593886 23.0750797,7.40812619 L23.0750797,8.50074211 L28.9247041,8.50074211 Z M31.1285281,19.2695162 L32.0654884,18.3327721 L32.0654884,18.0424311 C32.0654884,17.6909089 31.9362078,17.3534388 31.7009949,17.0920671 L31.6653238,17.0488295 L28.4196881,12.6115636 C28.1630725,12.2606899 28.0273063,11.8451759 28.0273063,11.4102049 L28.0273063,9.83030046 L23.9726937,9.83030046 L23.9726937,11.4102049 C23.9726937,11.8453921 23.8369275,12.2609061 23.5798795,12.6117798 L20.3214887,17.0669893 L20.2990051,17.0920671 C20.0637922,17.3534388 19.9342954,17.6909089 19.9342954,18.0424311 L19.9342954,19.2695162 L31.1285281,19.2695162 Z M19.9342954,28.7962882 C19.9342954,28.9863178 20.0890862,29.1408924 20.2791158,29.1408924 L21.2571519,29.1408924 L29.7989698,20.5992907 L19.9342954,20.5992907 L19.9342954,28.7962882 Z M31.7208842,29.1408924 C31.9109138,29.1408924 32.0654884,28.9863178 32.0654884,28.7962882 L32.0654884,20.7782947 L23.7028907,29.1408924 L31.7208842,29.1408924 Z M20.1515647,32.6922185 C20.2021527,32.7172963 20.2581455,32.7304838 20.3165164,32.7304838 L31.6834836,32.7304838 C31.8940511,32.7304838 32.0654884,32.5590464 32.0654884,32.348479 L32.0654884,30.852888 C32.0654884,30.6421043 31.8940511,30.470667 31.6834836,30.470667 L22.3731161,30.470667 L20.1515647,32.6922185 Z M20.3165164,34.0604745 C20.1057327,34.0604745 19.9342954,34.2316957 19.9342954,34.4422632 L19.9342954,35.9380704 C19.9342954,36.1486378 20.1057327,36.3200752 20.3165164,36.3200752 L31.6834836,36.3200752 C31.8940511,36.3200752 32.0654884,36.1486378 32.0654884,35.9380704 L32.0654884,34.4422632 C32.0654884,34.2316957 31.8940511,34.0604745 31.6834836,34.0604745 L20.3165164,34.0604745 Z M20.3165164,37.6498497 C20.1057327,37.6498497 19.9342954,37.8212871 19.9342954,38.0320707 L19.9342954,39.5276617 C19.9342954,39.7382292 20.1057327,39.9096665 20.3165164,39.9096665 L31.6834836,39.9096665 C31.8940511,39.9096665 32.0654884,39.7382292 32.0654884,39.5276617 L32.0654884,38.0320707 C32.0654884,37.8212871 31.8940511,37.6498497 31.6834836,37.6498497 L20.3165164,37.6498497 Z M26.0001081,1.7295068 C12.6171845,1.7295068 1.7295068,12.6171845 1.7295068,25.9998919 C1.7295068,32.0585704 3.97743326,37.8493916 8.06512258,42.3331379 L18.6045208,31.7935235 L18.6045208,30.852888 C18.6045208,30.4760717 18.7273158,30.1154695 18.9540974,29.8184267 C18.7273158,29.5263563 18.6045208,29.1698617 18.6045208,28.7962882 L18.6045208,18.0424311 C18.6045208,17.3713825 18.849246,16.7247631 19.2935131,16.221909 L22.5067205,11.8265837 C22.5957901,11.7048696 22.642703,11.5608882 22.642703,11.4102049 L22.642703,9.80933019 C22.1318499,9.70837023 21.7455214,9.25696896 21.7455214,8.71693046 L21.7455214,7.40812619 C21.7455214,6.52607772 22.4630505,5.80854859 23.345099,5.80854859 L28.6546848,5.80854859 C29.5367333,5.80854859 30.2542624,6.52607772 30.2542624,7.40812619 L30.2542624,8.71693046 C30.2542624,9.25696896 29.8679339,9.70837023 29.3570808,9.80933019 L29.3570808,11.4102049 C29.3570808,11.5608882 29.4042099,11.7048696 29.4930633,11.8267999 L32.7190258,16.2372584 C32.9496988,16.4977654 33.1304323,16.8108061 33.2467416,17.1515189 L42.3329217,8.06512258 C37.8493916,3.97743326 32.0583542,1.7295068 26.0001081,1.7295068 L26.0001081,1.7295068 Z M26.0001081,44.1839264 C26.7314733,44.1839264 27.45311,44.4230307 28.0320624,44.8573531 L28.2953798,45.0547331 C28.5014073,45.2090916 28.7565096,45.2940536 29.0137737,45.2940536 L30.150492,45.2940536 C31.2065721,45.2940536 32.0654884,44.4349211 32.0654884,43.378841 L32.0654884,41.2396573 L19.9342954,41.2396573 L19.9342954,43.378841 C19.9342954,44.4349211 20.7934279,45.2940536 21.8492918,45.2940536 L22.9860101,45.2940536 C23.2434904,45.2940536 23.4983765,45.2090916 23.7046202,45.0547331 L23.9677214,44.8573531 C24.5466738,44.4230307 25.2685267,44.1839264 26.0001081,44.1839264 L26.0001081,44.1839264 Z M9.27448021,43.5695191 C13.8120575,47.8924214 19.7427525,50.2704932 26.0001081,50.2704932 C39.3828155,50.2704932 50.2704932,39.3828155 50.2704932,25.9998919 C50.2704932,19.7429687 47.8924214,13.8120575 43.5695191,9.27448021 L33.3954792,19.4485201 L33.3954792,28.7962882 C33.3954792,29.1698617 33.272468,29.5263563 33.0456864,29.8184267 C33.272468,30.1154695 33.3954792,30.4762879 33.3954792,30.852888 L33.3954792,32.348479 C33.3954792,32.7311324 33.2692252,33.0962745 33.0366065,33.395263 C33.2692252,33.6944677 33.3954792,34.0596098 33.3954792,34.4422632 L33.3954792,35.9380704 C33.3954792,36.3209399 33.2692252,36.6858659 33.0366065,36.9850705 C33.2692252,37.2842752 33.3954792,37.6492011 33.3954792,38.0320707 L33.3954792,39.5276617 C33.3954792,39.6571585 33.3807784,39.7849259 33.3520253,39.9096665 L33.3954792,39.9096665 L33.3954792,43.378841 C33.3954792,45.1680158 31.9396668,46.6238281 30.150492,46.6238281 L29.0137737,46.6238281 C28.4704924,46.6238281 27.9319672,46.4443918 27.4974286,46.1183798 L27.2343274,45.9209998 C26.8830213,45.6574662 26.4445913,45.5124038 25.9998919,45.5124038 C25.5551925,45.5124038 25.1169787,45.6574662 24.7654564,45.9209998 L24.5025714,46.1183798 C24.0678166,46.4443918 23.5292914,46.6238281 22.9860101,46.6238281 L21.8492918,46.6238281 C20.060117,46.6238281 18.6045208,45.1680158 18.6045208,43.378841 L18.6045208,39.9096665 L18.6477585,39.9096665 C18.6190055,39.7849259 18.6045208,39.6571585 18.6045208,39.5276617 L18.6045208,38.0320707 C18.6045208,37.6492011 18.7307748,37.2842752 18.9633935,36.9850705 C18.7307748,36.6858659 18.6045208,36.3209399 18.6045208,35.9380704 L18.6045208,34.4422632 C18.6045208,34.3694077 18.6090608,34.2969846 18.6179245,34.2258586 L9.27448021,43.5695191 Z M26.0001081,52 C11.6635777,52 0,40.3364223 0,25.9998919 C0,11.6635777 11.6635777,0 26.0001081,0 C40.3364223,0 52,11.6635777 52,25.9998919 C52,40.3364223 40.3364223,52 26.0001081,52 L26.0001081,52 Z" id="Fill-1" fill="#FFFFFF" mask="url(#mask-2)"></path>
                </g>
            </g>
        </g>
    </g>
</svg>