<svg width="110" height="90" viewBox="0 0 110 90" fill="none" xmlns="http://www.w3.org/2000/svg">
<path d="M19.4 0.190521C19.4 0.285735 19.1575 0.380951 18.8404 0.380951C18.5419 0.380951 18.2808 0.457122 18.2808 0.57138C18.2808 0.666594 18.1129 0.761808 17.9077 0.761808C17.7025 0.761808 17.5346 0.837981 17.5346 0.952239C17.5346 1.04745 17.3854 1.14267 17.1988 1.14267C17.0123 1.14267 16.7512 1.31405 16.6019 1.52353C16.4527 1.733 16.1915 1.90438 16.005 1.90438C15.7998 1.90438 15.6692 2.03768 15.6692 2.24716C15.6692 2.43759 15.5013 2.70419 15.2962 2.85653C15.091 3.00887 14.9231 3.25643 14.9231 3.42782C14.9231 3.5992 14.7552 3.84676 14.55 3.9991C14.3262 4.15145 14.1769 4.49422 14.1769 4.79891C14.1769 5.08455 14.1023 5.33211 13.9904 5.33211C13.8785 5.33211 13.8038 5.96052 13.8038 6.85554C13.8038 7.75056 13.7292 8.37897 13.6173 8.37897C13.524 8.37897 13.4308 8.72174 13.4308 9.14069C13.4308 9.55963 13.3562 9.9024 13.2442 9.9024C13.151 9.9024 13.0577 10.0738 13.0577 10.2833C13.0577 10.4927 12.9831 10.6641 12.8712 10.6641C12.7779 10.6641 12.6846 10.7974 12.6846 10.9498C12.6846 11.3306 11.099 12.9493 10.726 12.9493C10.5767 12.9493 10.4462 13.0254 10.4462 13.1397C10.4462 13.2349 10.2783 13.3301 10.0731 13.3301C9.86788 13.3301 9.7 13.4063 9.7 13.5206C9.7 13.6158 9.53212 13.711 9.32692 13.711C9.12173 13.711 8.95385 13.7872 8.95385 13.9014C8.95385 13.9966 8.54346 14.0918 8.02115 14.0918C7.5175 14.0918 7.08846 14.168 7.08846 14.2823C7.08846 14.3965 6.52885 14.4727 5.78269 14.4727C5.03654 14.4727 4.47692 14.5489 4.47692 14.6631C4.47692 14.7583 4.30904 14.8536 4.10385 14.8536C3.89865 14.8536 3.73077 14.9297 3.73077 15.044C3.73077 15.1392 3.60019 15.2344 3.43231 15.2344C3.26442 15.2344 2.89135 15.482 2.61154 15.8057C2.33173 16.1104 1.95865 16.377 1.79077 16.377C1.62288 16.377 1.49231 16.5293 1.49231 16.7198C1.49231 16.9102 1.32442 17.1768 1.11923 17.3291C0.914038 17.4815 0.746154 17.7481 0.746154 17.9385C0.746154 18.1289 0.671538 18.2813 0.559615 18.2813C0.466346 18.2813 0.373077 18.5288 0.373077 18.8526C0.373077 19.1573 0.298462 19.4239 0.186538 19.4239C0.0746154 19.4239 0 20.1856 0 21.3281C0 22.4707 0.0746154 23.2324 0.186538 23.2324C0.298462 23.2324 0.373077 23.48 0.373077 23.8037C0.373077 24.1084 0.466346 24.375 0.559615 24.375C0.671538 24.375 0.746154 24.5274 0.746154 24.7178C0.746154 24.9082 0.914038 25.1748 1.11923 25.3272C1.32442 25.4795 1.49231 25.7461 1.49231 25.9365C1.49231 26.146 1.62288 26.2793 1.82808 26.2793C2.01462 26.2793 2.27577 26.4507 2.425 26.6602C2.57423 26.8696 2.81673 27.041 2.98462 27.041C3.1525 27.041 3.395 27.2124 3.54423 27.4219C3.69346 27.6504 4.02923 27.8027 4.32769 27.8027C4.6075 27.8027 4.85 27.8789 4.85 27.9932C4.85 28.1074 5.59615 28.1836 6.71539 28.1836C7.83462 28.1836 8.58077 28.1074 8.58077 27.9932C8.58077 27.8789 8.84192 27.8027 9.14038 27.8027C9.4575 27.8027 9.7 27.7075 9.7 27.6123C9.7 27.498 9.83058 27.4219 9.99846 27.4219C10.1663 27.4219 10.5394 27.1553 10.8192 26.8506C11.099 26.5269 11.4721 26.2793 11.64 26.2793C11.8079 26.2793 11.9385 26.127 11.9385 25.9365C11.9385 25.7461 12.1063 25.4795 12.3115 25.3272C12.5167 25.1748 12.6846 24.9082 12.6846 24.7178C12.6846 24.5274 12.7779 24.375 12.8712 24.375C12.9831 24.375 13.0577 24.2036 13.0577 23.9942C13.0577 23.7847 13.151 23.6133 13.2442 23.6133C13.3562 23.6133 13.4308 23.2705 13.4308 22.8516C13.4308 22.4326 13.524 22.0899 13.6173 22.0899C13.7292 22.0899 13.8038 21.4614 13.8038 20.5664C13.8038 19.6714 13.8785 19.043 13.9904 19.043C14.1023 19.043 14.1769 18.7954 14.1769 18.5098C14.1769 18.2051 14.3262 17.8623 14.55 17.71C14.7552 17.5577 14.9231 17.3291 14.9231 17.1958C14.9231 16.834 16.5273 15.2344 16.8817 15.2344C17.031 15.2344 17.1615 15.1392 17.1615 15.044C17.1615 14.9297 17.3294 14.8536 17.5346 14.8536C17.7398 14.8536 17.9077 14.7583 17.9077 14.6631C17.9077 14.5489 18.1688 14.4727 18.4673 14.4727C18.7844 14.4727 19.0269 14.3775 19.0269 14.2823C19.0269 14.168 19.7171 14.0918 20.7058 14.0918C21.6944 14.0918 22.3846 14.168 22.3846 14.2823C22.3846 14.3775 22.6458 14.4727 22.9442 14.4727C23.2613 14.4727 23.5038 14.5489 23.5038 14.6631C23.5038 14.7583 23.6531 14.8536 23.8396 14.8536C24.0262 14.8536 24.2873 15.0249 24.4365 15.2344C24.5858 15.4439 24.8469 15.6153 25.0335 15.6153C25.2387 15.6153 25.3692 15.7486 25.3692 15.9961C25.3692 16.2437 25.4998 16.377 25.7423 16.377C25.9848 16.377 26.1154 16.5103 26.1154 16.7198C26.1154 16.9102 26.2833 17.1768 26.4885 17.3291C26.6937 17.4815 26.8615 17.7481 26.8615 17.9385C26.8615 18.1289 26.9548 18.2813 27.0481 18.2813C27.16 18.2813 27.2346 18.5288 27.2346 18.8526C27.2346 19.1573 27.3279 19.4239 27.4212 19.4239C27.5331 19.4239 27.6077 19.9951 27.6077 20.7569C27.6077 21.5186 27.6823 22.0899 27.7942 22.0899C27.9062 22.0899 27.9808 22.5088 27.9808 23.042C27.9808 23.5562 28.074 23.9942 28.1673 23.9942C28.2792 23.9942 28.3538 24.1465 28.3538 24.3369C28.3538 24.5274 28.5217 24.794 28.7269 24.9463C28.9321 25.0986 29.1 25.3272 29.1 25.4795C29.1 25.8032 29.9394 26.6602 30.2565 26.6602C30.4058 26.6602 30.6296 26.8315 30.7788 27.041C30.9281 27.2505 31.1892 27.4219 31.3758 27.4219C31.5623 27.4219 31.7115 27.498 31.7115 27.6123C31.7115 27.7075 31.9727 27.8027 32.2712 27.8027C32.5883 27.8027 32.8308 27.8789 32.8308 27.9932C32.8308 28.1074 33.521 28.1836 34.5096 28.1836C35.4983 28.1836 36.1885 28.1074 36.1885 27.9932C36.1885 27.8789 36.4496 27.8027 36.7481 27.8027C37.0652 27.8027 37.3077 27.7075 37.3077 27.6123C37.3077 27.498 37.4756 27.4219 37.6808 27.4219C37.886 27.4219 38.0538 27.3267 38.0538 27.2314C38.0538 27.1172 38.1844 27.041 38.3337 27.041C38.7067 27.041 40.2923 25.4224 40.2923 25.0415C40.2923 24.8892 40.3856 24.7559 40.4788 24.7559C40.5908 24.7559 40.6654 24.5845 40.6654 24.375C40.6654 24.1655 40.7587 23.9942 40.8519 23.9942C40.9638 23.9942 41.0385 23.8228 41.0385 23.6133C41.0385 23.4038 41.1317 23.2324 41.225 23.2324C41.3369 23.2324 41.4115 22.4707 41.4115 21.3281C41.4115 20.1856 41.4862 19.4239 41.5981 19.4239C41.71 19.4239 41.7846 19.2525 41.7846 19.043C41.7846 18.8335 41.8779 18.6621 41.9712 18.6621C42.0831 18.6621 42.1577 18.4908 42.1577 18.2813C42.1577 18.0718 42.251 17.9004 42.3442 17.9004C42.4562 17.9004 42.5308 17.7481 42.5308 17.5577C42.5308 17.3672 42.6987 17.1006 42.9038 16.9483C43.109 16.7959 43.2769 16.5293 43.2769 16.3389C43.2769 16.1485 43.4075 15.9961 43.5754 15.9961C43.7433 15.9961 44.1163 15.7295 44.3962 15.4248C44.676 15.1011 45.049 14.8536 45.2169 14.8536C45.3848 14.8536 45.5154 14.7583 45.5154 14.6631C45.5154 14.5489 45.7765 14.4727 46.075 14.4727C46.3921 14.4727 46.6346 14.3775 46.6346 14.2823C46.6346 14.168 47.3248 14.0918 48.3135 14.0918C49.3021 14.0918 49.9923 14.168 49.9923 14.2823C49.9923 14.3775 50.2535 14.4727 50.5519 14.4727C50.869 14.4727 51.1115 14.5489 51.1115 14.6631C51.1115 14.7583 51.2608 14.8536 51.4473 14.8536C51.6338 14.8536 51.895 15.0249 52.0442 15.2344C52.1935 15.4439 52.4173 15.6153 52.5479 15.6153C52.9023 15.6153 54.4692 17.253 54.4692 17.6148C54.4692 17.7671 54.5625 17.9004 54.6558 17.9004C54.7677 17.9004 54.8423 18.0718 54.8423 18.2813C54.8423 18.4908 54.9356 18.6621 55.0288 18.6621C55.1408 18.6621 55.2154 19.0049 55.2154 19.4239C55.2154 19.8428 55.3087 20.1856 55.4019 20.1856C55.5138 20.1856 55.5885 20.814 55.5885 21.709C55.5885 22.604 55.6631 23.2324 55.775 23.2324C55.8869 23.2324 55.9615 23.48 55.9615 23.7656C55.9615 24.0703 56.1108 24.4131 56.3346 24.5654C56.5398 24.7178 56.7077 24.9463 56.7077 25.0796C56.7077 25.4414 58.3119 27.041 58.6663 27.041C58.8156 27.041 58.9462 27.1172 58.9462 27.2314C58.9462 27.3267 59.114 27.4219 59.3192 27.4219C59.5244 27.4219 59.6923 27.498 59.6923 27.6123C59.6923 27.7075 59.8602 27.8027 60.0654 27.8027C60.2706 27.8027 60.4385 27.8789 60.4385 27.9932C60.4385 28.1074 61.1846 28.1836 62.3038 28.1836C63.4231 28.1836 64.1692 28.1074 64.1692 27.9932C64.1692 27.8789 64.4304 27.8027 64.7288 27.8027C65.046 27.8027 65.2885 27.7075 65.2885 27.6123C65.2885 27.498 65.4377 27.4219 65.6242 27.4219C65.8108 27.4219 66.0719 27.2505 66.2212 27.041C66.3704 26.8315 66.5942 26.6602 66.7435 26.6602C67.0606 26.6602 67.5269 26.1841 67.5269 25.8604C67.5269 25.708 67.6948 25.4795 67.9 25.3272C68.1052 25.1748 68.2731 24.9082 68.2731 24.7178C68.2731 24.5274 68.3664 24.375 68.4596 24.375C68.5715 24.375 68.6462 24.1084 68.6462 23.8037C68.6462 23.48 68.7394 23.2324 68.8327 23.2324C68.9446 23.2324 69.0192 22.8897 69.0192 22.4707C69.0192 22.0518 69.1125 21.709 69.2058 21.709C69.3177 21.709 69.3923 21.1377 69.3923 20.376C69.3923 19.6143 69.4669 19.043 69.5789 19.043C69.6908 19.043 69.7654 18.8716 69.7654 18.6621C69.7654 18.4527 69.8587 18.2813 69.9519 18.2813C70.0638 18.2813 70.1385 18.1099 70.1385 17.9004C70.1385 17.691 70.2317 17.5196 70.325 17.5196C70.4369 17.5196 70.5115 17.3863 70.5115 17.2339C70.5115 16.8912 71.7054 15.6153 72.0225 15.6153C72.1344 15.6153 72.4702 15.3487 72.75 15.044C73.1417 14.606 73.4402 14.4727 73.9439 14.4727C74.3169 14.4727 74.6154 14.3775 74.6154 14.2823C74.6154 14.168 75.3056 14.0918 76.2942 14.0918C77.2829 14.0918 77.9731 14.168 77.9731 14.2823C77.9731 14.3775 78.2342 14.4727 78.5327 14.4727C78.8498 14.4727 79.0923 14.5489 79.0923 14.6631C79.0923 14.7583 79.2229 14.8536 79.3908 14.8536C79.5587 14.8536 79.9317 15.1011 80.2115 15.4248C80.4914 15.7295 80.8271 15.9961 80.9577 15.9961C81.2562 15.9961 81.7038 16.4722 81.7038 16.7959C81.7038 16.9483 81.8717 17.1768 82.0769 17.3291C82.2821 17.4815 82.45 17.7481 82.45 17.9385C82.45 18.1289 82.5433 18.2813 82.6365 18.2813C82.7485 18.2813 82.8231 18.4527 82.8231 18.6621C82.8231 18.8716 82.9164 19.043 83.0096 19.043C83.1215 19.043 83.1962 19.6714 83.1962 20.5664C83.1962 21.4614 83.2708 22.0899 83.3827 22.0899C83.4946 22.0899 83.5692 22.4326 83.5692 22.8516C83.5692 23.2705 83.6625 23.6133 83.7558 23.6133C83.8677 23.6133 83.9423 23.8609 83.9423 24.1465C83.9423 24.4512 84.0915 24.794 84.3154 24.9463C84.5206 25.0986 84.6885 25.3272 84.6885 25.4795C84.6885 25.8032 85.1362 26.2793 85.4346 26.2793C85.5652 26.2793 85.901 26.5269 86.1808 26.8506C86.4606 27.1553 86.8337 27.4219 87.0015 27.4219C87.1694 27.4219 87.3 27.498 87.3 27.6123C87.3 27.7075 87.4679 27.8027 87.6731 27.8027C87.8783 27.8027 88.0462 27.8789 88.0462 27.9932C88.0462 28.1074 88.7923 28.1836 89.9115 28.1836C91.0308 28.1836 91.7769 28.1074 91.7769 27.9932C91.7769 27.8789 92.0381 27.8027 92.3365 27.8027C92.6537 27.8027 92.8962 27.7075 92.8962 27.6123C92.8962 27.498 93.064 27.4219 93.2692 27.4219C93.4744 27.4219 93.6423 27.3267 93.6423 27.2314C93.6423 27.1172 93.7729 27.041 93.9221 27.041C94.2952 27.041 95.8808 25.4224 95.8808 25.0415C95.8808 24.8892 95.974 24.7559 96.0673 24.7559C96.1792 24.7559 96.2539 24.5845 96.2539 24.375C96.2539 24.1655 96.3471 23.9942 96.4404 23.9942C96.5523 23.9942 96.6269 23.7276 96.6269 23.4229C96.6269 23.0991 96.7202 22.8516 96.8135 22.8516C96.9254 22.8516 97 22.2232 97 21.3281C97 20.4331 96.9254 19.8047 96.8135 19.8047C96.7202 19.8047 96.6269 19.5381 96.6269 19.2334C96.6269 18.9097 96.5523 18.6621 96.4404 18.6621C96.3471 18.6621 96.2539 18.4908 96.2539 18.2813C96.2539 18.0718 96.1792 17.9004 96.0673 17.9004C95.974 17.9004 95.8808 17.7671 95.8808 17.6148C95.8808 17.2339 93.9221 15.2344 93.549 15.2344C93.3998 15.2344 93.2692 15.1392 93.2692 15.044C93.2692 14.9297 93.0267 14.8536 92.7096 14.8536C92.4112 14.8536 92.15 14.7583 92.15 14.6631C92.15 14.5489 91.6463 14.4727 91.0308 14.4727C90.4152 14.4727 89.9115 14.3965 89.9115 14.2823C89.9115 14.168 89.4079 14.0918 88.7923 14.0918C88.1767 14.0918 87.6731 14.0157 87.6731 13.9014C87.6731 13.7872 87.5052 13.711 87.3 13.711C87.0948 13.711 86.9269 13.6158 86.9269 13.5206C86.9269 13.4063 86.7964 13.3301 86.6471 13.3301C86.274 13.3301 83.9423 10.9498 83.9423 10.5689C83.9423 10.4166 83.8677 10.2833 83.7558 10.2833C83.6625 10.2833 83.5692 10.0167 83.5692 9.71197C83.5692 9.38824 83.4946 9.14069 83.3827 9.14069C83.2708 9.14069 83.1962 8.5694 83.1962 7.80768C83.1962 7.04597 83.1215 6.47468 83.0096 6.47468C82.9164 6.47468 82.8231 6.03669 82.8231 5.52254C82.8231 4.98933 82.7485 4.57039 82.6365 4.57039C82.5433 4.57039 82.45 4.399 82.45 4.18953C82.45 3.98006 82.3754 3.80867 82.2635 3.80867C82.1702 3.80867 82.0769 3.67537 82.0769 3.52303C82.0769 3.14217 80.1183 1.14267 79.7452 1.14267C79.596 1.14267 79.4654 1.04745 79.4654 0.952239C79.4654 0.837981 79.2975 0.761808 79.0923 0.761808C78.8871 0.761808 78.7192 0.666594 78.7192 0.57138C78.7192 0.457122 78.3835 0.380951 77.9731 0.380951C77.5627 0.380951 77.2269 0.285735 77.2269 0.190521C77.2269 0.0762635 76.8165 9.2643e-05 76.2942 9.2643e-05C75.7906 9.2643e-05 75.3615 0.0762635 75.3615 0.190521C75.3615 0.285735 75.0258 0.380951 74.6154 0.380951C74.205 0.380951 73.8692 0.457122 73.8692 0.57138C73.8692 0.666594 73.7014 0.761808 73.4962 0.761808C73.291 0.761808 73.1231 0.837981 73.1231 0.952239C73.1231 1.04745 72.9739 1.14267 72.7873 1.14267C72.6008 1.14267 72.3396 1.31405 72.1904 1.52353C72.0412 1.733 71.78 1.90438 71.5935 1.90438C71.4069 1.90438 71.2577 2.03768 71.2577 2.20907C71.2577 2.38046 71.0152 2.76131 70.6981 3.04696C70.3996 3.3326 70.1385 3.71346 70.1385 3.88484C70.1385 4.05623 70.0638 4.18953 69.9519 4.18953C69.8587 4.18953 69.7654 4.43709 69.7654 4.76082C69.7654 5.0655 69.6908 5.33211 69.5789 5.33211C69.4669 5.33211 69.3923 5.96052 69.3923 6.85554C69.3923 7.75056 69.3177 8.37897 69.2058 8.37897C69.1125 8.37897 69.0192 8.72174 69.0192 9.14069C69.0192 9.55963 68.9446 9.9024 68.8327 9.9024C68.7394 9.9024 68.6462 10.0547 68.6462 10.2452C68.6462 10.4356 68.4783 10.7022 68.2731 10.8545C68.0679 11.0069 67.9 11.2354 67.9 11.3878C67.9 11.7115 66.6875 12.9493 66.3704 12.9493C66.2212 12.9493 65.9973 13.1207 65.8481 13.3301C65.6988 13.5586 65.3631 13.711 65.0646 13.711C64.7848 13.711 64.5423 13.7872 64.5423 13.9014C64.5423 14.0157 63.6656 14.0918 62.3038 14.0918C60.9421 14.0918 60.0654 14.0157 60.0654 13.9014C60.0654 13.7872 59.8415 13.711 59.5804 13.711C59.2819 13.711 58.8902 13.4825 58.5731 13.1397C58.2933 12.816 57.9575 12.5684 57.8456 12.5684C57.5471 12.5684 56.7077 11.6924 56.7077 11.3878C56.7077 11.2354 56.5398 11.0069 56.3346 10.8545C56.1294 10.7022 55.9615 10.4356 55.9615 10.2452C55.9615 10.0547 55.8869 9.9024 55.775 9.9024C55.6817 9.9024 55.5885 9.55963 55.5885 9.14069C55.5885 8.72174 55.5138 8.37897 55.4019 8.37897C55.29 8.37897 55.2154 7.67438 55.2154 6.66511C55.2154 5.65584 55.1408 4.95125 55.0288 4.95125C54.9356 4.95125 54.8423 4.77986 54.8423 4.57039C54.8423 4.36092 54.7677 4.18953 54.6558 4.18953C54.5625 4.18953 54.4692 4.05623 54.4692 3.88484C54.4692 3.71346 54.2267 3.3326 53.9096 3.04696C53.6112 2.76131 53.35 2.38046 53.35 2.20907C53.35 2.03768 53.2008 1.90438 53.0142 1.90438C52.8277 1.90438 52.5665 1.733 52.4173 1.52353C52.2681 1.31405 52.0069 1.14267 51.8204 1.14267C51.6338 1.14267 51.4846 1.04745 51.4846 0.952239C51.4846 0.837981 51.3167 0.761808 51.1115 0.761808C50.9063 0.761808 50.7385 0.666594 50.7385 0.57138C50.7385 0.457122 50.4027 0.380951 49.9923 0.380951C49.5819 0.380951 49.2462 0.285735 49.2462 0.190521C49.2462 0.0762635 48.8358 9.2643e-05 48.3135 9.2643e-05C47.8098 9.2643e-05 47.3808 0.0762635 47.3808 0.190521C47.3808 0.285735 47.1383 0.380951 46.8212 0.380951C46.5227 0.380951 46.2615 0.457122 46.2615 0.57138C46.2615 0.666594 46.019 0.761808 45.7392 0.761808C45.4408 0.761808 45.105 0.914152 44.9558 1.14267C44.8065 1.35214 44.5827 1.52353 44.4335 1.52353C44.1163 1.52353 42.9038 2.76131 42.9038 3.08504C42.9038 3.23739 42.736 3.4659 42.5308 3.61824C42.3069 3.77059 42.1577 4.11336 42.1577 4.41805C42.1577 4.70369 42.0831 4.95125 41.9712 4.95125C41.8779 4.95125 41.7846 5.37019 41.7846 5.90339C41.7846 6.41755 41.71 6.85554 41.5981 6.85554C41.4862 6.85554 41.4115 7.42683 41.4115 8.18854C41.4115 8.95026 41.3369 9.52155 41.225 9.52155C41.1317 9.52155 41.0385 9.69293 41.0385 9.9024C41.0385 10.1119 40.9638 10.2833 40.8519 10.2833C40.7587 10.2833 40.6654 10.4356 40.6654 10.626C40.6654 10.8165 40.4975 11.0831 40.2923 11.2354C40.0871 11.3878 39.9192 11.6544 39.9192 11.8448C39.9192 12.0352 39.7887 12.1876 39.6208 12.1876C39.4529 12.1876 39.0798 12.4351 38.8 12.7588C38.5202 13.0635 38.1471 13.3301 37.9792 13.3301C37.8113 13.3301 37.6808 13.4063 37.6808 13.5206C37.6808 13.6158 37.5129 13.711 37.3077 13.711C37.1025 13.711 36.9346 13.7872 36.9346 13.9014C36.9346 14.0157 36.4496 14.0918 35.834 14.0918C35.1252 14.0918 34.6962 14.1871 34.6215 14.3204C34.5283 14.5108 34.491 14.5108 34.3977 14.3204C34.3231 14.1871 33.894 14.0918 33.1852 14.0918C32.5696 14.0918 32.0846 14.0157 32.0846 13.9014C32.0846 13.7872 31.9167 13.711 31.7115 13.711C31.5063 13.711 31.3385 13.6158 31.3385 13.5206C31.3385 13.4063 31.2079 13.3301 31.0587 13.3301C30.6856 13.3301 28.3538 10.9498 28.3538 10.5689C28.3538 10.4166 28.2792 10.2833 28.1673 10.2833C28.074 10.2833 27.9808 10.0167 27.9808 9.71197C27.9808 9.38824 27.9062 9.14069 27.7942 9.14069C27.6823 9.14069 27.6077 8.5694 27.6077 7.80768C27.6077 7.04597 27.5331 6.47468 27.4212 6.47468C27.3279 6.47468 27.2346 6.03669 27.2346 5.52254C27.2346 4.98933 27.16 4.57039 27.0481 4.57039C26.9548 4.57039 26.8615 4.399 26.8615 4.18953C26.8615 3.98006 26.7869 3.80867 26.675 3.80867C26.5817 3.80867 26.4885 3.67537 26.4885 3.52303C26.4885 3.14217 24.5298 1.14267 24.1567 1.14267C24.0075 1.14267 23.8769 1.04745 23.8769 0.952239C23.8769 0.837981 23.709 0.761808 23.5038 0.761808C23.2987 0.761808 23.1308 0.666594 23.1308 0.57138C23.1308 0.457122 22.795 0.380951 22.3846 0.380951C21.9742 0.380951 21.6385 0.285735 21.6385 0.190521C21.6385 0.0762635 21.1348 9.2643e-05 20.5192 9.2643e-05C19.9037 9.2643e-05 19.4 0.0762635 19.4 0.190521Z" fill="#CEEDF3" class="svg-elem-1"></path>
<path d="M19.4 28.9591C19.4 29.0543 19.1575 29.1495 18.8404 29.1495C18.5419 29.1495 18.2808 29.2257 18.2808 29.3399C18.2808 29.4351 18.1129 29.5304 17.9077 29.5304C17.7025 29.5304 17.5346 29.6065 17.5346 29.7208C17.5346 29.816 17.3854 29.9112 17.1988 29.9112C17.0123 29.9112 16.7512 30.0826 16.6019 30.2921C16.4527 30.5016 16.1915 30.6729 16.005 30.6729C15.7998 30.6729 15.6692 30.8062 15.6692 31.0157C15.6692 31.2061 15.5013 31.4727 15.2962 31.6251C15.091 31.7774 14.9231 32.025 14.9231 32.1964C14.9231 32.3678 14.7552 32.6153 14.55 32.7677C14.3262 32.92 14.1769 33.2628 14.1769 33.5675C14.1769 33.8531 14.1023 34.1007 13.9904 34.1007C13.8785 34.1007 13.8038 34.7291 13.8038 35.6241C13.8038 36.5191 13.7292 37.1475 13.6173 37.1475C13.524 37.1475 13.4308 37.4903 13.4308 37.9092C13.4308 38.3282 13.3562 38.671 13.2442 38.671C13.151 38.671 13.0577 38.8423 13.0577 39.0518C13.0577 39.2613 12.9831 39.4327 12.8712 39.4327C12.7779 39.4327 12.6846 39.566 12.6846 39.7183C12.6846 40.0992 11.099 41.7178 10.726 41.7178C10.5767 41.7178 10.4462 41.794 10.4462 41.9083C10.4462 42.0035 10.2783 42.0987 10.0731 42.0987C9.86788 42.0987 9.7 42.1749 9.7 42.2891C9.7 42.3843 9.53212 42.4795 9.32692 42.4795C9.12173 42.4795 8.95385 42.5557 8.95385 42.67C8.95385 42.7652 8.54346 42.8604 8.02115 42.8604C7.5175 42.8604 7.08846 42.9366 7.08846 43.0508C7.08846 43.1651 6.52885 43.2413 5.78269 43.2413C5.03654 43.2413 4.47692 43.3174 4.47692 43.4317C4.47692 43.5269 4.30904 43.6221 4.10385 43.6221C3.89865 43.6221 3.73077 43.6983 3.73077 43.8125C3.73077 43.9078 3.60019 44.003 3.43231 44.003C3.26442 44.003 2.89135 44.2505 2.61154 44.5743C2.33173 44.8789 1.95865 45.1455 1.79077 45.1455C1.62288 45.1455 1.49231 45.2979 1.49231 45.4883C1.49231 45.6787 1.32442 45.9453 1.11923 46.0977C0.914038 46.25 0.746154 46.5166 0.746154 46.7071C0.746154 46.8975 0.671538 47.0498 0.559615 47.0498C0.466346 47.0498 0.373077 47.2974 0.373077 47.6211C0.373077 47.9258 0.298462 48.1924 0.186538 48.1924C0.0746154 48.1924 0 48.9541 0 50.0967C0 51.2393 0.0746154 52.001 0.186538 52.001C0.298462 52.001 0.373077 52.2486 0.373077 52.5723C0.373077 52.877 0.466346 53.1436 0.559615 53.1436C0.671538 53.1436 0.746154 53.2959 0.746154 53.4863C0.746154 53.6768 0.914038 53.9434 1.11923 54.0957C1.32442 54.2481 1.49231 54.5147 1.49231 54.7051C1.49231 54.9146 1.62288 55.0479 1.82808 55.0479C2.01462 55.0479 2.27577 55.2192 2.425 55.4287C2.57423 55.6382 2.81673 55.8096 2.98462 55.8096C3.1525 55.8096 3.395 55.981 3.54423 56.1904C3.69346 56.4189 4.02923 56.5713 4.32769 56.5713C4.6075 56.5713 4.85 56.6475 4.85 56.7617C4.85 56.876 5.59615 56.9521 6.71539 56.9521C7.83462 56.9521 8.58077 56.876 8.58077 56.7617C8.58077 56.6475 8.84192 56.5713 9.14038 56.5713C9.4575 56.5713 9.7 56.4761 9.7 56.3809C9.7 56.2666 9.83058 56.1904 9.99846 56.1904C10.1663 56.1904 10.5394 55.9238 10.8192 55.6191C11.099 55.2954 11.4721 55.0479 11.64 55.0479C11.8079 55.0479 11.9385 54.8955 11.9385 54.7051C11.9385 54.5147 12.1063 54.2481 12.3115 54.0957C12.5167 53.9434 12.6846 53.6768 12.6846 53.4863C12.6846 53.2959 12.7779 53.1436 12.8712 53.1436C12.9831 53.1436 13.0577 52.9722 13.0577 52.7627C13.0577 52.5532 13.151 52.3819 13.2442 52.3819C13.3562 52.3819 13.4308 52.0391 13.4308 51.6201C13.4308 51.2012 13.524 50.8584 13.6173 50.8584C13.7292 50.8584 13.8038 50.23 13.8038 49.335C13.8038 48.44 13.8785 47.8116 13.9904 47.8116C14.1023 47.8116 14.1769 47.564 14.1769 47.2784C14.1769 46.9737 14.3262 46.6309 14.55 46.4786C14.7552 46.3262 14.9231 46.0977 14.9231 45.9644C14.9231 45.6026 16.5273 44.003 16.8817 44.003C17.031 44.003 17.1615 43.9078 17.1615 43.8125C17.1615 43.6983 17.3294 43.6221 17.5346 43.6221C17.7398 43.6221 17.9077 43.5269 17.9077 43.4317C17.9077 43.3174 18.1688 43.2413 18.4673 43.2413C18.7844 43.2413 19.0269 43.146 19.0269 43.0508C19.0269 42.9366 19.7171 42.8604 20.7058 42.8604C21.6944 42.8604 22.3846 42.9366 22.3846 43.0508C22.3846 43.146 22.6458 43.2413 22.9442 43.2413C23.2613 43.2413 23.5038 43.3174 23.5038 43.4317C23.5038 43.5269 23.6531 43.6221 23.8396 43.6221C24.0262 43.6221 24.2873 43.7935 24.4365 44.003C24.5858 44.2124 24.8469 44.3838 25.0335 44.3838C25.2387 44.3838 25.3692 44.5171 25.3692 44.7647C25.3692 45.0122 25.4998 45.1455 25.7423 45.1455C25.9848 45.1455 26.1154 45.2788 26.1154 45.4883C26.1154 45.6787 26.2833 45.9453 26.4885 46.0977C26.6937 46.25 26.8615 46.5166 26.8615 46.7071C26.8615 46.8975 26.9548 47.0498 27.0481 47.0498C27.16 47.0498 27.2346 47.2974 27.2346 47.6211C27.2346 47.9258 27.3279 48.1924 27.4212 48.1924C27.5331 48.1924 27.6077 48.7637 27.6077 49.5254C27.6077 50.2871 27.6823 50.8584 27.7942 50.8584C27.9062 50.8584 27.9808 51.2774 27.9808 51.8106C27.9808 52.3247 28.074 52.7627 28.1673 52.7627C28.2792 52.7627 28.3538 52.9151 28.3538 53.1055C28.3538 53.2959 28.5217 53.5625 28.7269 53.7149C28.9321 53.8672 29.1 54.0957 29.1 54.2481C29.1 54.5718 29.9394 55.4287 30.2565 55.4287C30.4058 55.4287 30.6296 55.6001 30.7788 55.8096C30.9281 56.019 31.1892 56.1904 31.3758 56.1904C31.5623 56.1904 31.7115 56.2666 31.7115 56.3809C31.7115 56.4761 31.9727 56.5713 32.2712 56.5713C32.5883 56.5713 32.8308 56.6475 32.8308 56.7617C32.8308 56.876 33.521 56.9521 34.5096 56.9521C35.4983 56.9521 36.1885 56.876 36.1885 56.7617C36.1885 56.6475 36.4496 56.5713 36.7481 56.5713C37.0652 56.5713 37.3077 56.4761 37.3077 56.3809C37.3077 56.2666 37.4756 56.1904 37.6808 56.1904C37.886 56.1904 38.0538 56.0952 38.0538 56C38.0538 55.8857 38.1844 55.8096 38.3337 55.8096C38.7067 55.8096 40.2923 54.1909 40.2923 53.8101C40.2923 53.6577 40.3856 53.5244 40.4788 53.5244C40.5908 53.5244 40.6654 53.353 40.6654 53.1436C40.6654 52.9341 40.7587 52.7627 40.8519 52.7627C40.9638 52.7627 41.0385 52.5913 41.0385 52.3819C41.0385 52.1724 41.1317 52.001 41.225 52.001C41.3369 52.001 41.4115 51.2393 41.4115 50.0967C41.4115 48.9541 41.4862 48.1924 41.5981 48.1924C41.71 48.1924 41.7846 48.021 41.7846 47.8116C41.7846 47.6021 41.8779 47.4307 41.9712 47.4307C42.0831 47.4307 42.1577 47.2593 42.1577 47.0498C42.1577 46.8404 42.251 46.669 42.3442 46.669C42.4562 46.669 42.5308 46.5166 42.5308 46.3262C42.5308 46.1358 42.6987 45.8692 42.9038 45.7168C43.109 45.5645 43.2769 45.2979 43.2769 45.1075C43.2769 44.917 43.4075 44.7647 43.5754 44.7647C43.7433 44.7647 44.1163 44.4981 44.3962 44.1934C44.676 43.8697 45.049 43.6221 45.2169 43.6221C45.3848 43.6221 45.5154 43.5269 45.5154 43.4317C45.5154 43.3174 45.7765 43.2413 46.075 43.2413C46.3921 43.2413 46.6346 43.146 46.6346 43.0508C46.6346 42.9366 47.3248 42.8604 48.3135 42.8604C49.3021 42.8604 49.9923 42.9366 49.9923 43.0508C49.9923 43.146 50.2535 43.2413 50.5519 43.2413C50.869 43.2413 51.1115 43.3174 51.1115 43.4317C51.1115 43.5269 51.2608 43.6221 51.4473 43.6221C51.6338 43.6221 51.895 43.7935 52.0442 44.003C52.1935 44.2124 52.4173 44.3838 52.5479 44.3838C52.9023 44.3838 54.4692 46.0215 54.4692 46.3833C54.4692 46.5357 54.5625 46.669 54.6558 46.669C54.7677 46.669 54.8423 46.8404 54.8423 47.0498C54.8423 47.2593 54.9356 47.4307 55.0288 47.4307C55.1408 47.4307 55.2154 47.7735 55.2154 48.1924C55.2154 48.6114 55.3087 48.9541 55.4019 48.9541C55.5138 48.9541 55.5885 49.5825 55.5885 50.4776C55.5885 51.3726 55.6631 52.001 55.775 52.001C55.8869 52.001 55.9615 52.2486 55.9615 52.5342C55.9615 52.8389 56.1108 53.1817 56.3346 53.334C56.5398 53.4863 56.7077 53.7149 56.7077 53.8482C56.7077 54.21 58.3119 55.8096 58.6663 55.8096C58.8156 55.8096 58.9462 55.8857 58.9462 56C58.9462 56.0952 59.114 56.1904 59.3192 56.1904C59.5244 56.1904 59.6923 56.2666 59.6923 56.3809C59.6923 56.4761 59.8602 56.5713 60.0654 56.5713C60.2706 56.5713 60.4385 56.6475 60.4385 56.7617C60.4385 56.876 61.1846 56.9521 62.3038 56.9521C63.4231 56.9521 64.1692 56.876 64.1692 56.7617C64.1692 56.6475 64.4304 56.5713 64.7288 56.5713C65.046 56.5713 65.2885 56.4761 65.2885 56.3809C65.2885 56.2666 65.4377 56.1904 65.6242 56.1904C65.8108 56.1904 66.0719 56.019 66.2212 55.8096C66.3704 55.6001 66.5942 55.4287 66.7435 55.4287C67.0606 55.4287 67.5269 54.9526 67.5269 54.6289C67.5269 54.4766 67.6948 54.2481 67.9 54.0957C68.1052 53.9434 68.2731 53.6768 68.2731 53.4863C68.2731 53.2959 68.3664 53.1436 68.4596 53.1436C68.5715 53.1436 68.6462 52.877 68.6462 52.5723C68.6462 52.2486 68.7394 52.001 68.8327 52.001C68.9446 52.001 69.0192 51.6582 69.0192 51.2393C69.0192 50.8203 69.1125 50.4776 69.2058 50.4776C69.3177 50.4776 69.3923 49.9063 69.3923 49.1446C69.3923 48.3828 69.4669 47.8116 69.5789 47.8116C69.6908 47.8116 69.7654 47.6402 69.7654 47.4307C69.7654 47.2212 69.8587 47.0498 69.9519 47.0498C70.0638 47.0498 70.1385 46.8785 70.1385 46.669C70.1385 46.4595 70.2317 46.2881 70.325 46.2881C70.4369 46.2881 70.5115 46.1548 70.5115 46.0025C70.5115 45.6597 71.7054 44.3838 72.0225 44.3838C72.1344 44.3838 72.4702 44.1172 72.75 43.8125C73.1417 43.3746 73.4402 43.2413 73.9439 43.2413C74.3169 43.2413 74.6154 43.146 74.6154 43.0508C74.6154 42.9366 75.3056 42.8604 76.2942 42.8604C77.2829 42.8604 77.9731 42.9366 77.9731 43.0508C77.9731 43.146 78.2342 43.2413 78.5327 43.2413C78.8498 43.2413 79.0923 43.3174 79.0923 43.4317C79.0923 43.5269 79.2229 43.6221 79.3908 43.6221C79.5587 43.6221 79.9317 43.8697 80.2115 44.1934C80.4914 44.4981 80.8271 44.7647 80.9577 44.7647C81.2562 44.7647 81.7038 45.2408 81.7038 45.5645C81.7038 45.7168 81.8717 45.9453 82.0769 46.0977C82.2821 46.25 82.45 46.5166 82.45 46.7071C82.45 46.8975 82.5433 47.0498 82.6365 47.0498C82.7485 47.0498 82.8231 47.2212 82.8231 47.4307C82.8231 47.6402 82.9164 47.8116 83.0096 47.8116C83.1215 47.8116 83.1962 48.44 83.1962 49.335C83.1962 50.23 83.2708 50.8584 83.3827 50.8584C83.4946 50.8584 83.5692 51.2012 83.5692 51.6201C83.5692 52.0391 83.6625 52.3819 83.7558 52.3819C83.8677 52.3819 83.9423 52.6294 83.9423 52.9151C83.9423 53.2197 84.0915 53.5625 84.3154 53.7149C84.5206 53.8672 84.6885 54.0957 84.6885 54.2481C84.6885 54.5718 85.1362 55.0479 85.4346 55.0479C85.5652 55.0479 85.901 55.2954 86.1808 55.6191C86.4606 55.9238 86.8337 56.1904 87.0015 56.1904C87.1694 56.1904 87.3 56.2666 87.3 56.3809C87.3 56.4761 87.4679 56.5713 87.6731 56.5713C87.8783 56.5713 88.0462 56.6475 88.0462 56.7617C88.0462 56.876 88.7923 56.9521 89.9115 56.9521C91.0308 56.9521 91.7769 56.876 91.7769 56.7617C91.7769 56.6475 92.0381 56.5713 92.3365 56.5713C92.6537 56.5713 92.8962 56.4761 92.8962 56.3809C92.8962 56.2666 93.064 56.1904 93.2692 56.1904C93.4744 56.1904 93.6423 56.0952 93.6423 56C93.6423 55.8857 93.7729 55.8096 93.9221 55.8096C94.2952 55.8096 95.8808 54.1909 95.8808 53.8101C95.8808 53.6577 95.974 53.5244 96.0673 53.5244C96.1792 53.5244 96.2539 53.353 96.2539 53.1436C96.2539 52.9341 96.3471 52.7627 96.4404 52.7627C96.5523 52.7627 96.6269 52.4961 96.6269 52.1914C96.6269 51.8677 96.7202 51.6201 96.8135 51.6201C96.9254 51.6201 97 50.9917 97 50.0967C97 49.2017 96.9254 48.5733 96.8135 48.5733C96.7202 48.5733 96.6269 48.3067 96.6269 48.002C96.6269 47.6783 96.5523 47.4307 96.4404 47.4307C96.3471 47.4307 96.2539 47.2593 96.2539 47.0498C96.2539 46.8404 96.1792 46.669 96.0673 46.669C95.974 46.669 95.8808 46.5357 95.8808 46.3833C95.8808 46.0025 93.9221 44.003 93.549 44.003C93.3998 44.003 93.2692 43.9078 93.2692 43.8125C93.2692 43.6983 93.0267 43.6221 92.7096 43.6221C92.4112 43.6221 92.15 43.5269 92.15 43.4317C92.15 43.3174 91.6463 43.2413 91.0308 43.2413C90.4152 43.2413 89.9115 43.1651 89.9115 43.0508C89.9115 42.9366 89.4079 42.8604 88.7923 42.8604C88.1767 42.8604 87.6731 42.7842 87.6731 42.67C87.6731 42.5557 87.5052 42.4795 87.3 42.4795C87.0948 42.4795 86.9269 42.3843 86.9269 42.2891C86.9269 42.1749 86.7964 42.0987 86.6471 42.0987C86.274 42.0987 83.9423 39.7183 83.9423 39.3375C83.9423 39.1851 83.8677 39.0518 83.7558 39.0518C83.6625 39.0518 83.5692 38.7852 83.5692 38.4805C83.5692 38.1568 83.4946 37.9092 83.3827 37.9092C83.2708 37.9092 83.1962 37.338 83.1962 36.5762C83.1962 35.8145 83.1215 35.2432 83.0096 35.2432C82.9164 35.2432 82.8231 34.8052 82.8231 34.2911C82.8231 33.7579 82.7485 33.3389 82.6365 33.3389C82.5433 33.3389 82.45 33.1676 82.45 32.9581C82.45 32.7486 82.3754 32.5772 82.2635 32.5772C82.1702 32.5772 82.0769 32.4439 82.0769 32.2916C82.0769 31.9107 80.1183 29.9112 79.7452 29.9112C79.596 29.9112 79.4654 29.816 79.4654 29.7208C79.4654 29.6065 79.2975 29.5304 79.0923 29.5304C78.8871 29.5304 78.7192 29.4351 78.7192 29.3399C78.7192 29.2257 78.3835 29.1495 77.9731 29.1495C77.5627 29.1495 77.2269 29.0543 77.2269 28.9591C77.2269 28.8448 76.8165 28.7686 76.2942 28.7686C75.7906 28.7686 75.3615 28.8448 75.3615 28.9591C75.3615 29.0543 75.0258 29.1495 74.6154 29.1495C74.205 29.1495 73.8692 29.2257 73.8692 29.3399C73.8692 29.4351 73.7014 29.5304 73.4962 29.5304C73.291 29.5304 73.1231 29.6065 73.1231 29.7208C73.1231 29.816 72.9739 29.9112 72.7873 29.9112C72.6008 29.9112 72.3396 30.0826 72.1904 30.2921C72.0412 30.5016 71.78 30.6729 71.5935 30.6729C71.4069 30.6729 71.2577 30.8062 71.2577 30.9776C71.2577 31.149 71.0152 31.5299 70.6981 31.8155C70.3996 32.1012 70.1385 32.482 70.1385 32.6534C70.1385 32.8248 70.0638 32.9581 69.9519 32.9581C69.8587 32.9581 69.7654 33.2056 69.7654 33.5294C69.7654 33.8341 69.6908 34.1007 69.5789 34.1007C69.4669 34.1007 69.3923 34.7291 69.3923 35.6241C69.3923 36.5191 69.3177 37.1475 69.2058 37.1475C69.1125 37.1475 69.0192 37.4903 69.0192 37.9092C69.0192 38.3282 68.9446 38.671 68.8327 38.671C68.7394 38.671 68.6462 38.8233 68.6462 39.0137C68.6462 39.2042 68.4783 39.4708 68.2731 39.6231C68.0679 39.7754 67.9 40.004 67.9 40.1563C67.9 40.48 66.6875 41.7178 66.3704 41.7178C66.2212 41.7178 65.9973 41.8892 65.8481 42.0987C65.6988 42.3272 65.3631 42.4795 65.0646 42.4795C64.7848 42.4795 64.5423 42.5557 64.5423 42.67C64.5423 42.7842 63.6656 42.8604 62.3038 42.8604C60.9421 42.8604 60.0654 42.7842 60.0654 42.67C60.0654 42.5557 59.8415 42.4795 59.5804 42.4795C59.2819 42.4795 58.8902 42.251 58.5731 41.9083C58.2933 41.5845 57.9575 41.337 57.8456 41.337C57.5471 41.337 56.7077 40.461 56.7077 40.1563C56.7077 40.004 56.5398 39.7754 56.3346 39.6231C56.1294 39.4708 55.9615 39.2042 55.9615 39.0137C55.9615 38.8233 55.8869 38.671 55.775 38.671C55.6817 38.671 55.5885 38.3282 55.5885 37.9092C55.5885 37.4903 55.5138 37.1475 55.4019 37.1475C55.29 37.1475 55.2154 36.4429 55.2154 35.4337C55.2154 34.4244 55.1408 33.7198 55.0288 33.7198C54.9356 33.7198 54.8423 33.5484 54.8423 33.3389C54.8423 33.1295 54.7677 32.9581 54.6558 32.9581C54.5625 32.9581 54.4692 32.8248 54.4692 32.6534C54.4692 32.482 54.2267 32.1012 53.9096 31.8155C53.6112 31.5299 53.35 31.149 53.35 30.9776C53.35 30.8062 53.2008 30.6729 53.0142 30.6729C52.8277 30.6729 52.5665 30.5016 52.4173 30.2921C52.2681 30.0826 52.0069 29.9112 51.8204 29.9112C51.6338 29.9112 51.4846 29.816 51.4846 29.7208C51.4846 29.6065 51.3167 29.5304 51.1115 29.5304C50.9063 29.5304 50.7385 29.4351 50.7385 29.3399C50.7385 29.2257 50.4027 29.1495 49.9923 29.1495C49.5819 29.1495 49.2462 29.0543 49.2462 28.9591C49.2462 28.8448 48.8358 28.7686 48.3135 28.7686C47.8098 28.7686 47.3808 28.8448 47.3808 28.9591C47.3808 29.0543 47.1383 29.1495 46.8212 29.1495C46.5227 29.1495 46.2615 29.2257 46.2615 29.3399C46.2615 29.4351 46.019 29.5304 45.7392 29.5304C45.4408 29.5304 45.105 29.6827 44.9558 29.9112C44.8065 30.1207 44.5827 30.2921 44.4335 30.2921C44.1163 30.2921 42.9038 31.5299 42.9038 31.8536C42.9038 32.0059 42.736 32.2345 42.5308 32.3868C42.3069 32.5391 42.1577 32.8819 42.1577 33.1866C42.1577 33.4722 42.0831 33.7198 41.9712 33.7198C41.8779 33.7198 41.7846 34.1387 41.7846 34.6719C41.7846 35.1861 41.71 35.6241 41.5981 35.6241C41.4862 35.6241 41.4115 36.1954 41.4115 36.9571C41.4115 37.7188 41.3369 38.2901 41.225 38.2901C41.1317 38.2901 41.0385 38.4615 41.0385 38.671C41.0385 38.8804 40.9638 39.0518 40.8519 39.0518C40.7587 39.0518 40.6654 39.2042 40.6654 39.3946C40.6654 39.585 40.4975 39.8516 40.2923 40.004C40.0871 40.1563 39.9192 40.4229 39.9192 40.6133C39.9192 40.8038 39.7887 40.9561 39.6208 40.9561C39.4529 40.9561 39.0798 41.2037 38.8 41.5274C38.5202 41.8321 38.1471 42.0987 37.9792 42.0987C37.8113 42.0987 37.6808 42.1749 37.6808 42.2891C37.6808 42.3843 37.5129 42.4795 37.3077 42.4795C37.1025 42.4795 36.9346 42.5557 36.9346 42.67C36.9346 42.7842 36.4496 42.8604 35.834 42.8604C35.1252 42.8604 34.6962 42.9556 34.6215 43.0889C34.5283 43.2793 34.491 43.2793 34.3977 43.0889C34.3231 42.9556 33.894 42.8604 33.1852 42.8604C32.5696 42.8604 32.0846 42.7842 32.0846 42.67C32.0846 42.5557 31.9167 42.4795 31.7115 42.4795C31.5063 42.4795 31.3385 42.3843 31.3385 42.2891C31.3385 42.1749 31.2079 42.0987 31.0587 42.0987C30.6856 42.0987 28.3538 39.7183 28.3538 39.3375C28.3538 39.1851 28.2792 39.0518 28.1673 39.0518C28.074 39.0518 27.9808 38.7852 27.9808 38.4805C27.9808 38.1568 27.9062 37.9092 27.7942 37.9092C27.6823 37.9092 27.6077 37.338 27.6077 36.5762C27.6077 35.8145 27.5331 35.2432 27.4212 35.2432C27.3279 35.2432 27.2346 34.8052 27.2346 34.2911C27.2346 33.7579 27.16 33.3389 27.0481 33.3389C26.9548 33.3389 26.8615 33.1676 26.8615 32.9581C26.8615 32.7486 26.7869 32.5772 26.675 32.5772C26.5817 32.5772 26.4885 32.4439 26.4885 32.2916C26.4885 31.9107 24.5298 29.9112 24.1567 29.9112C24.0075 29.9112 23.8769 29.816 23.8769 29.7208C23.8769 29.6065 23.709 29.5304 23.5038 29.5304C23.2987 29.5304 23.1308 29.4351 23.1308 29.3399C23.1308 29.2257 22.795 29.1495 22.3846 29.1495C21.9742 29.1495 21.6385 29.0543 21.6385 28.9591C21.6385 28.8448 21.1348 28.7686 20.5192 28.7686C19.9037 28.7686 19.4 28.8448 19.4 28.9591Z" fill="#2EA5D7" class="svg-elem-2"></path>
<path d="M19.4 57.7279C19.4 57.8231 19.1575 57.9183 18.8404 57.9183C18.5419 57.9183 18.2808 57.9945 18.2808 58.1087C18.2808 58.2039 18.1129 58.2992 17.9077 58.2992C17.7025 58.2992 17.5346 58.3753 17.5346 58.4896C17.5346 58.5848 17.3854 58.68 17.1988 58.68C17.0123 58.68 16.7512 58.8514 16.6019 59.0609C16.4527 59.2703 16.1915 59.4417 16.005 59.4417C15.7998 59.4417 15.6692 59.575 15.6692 59.7845C15.6692 59.9749 15.5013 60.2415 15.2962 60.3939C15.091 60.5462 14.9231 60.7938 14.9231 60.9652C14.9231 61.1366 14.7552 61.3841 14.55 61.5365C14.3262 61.6888 14.1769 62.0316 14.1769 62.3363C14.1769 62.6219 14.1023 62.8695 13.9904 62.8695C13.8785 62.8695 13.8038 63.4979 13.8038 64.3929C13.8038 65.2879 13.7292 65.9163 13.6173 65.9163C13.524 65.9163 13.4308 66.2591 13.4308 66.678C13.4308 67.097 13.3562 67.4398 13.2442 67.4398C13.151 67.4398 13.0577 67.6111 13.0577 67.8206C13.0577 68.0301 12.9831 68.2015 12.8712 68.2015C12.7779 68.2015 12.6846 68.3348 12.6846 68.4871C12.6846 68.868 11.099 70.4866 10.726 70.4866C10.5767 70.4866 10.4462 70.5628 10.4462 70.6771C10.4462 70.7723 10.2783 70.8675 10.0731 70.8675C9.86788 70.8675 9.7 70.9437 9.7 71.0579C9.7 71.1531 9.53212 71.2483 9.32692 71.2483C9.12173 71.2483 8.95385 71.3245 8.95385 71.4388C8.95385 71.534 8.54346 71.6292 8.02115 71.6292C7.5175 71.6292 7.08846 71.7054 7.08846 71.8196C7.08846 71.9339 6.52885 72.0101 5.78269 72.0101C5.03654 72.0101 4.47692 72.0862 4.47692 72.2005C4.47692 72.2957 4.30904 72.3909 4.10385 72.3909C3.89865 72.3909 3.73077 72.4671 3.73077 72.5813C3.73077 72.6766 3.60019 72.7718 3.43231 72.7718C3.26442 72.7718 2.89135 73.0193 2.61154 73.3431C2.33173 73.6477 1.95865 73.9143 1.79077 73.9143C1.62288 73.9143 1.49231 74.0667 1.49231 74.2571C1.49231 74.4475 1.32442 74.7141 1.11923 74.8665C0.914038 75.0188 0.746154 75.2854 0.746154 75.4759C0.746154 75.6663 0.671538 75.8186 0.559615 75.8186C0.466346 75.8186 0.373077 76.0662 0.373077 76.3899C0.373077 76.6946 0.298462 76.9612 0.186538 76.9612C0.0746154 76.9612 0 77.7229 0 78.8655C0 80.0081 0.0746154 80.7698 0.186538 80.7698C0.298462 80.7698 0.373077 81.0173 0.373077 81.3411C0.373077 81.6458 0.466346 81.9124 0.559615 81.9124C0.671538 81.9124 0.746154 82.0647 0.746154 82.2551C0.746154 82.4456 0.914038 82.7122 1.11923 82.8645C1.32442 83.0169 1.49231 83.2835 1.49231 83.4739C1.49231 83.6834 1.62288 83.8167 1.82808 83.8167C2.01462 83.8167 2.27577 83.988 2.425 84.1975C2.57423 84.407 2.81673 84.5784 2.98462 84.5784C3.1525 84.5784 3.395 84.7498 3.54423 84.9592C3.69346 85.1877 4.02923 85.3401 4.32769 85.3401C4.6075 85.3401 4.85 85.4163 4.85 85.5305C4.85 85.6448 5.59615 85.7209 6.71538 85.7209C7.83462 85.7209 8.58077 85.6448 8.58077 85.5305C8.58077 85.4163 8.84192 85.3401 9.14038 85.3401C9.4575 85.3401 9.7 85.2449 9.7 85.1497C9.7 85.0354 9.83058 84.9592 9.99846 84.9592C10.1663 84.9592 10.5394 84.6926 10.8192 84.3879C11.099 84.0642 11.4721 83.8167 11.64 83.8167C11.8079 83.8167 11.9385 83.6643 11.9385 83.4739C11.9385 83.2835 12.1063 83.0169 12.3115 82.8645C12.5167 82.7122 12.6846 82.4456 12.6846 82.2551C12.6846 82.0647 12.7779 81.9124 12.8712 81.9124C12.9831 81.9124 13.0577 81.741 13.0577 81.5315C13.0577 81.322 13.151 81.1506 13.2442 81.1506C13.3562 81.1506 13.4308 80.8079 13.4308 80.3889C13.4308 79.97 13.524 79.6272 13.6173 79.6272C13.7292 79.6272 13.8038 78.9988 13.8038 78.1038C13.8038 77.2088 13.8785 76.5804 13.9904 76.5804C14.1023 76.5804 14.1769 76.3328 14.1769 76.0472C14.1769 75.7425 14.3262 75.3997 14.55 75.2473C14.7552 75.095 14.9231 74.8665 14.9231 74.7332C14.9231 74.3714 16.5273 72.7718 16.8817 72.7718C17.031 72.7718 17.1615 72.6766 17.1615 72.5813C17.1615 72.4671 17.3294 72.3909 17.5346 72.3909C17.7398 72.3909 17.9077 72.2957 17.9077 72.2005C17.9077 72.0862 18.1688 72.0101 18.4673 72.0101C18.7844 72.0101 19.0269 71.9148 19.0269 71.8196C19.0269 71.7054 19.7171 71.6292 20.7058 71.6292C21.6944 71.6292 22.3846 71.7054 22.3846 71.8196C22.3846 71.9148 22.6458 72.0101 22.9442 72.0101C23.2613 72.0101 23.5038 72.0862 23.5038 72.2005C23.5038 72.2957 23.6531 72.3909 23.8396 72.3909C24.0262 72.3909 24.2873 72.5623 24.4365 72.7718C24.5858 72.9812 24.8469 73.1526 25.0335 73.1526C25.2387 73.1526 25.3692 73.2859 25.3692 73.5335C25.3692 73.781 25.4998 73.9143 25.7423 73.9143C25.9848 73.9143 26.1154 74.0476 26.1154 74.2571C26.1154 74.4475 26.2833 74.7141 26.4885 74.8665C26.6937 75.0188 26.8615 75.2854 26.8615 75.4759C26.8615 75.6663 26.9548 75.8186 27.0481 75.8186C27.16 75.8186 27.2346 76.0662 27.2346 76.3899C27.2346 76.6946 27.3279 76.9612 27.4212 76.9612C27.5331 76.9612 27.6077 77.5325 27.6077 78.2942C27.6077 79.0559 27.6823 79.6272 27.7942 79.6272C27.9062 79.6272 27.9808 80.0462 27.9808 80.5794C27.9808 81.0935 28.074 81.5315 28.1673 81.5315C28.2792 81.5315 28.3538 81.6839 28.3538 81.8743C28.3538 82.0647 28.5217 82.3313 28.7269 82.4837C28.9321 82.636 29.1 82.8645 29.1 83.0169C29.1 83.3406 29.9394 84.1975 30.2565 84.1975C30.4058 84.1975 30.6296 84.3689 30.7788 84.5784C30.9281 84.7878 31.1892 84.9592 31.3758 84.9592C31.5623 84.9592 31.7115 85.0354 31.7115 85.1497C31.7115 85.2449 31.9727 85.3401 32.2711 85.3401C32.5883 85.3401 32.8308 85.4163 32.8308 85.5305C32.8308 85.6448 33.521 85.7209 34.5096 85.7209C35.4983 85.7209 36.1885 85.6448 36.1885 85.5305C36.1885 85.4163 36.4496 85.3401 36.7481 85.3401C37.0652 85.3401 37.3077 85.2449 37.3077 85.1497C37.3077 85.0354 37.4756 84.9592 37.6808 84.9592C37.886 84.9592 38.0538 84.864 38.0538 84.7688C38.0538 84.6545 38.1844 84.5784 38.3336 84.5784C38.7067 84.5784 40.2923 82.9597 40.2923 82.5789C40.2923 82.4265 40.3856 82.2932 40.4788 82.2932C40.5908 82.2932 40.6654 82.1218 40.6654 81.9124C40.6654 81.7029 40.7586 81.5315 40.8519 81.5315C40.9638 81.5315 41.0385 81.3601 41.0385 81.1506C41.0385 80.9412 41.1317 80.7698 41.225 80.7698C41.3369 80.7698 41.4115 80.0081 41.4115 78.8655C41.4115 77.7229 41.4861 76.9612 41.5981 76.9612C41.71 76.9612 41.7846 76.7898 41.7846 76.5804C41.7846 76.3709 41.8779 76.1995 41.9712 76.1995C42.0831 76.1995 42.1577 76.0281 42.1577 75.8186C42.1577 75.6092 42.251 75.4378 42.3442 75.4378C42.4562 75.4378 42.5308 75.2854 42.5308 75.095C42.5308 74.9046 42.6987 74.638 42.9038 74.4856C43.109 74.3333 43.2769 74.0667 43.2769 73.8763C43.2769 73.6858 43.4075 73.5335 43.5754 73.5335C43.7433 73.5335 44.1163 73.2669 44.3962 72.9622C44.676 72.6385 45.049 72.3909 45.2169 72.3909C45.3848 72.3909 45.5154 72.2957 45.5154 72.2005C45.5154 72.0862 45.7765 72.0101 46.075 72.0101C46.3921 72.0101 46.6346 71.9148 46.6346 71.8196C46.6346 71.7054 47.3248 71.6292 48.3135 71.6292C49.3021 71.6292 49.9923 71.7054 49.9923 71.8196C49.9923 71.9148 50.2535 72.0101 50.5519 72.0101C50.869 72.0101 51.1115 72.0862 51.1115 72.2005C51.1115 72.2957 51.2608 72.3909 51.4473 72.3909C51.6338 72.3909 51.895 72.5623 52.0442 72.7718C52.1935 72.9812 52.4173 73.1526 52.5479 73.1526C52.9023 73.1526 54.4692 74.7903 54.4692 75.1521C54.4692 75.3045 54.5625 75.4378 54.6558 75.4378C54.7677 75.4378 54.8423 75.6092 54.8423 75.8186C54.8423 76.0281 54.9356 76.1995 55.0288 76.1995C55.1408 76.1995 55.2154 76.5423 55.2154 76.9612C55.2154 77.3802 55.3087 77.7229 55.4019 77.7229C55.5138 77.7229 55.5885 78.3513 55.5885 79.2464C55.5885 80.1414 55.6631 80.7698 55.775 80.7698C55.8869 80.7698 55.9615 81.0173 55.9615 81.303C55.9615 81.6077 56.1108 81.9505 56.3346 82.1028C56.5398 82.2551 56.7077 82.4837 56.7077 82.617C56.7077 82.9788 58.3119 84.5784 58.6663 84.5784C58.8156 84.5784 58.9462 84.6545 58.9462 84.7688C58.9462 84.864 59.114 84.9592 59.3192 84.9592C59.5244 84.9592 59.6923 85.0354 59.6923 85.1497C59.6923 85.2449 59.8602 85.3401 60.0654 85.3401C60.2706 85.3401 60.4385 85.4163 60.4385 85.5305C60.4385 85.6448 61.1846 85.7209 62.3038 85.7209C63.4231 85.7209 64.1692 85.6448 64.1692 85.5305C64.1692 85.4163 64.4304 85.3401 64.7288 85.3401C65.046 85.3401 65.2885 85.2449 65.2885 85.1497C65.2885 85.0354 65.4377 84.9592 65.6242 84.9592C65.8108 84.9592 66.0719 84.7878 66.2211 84.5784C66.3704 84.3689 66.5942 84.1975 66.7435 84.1975C67.0606 84.1975 67.5269 83.7214 67.5269 83.3977C67.5269 83.2454 67.6948 83.0169 67.9 82.8645C68.1052 82.7122 68.2731 82.4456 68.2731 82.2551C68.2731 82.0647 68.3663 81.9124 68.4596 81.9124C68.5715 81.9124 68.6461 81.6458 68.6461 81.3411C68.6461 81.0173 68.7394 80.7698 68.8327 80.7698C68.9446 80.7698 69.0192 80.427 69.0192 80.0081C69.0192 79.5891 69.1125 79.2464 69.2058 79.2464C69.3177 79.2464 69.3923 78.6751 69.3923 77.9134C69.3923 77.1516 69.4669 76.5804 69.5788 76.5804C69.6908 76.5804 69.7654 76.409 69.7654 76.1995C69.7654 75.99 69.8587 75.8186 69.9519 75.8186C70.0638 75.8186 70.1385 75.6472 70.1385 75.4378C70.1385 75.2283 70.2317 75.0569 70.325 75.0569C70.4369 75.0569 70.5115 74.9236 70.5115 74.7713C70.5115 74.4285 71.7054 73.1526 72.0225 73.1526C72.1344 73.1526 72.4702 72.886 72.75 72.5813C73.1417 72.1434 73.4402 72.0101 73.9438 72.0101C74.3169 72.0101 74.6154 71.9148 74.6154 71.8196C74.6154 71.7054 75.3056 71.6292 76.2942 71.6292C77.2829 71.6292 77.9731 71.7054 77.9731 71.8196C77.9731 71.9148 78.2342 72.0101 78.5327 72.0101C78.8498 72.0101 79.0923 72.0862 79.0923 72.2005C79.0923 72.2957 79.2229 72.3909 79.3908 72.3909C79.5586 72.3909 79.9317 72.6385 80.2115 72.9622C80.4913 73.2669 80.8271 73.5335 80.9577 73.5335C81.2561 73.5335 81.7038 74.0096 81.7038 74.3333C81.7038 74.4856 81.8717 74.7141 82.0769 74.8665C82.2821 75.0188 82.45 75.2854 82.45 75.4759C82.45 75.6663 82.5433 75.8186 82.6365 75.8186C82.7485 75.8186 82.8231 75.99 82.8231 76.1995C82.8231 76.409 82.9163 76.5804 83.0096 76.5804C83.1215 76.5804 83.1961 77.2088 83.1961 78.1038C83.1961 78.9988 83.2708 79.6272 83.3827 79.6272C83.4946 79.6272 83.5692 79.97 83.5692 80.3889C83.5692 80.8079 83.6625 81.1506 83.7558 81.1506C83.8677 81.1506 83.9423 81.3982 83.9423 81.6839C83.9423 81.9885 84.0915 82.3313 84.3154 82.4837C84.5206 82.636 84.6885 82.8645 84.6885 83.0169C84.6885 83.3406 85.1361 83.8167 85.4346 83.8167C85.5652 83.8167 85.901 84.0642 86.1808 84.3879C86.4606 84.6926 86.8337 84.9592 87.0015 84.9592C87.1694 84.9592 87.3 85.0354 87.3 85.1497C87.3 85.2449 87.4679 85.3401 87.6731 85.3401C87.8783 85.3401 88.0462 85.4163 88.0462 85.5305C88.0462 85.6448 88.7923 85.7209 89.9115 85.7209C91.0308 85.7209 91.7769 85.6448 91.7769 85.5305C91.7769 85.4163 92.0381 85.3401 92.3365 85.3401C92.6537 85.3401 92.8961 85.2449 92.8961 85.1497C92.8961 85.0354 93.064 84.9592 93.2692 84.9592C93.4744 84.9592 93.6423 84.864 93.6423 84.7688C93.6423 84.6545 93.7729 84.5784 93.9221 84.5784C94.2952 84.5784 95.8808 82.9597 95.8808 82.5789C95.8808 82.4265 95.974 82.2932 96.0673 82.2932C96.1792 82.2932 96.2538 82.1218 96.2538 81.9124C96.2538 81.7029 96.3471 81.5315 96.4404 81.5315C96.5523 81.5315 96.6269 81.2649 96.6269 80.9602C96.6269 80.6365 96.7202 80.3889 96.8135 80.3889C96.9254 80.3889 97 79.7605 97 78.8655C97 77.9705 96.9254 77.3421 96.8135 77.3421C96.7202 77.3421 96.6269 77.0755 96.6269 76.7708C96.6269 76.4471 96.5523 76.1995 96.4404 76.1995C96.3471 76.1995 96.2538 76.0281 96.2538 75.8186C96.2538 75.6092 96.1792 75.4378 96.0673 75.4378C95.974 75.4378 95.8808 75.3045 95.8808 75.1521C95.8808 74.7713 93.9221 72.7718 93.549 72.7718C93.3998 72.7718 93.2692 72.6766 93.2692 72.5813C93.2692 72.4671 93.0267 72.3909 92.7096 72.3909C92.4111 72.3909 92.15 72.2957 92.15 72.2005C92.15 72.0862 91.6463 72.0101 91.0308 72.0101C90.4152 72.0101 89.9115 71.9339 89.9115 71.8196C89.9115 71.7054 89.4079 71.6292 88.7923 71.6292C88.1767 71.6292 87.6731 71.553 87.6731 71.4388C87.6731 71.3245 87.5052 71.2483 87.3 71.2483C87.0948 71.2483 86.9269 71.1531 86.9269 71.0579C86.9269 70.9437 86.7963 70.8675 86.6471 70.8675C86.274 70.8675 83.9423 68.4871 83.9423 68.1063C83.9423 67.9539 83.8677 67.8206 83.7558 67.8206C83.6625 67.8206 83.5692 67.554 83.5692 67.2493C83.5692 66.9256 83.4946 66.678 83.3827 66.678C83.2708 66.678 83.1961 66.1068 83.1961 65.345C83.1961 64.5833 83.1215 64.012 83.0096 64.012C82.9163 64.012 82.8231 63.574 82.8231 63.0599C82.8231 62.5267 82.7485 62.1077 82.6365 62.1077C82.5433 62.1077 82.45 61.9364 82.45 61.7269C82.45 61.5174 82.3754 61.346 82.2635 61.346C82.1702 61.346 82.0769 61.2127 82.0769 61.0604C82.0769 60.6795 80.1183 58.68 79.7452 58.68C79.596 58.68 79.4654 58.5848 79.4654 58.4896C79.4654 58.3753 79.2975 58.2992 79.0923 58.2992C78.8871 58.2992 78.7192 58.2039 78.7192 58.1087C78.7192 57.9945 78.3835 57.9183 77.9731 57.9183C77.5627 57.9183 77.2269 57.8231 77.2269 57.7279C77.2269 57.6136 76.8165 57.5374 76.2942 57.5374C75.7906 57.5374 75.3615 57.6136 75.3615 57.7279C75.3615 57.8231 75.0258 57.9183 74.6154 57.9183C74.205 57.9183 73.8692 57.9945 73.8692 58.1087C73.8692 58.2039 73.7013 58.2992 73.4962 58.2992C73.291 58.2992 73.1231 58.3753 73.1231 58.4896C73.1231 58.5848 72.9738 58.68 72.7873 58.68C72.6008 58.68 72.3396 58.8514 72.1904 59.0609C72.0411 59.2703 71.78 59.4417 71.5935 59.4417C71.4069 59.4417 71.2577 59.575 71.2577 59.7464C71.2577 59.9178 71.0152 60.2987 70.6981 60.5843C70.3996 60.87 70.1385 61.2508 70.1385 61.4222C70.1385 61.5936 70.0638 61.7269 69.9519 61.7269C69.8587 61.7269 69.7654 61.9744 69.7654 62.2982C69.7654 62.6029 69.6908 62.8695 69.5788 62.8695C69.4669 62.8695 69.3923 63.4979 69.3923 64.3929C69.3923 65.2879 69.3177 65.9163 69.2058 65.9163C69.1125 65.9163 69.0192 66.2591 69.0192 66.678C69.0192 67.097 68.9446 67.4398 68.8327 67.4398C68.7394 67.4398 68.6461 67.5921 68.6461 67.7825C68.6461 67.973 68.4783 68.2396 68.2731 68.3919C68.0679 68.5442 67.9 68.7728 67.9 68.9251C67.9 69.2488 66.6875 70.4866 66.3704 70.4866C66.2212 70.4866 65.9973 70.658 65.8481 70.8675C65.6988 71.096 65.3631 71.2483 65.0646 71.2483C64.7848 71.2483 64.5423 71.3245 64.5423 71.4388C64.5423 71.553 63.6656 71.6292 62.3038 71.6292C60.9421 71.6292 60.0654 71.553 60.0654 71.4388C60.0654 71.3245 59.8415 71.2483 59.5804 71.2483C59.2819 71.2483 58.8902 71.0198 58.5731 70.6771C58.2933 70.3533 57.9575 70.1058 57.8456 70.1058C57.5471 70.1058 56.7077 69.2298 56.7077 68.9251C56.7077 68.7728 56.5398 68.5442 56.3346 68.3919C56.1294 68.2396 55.9615 67.973 55.9615 67.7825C55.9615 67.5921 55.8869 67.4398 55.775 67.4398C55.6817 67.4398 55.5885 67.097 55.5885 66.678C55.5885 66.2591 55.5138 65.9163 55.4019 65.9163C55.29 65.9163 55.2154 65.2117 55.2154 64.2025C55.2154 63.1932 55.1408 62.4886 55.0288 62.4886C54.9356 62.4886 54.8423 62.3172 54.8423 62.1077C54.8423 61.8983 54.7677 61.7269 54.6558 61.7269C54.5625 61.7269 54.4692 61.5936 54.4692 61.4222C54.4692 61.2508 54.2267 60.87 53.9096 60.5843C53.6112 60.2987 53.35 59.9178 53.35 59.7464C53.35 59.575 53.2008 59.4417 53.0142 59.4417C52.8277 59.4417 52.5665 59.2703 52.4173 59.0609C52.2681 58.8514 52.0069 58.68 51.8204 58.68C51.6338 58.68 51.4846 58.5848 51.4846 58.4896C51.4846 58.3753 51.3167 58.2992 51.1115 58.2992C50.9063 58.2992 50.7385 58.2039 50.7385 58.1087C50.7385 57.9945 50.4027 57.9183 49.9923 57.9183C49.5819 57.9183 49.2462 57.8231 49.2462 57.7279C49.2462 57.6136 48.8358 57.5374 48.3135 57.5374C47.8098 57.5374 47.3808 57.6136 47.3808 57.7279C47.3808 57.8231 47.1383 57.9183 46.8212 57.9183C46.5227 57.9183 46.2615 57.9945 46.2615 58.1087C46.2615 58.2039 46.019 58.2992 45.7392 58.2992C45.4408 58.2992 45.105 58.4515 44.9558 58.68C44.8065 58.8895 44.5827 59.0609 44.4335 59.0609C44.1163 59.0609 42.9038 60.2987 42.9038 60.6224C42.9038 60.7747 42.736 61.0033 42.5308 61.1556C42.3069 61.3079 42.1577 61.6507 42.1577 61.9554C42.1577 62.241 42.0831 62.4886 41.9712 62.4886C41.8779 62.4886 41.7846 62.9075 41.7846 63.4407C41.7846 63.9549 41.71 64.3929 41.5981 64.3929C41.4861 64.3929 41.4115 64.9642 41.4115 65.7259C41.4115 66.4876 41.3369 67.0589 41.225 67.0589C41.1317 67.0589 41.0385 67.2303 41.0385 67.4398C41.0385 67.6492 40.9638 67.8206 40.8519 67.8206C40.7586 67.8206 40.6654 67.973 40.6654 68.1634C40.6654 68.3538 40.4975 68.6204 40.2923 68.7728C40.0871 68.9251 39.9192 69.1917 39.9192 69.3821C39.9192 69.5726 39.7887 69.7249 39.6208 69.7249C39.4529 69.7249 39.0798 69.9725 38.8 70.2962C38.5202 70.6009 38.1471 70.8675 37.9792 70.8675C37.8113 70.8675 37.6808 70.9437 37.6808 71.0579C37.6808 71.1531 37.5129 71.2483 37.3077 71.2483C37.1025 71.2483 36.9346 71.3245 36.9346 71.4388C36.9346 71.553 36.4496 71.6292 35.834 71.6292C35.1252 71.6292 34.6961 71.7244 34.6215 71.8577C34.5283 72.0481 34.491 72.0481 34.3977 71.8577C34.3231 71.7244 33.894 71.6292 33.1852 71.6292C32.5696 71.6292 32.0846 71.553 32.0846 71.4388C32.0846 71.3245 31.9167 71.2483 31.7115 71.2483C31.5063 71.2483 31.3385 71.1531 31.3385 71.0579C31.3385 70.9437 31.2079 70.8675 31.0587 70.8675C30.6856 70.8675 28.3538 68.4871 28.3538 68.1063C28.3538 67.9539 28.2792 67.8206 28.1673 67.8206C28.074 67.8206 27.9808 67.554 27.9808 67.2493C27.9808 66.9256 27.9062 66.678 27.7942 66.678C27.6823 66.678 27.6077 66.1068 27.6077 65.345C27.6077 64.5833 27.5331 64.012 27.4212 64.012C27.3279 64.012 27.2346 63.574 27.2346 63.0599C27.2346 62.5267 27.16 62.1077 27.0481 62.1077C26.9548 62.1077 26.8615 61.9364 26.8615 61.7269C26.8615 61.5174 26.7869 61.346 26.675 61.346C26.5817 61.346 26.4885 61.2127 26.4885 61.0604C26.4885 60.6795 24.5298 58.68 24.1567 58.68C24.0075 58.68 23.8769 58.5848 23.8769 58.4896C23.8769 58.3753 23.709 58.2992 23.5038 58.2992C23.2987 58.2992 23.1308 58.2039 23.1308 58.1087C23.1308 57.9945 22.795 57.9183 22.3846 57.9183C21.9742 57.9183 21.6385 57.8231 21.6385 57.7279C21.6385 57.6136 21.1348 57.5374 20.5192 57.5374C19.9037 57.5374 19.4 57.6136 19.4 57.7279Z" fill="#095BA7" class="svg-elem-3"></path>
</svg>