<?xml version="1.0" encoding="UTF-8"?>
<svg width="73px" height="73px" viewBox="0 0 73 73" version="1.1" xmlns="http://www.w3.org/2000/svg" xmlns:xlink="http://www.w3.org/1999/xlink">
    <title>0365FDFD-3F1D-42E0-9681-B19E6E0D8157</title>
    <g id="Homepage-CI" stroke="none" stroke-width="1" fill="none" fill-rule="evenodd">
        <g id="CI-HmPg-1280D_v2" transform="translate(-654.000000, -3327.000000)">
            <g id="Industries" transform="translate(101.000000, 3020.000000)">
                <g id="ConsumerApp-Icon-bluecircle" transform="translate(553.000000, 307.000000)">
                    <g id="Savings-Icon-bluecircle" fill="#0160A8">
                        <circle id="Oval" cx="36.5" cy="36.5" r="36.5"></circle>
                    </g>
                    <g id="ConsumerApp-icon" transform="translate(15.000000, 18.000000)" fill="#FFFBFB">
                        <path d="M43.7243417,22.4291786 C43.3901371,21.7009365 42.7971719,21.14886 42.0546631,20.8746159 C41.3121543,20.6003718 40.508988,20.6365959 39.7933634,20.9762827 L31.0230559,25.1338579 C31.0401946,25.0029726 31.0521245,24.8705494 31.0521245,24.7350506 C31.0521245,23.0767707 29.7255558,21.7277629 28.0946913,21.7277629 L20.7825172,21.7277629 C16.1036532,16.4335697 8.14877801,16.9868422 7.49784362,17.0422037 C6.25680042,17.0486967 5.05238697,17.4569018 3.88729172,17.8517792 C2.76537925,18.2321327 1.70563656,18.5912986 0.672105997,18.5912986 C0.300935616,18.5912986 0,18.8973243 0,19.274773 C0,19.6522218 0.300935616,19.9582475 0.672105997,19.9582475 C1.92373487,19.9582475 3.13806187,19.546625 4.31239858,19.1485011 C5.43447907,18.7683185 6.49422176,18.4089817 7.52775233,18.4089817 C7.54808352,18.4089817 7.56841472,18.4081274 7.58857789,18.4062479 C7.66889453,18.3989005 15.6708172,17.7231151 19.9657407,22.8541288 C20.0932728,23.0067145 20.2804542,23.0947119 20.4773812,23.0947119 L28.0946913,23.0947119 C28.9842232,23.0947119 29.7079131,23.8304721 29.7079131,24.7350506 C29.7079131,25.2999422 29.4256287,25.7988786 28.9971613,26.0941396 L28.5414736,26.3101175 C28.3994913,26.3518095 28.2499477,26.3755602 28.0946913,26.3755602 L15.1452305,26.3755602 C14.7740601,26.3755602 14.4731248,26.6815859 14.4731248,27.0590347 C14.4731248,27.4364834 14.7740601,27.7425091 15.1452305,27.7425091 L28.0946913,27.7425091 C28.2037405,27.7425091 28.3111094,27.7355035 28.416966,27.7237136 C28.5549157,27.7536156 28.7024429,27.7421674 28.8400566,27.6768956 L29.0396719,27.5822344 C29.24332,27.5121782 29.4362143,27.4197383 29.6173468,27.3085029 L40.3617968,22.2150802 C40.7524583,22.0295169 41.1908392,22.009867 41.5956149,22.159377 C42.0005586,22.309058 42.3240095,22.6101285 42.505646,23.0058602 C42.880681,23.82808 42.5315221,24.8071572 41.7206265,25.1914407 L20.4360467,35.5787148 C18.2545596,34.8121982 7.46793492,31.0599234 5.25351461,31.0233575 C2.98902243,30.9857664 0.695461671,30.9838868 0.67244205,30.9838868 L0.672105997,30.9838868 C0.301103642,30.9838868 0,31.2897417 0,31.6670196 C0,32.0444683 0.300431536,32.3506649 0.671601918,32.3508358 C0.694453512,32.3508358 2.97810071,32.3527153 5.23167117,32.3901356 C7.01762409,32.4196958 16.6833444,35.7005442 20.2570985,36.962238 C20.3286778,36.9875266 20.4031135,37 20.4773812,37 C20.5771889,37 20.6766605,36.9774453 20.7682349,36.9328486 L42.2952769,26.4271625 C43.7698769,25.7283099 44.4112338,23.9355563 43.7243417,22.4291786" id="Fill-1"></path>
                        <path d="M21.0008392,1.6493659 C21.4943188,2.17839502 22.310852,3.0990343 23.1233555,4.21547867 C24.7812722,6.49389167 25.6572446,8.52640597 25.6567411,10.0931851 C25.656573,11.3059243 25.1740074,12.447077 24.2987066,13.3066224 C23.4187044,14.1705679 22.2485584,14.6461187 21.003022,14.6461187 L21.0008392,14.6461187 L21.0006713,14.6461187 L20.9999997,14.6461187 L20.9998318,14.6461187 C19.7457321,14.6435802 18.5819666,14.1710756 17.7017965,13.3067916 C16.8263278,12.4472462 16.3439301,11.3059243 16.3432584,10.0931851 C16.3425868,6.94541108 19.734986,3.00849349 21.0008392,1.6493659 M20.997649,16 L21.003022,16 C22.6004921,16 24.1037662,15.3880457 25.2359652,14.2765091 C26.3730335,13.1600647 26.9996635,11.6745185 27,10.0935236 C27.0015105,5.72201009 21.8143501,0.532921528 21.4781997,0.201389844 C21.3542841,0.0749711771 21.1831865,0 21,0 C20.8119435,0 20.6368162,0.079032821 20.5123969,0.211374718 C20.0946435,0.624985456 14.9991605,5.76076494 15,10.0936928 C15.0008395,11.6746877 15.6274696,13.160234 16.7645379,14.2765091 C17.8965689,15.3880457 19.3996751,16 20.997649,16" id="Fill-3"></path>
                        <path d="M21.2592936,13 C21.6683487,13 22,12.6683487 22,12.2592936 C22,11.8502384 21.6683487,11.5185871 21.2592936,11.5185871 C20.2789686,11.5185871 19.4814129,10.7210314 19.4814129,9.74070645 C19.4814129,9.33165131 19.1497616,9 18.7407064,9 C18.3316513,9 18,9.33165131 18,9.74070645 C18,11.5378455 19.4621545,13 21.2592936,13" id="Fill-5"></path>
                    </g>
                </g>
            </g>
        </g>
    </g>
</svg>