<?xml version="1.0" encoding="UTF-8"?>
<svg width="73px" height="73px" viewBox="0 0 73 73" version="1.1" xmlns="http://www.w3.org/2000/svg" xmlns:xlink="http://www.w3.org/1999/xlink">
    <title>8A9E5E26-B2B9-4DCF-B8E8-5CCA62903D5F</title>
    <defs>
        <polygon id="path-1" points="0 42 39 42 39 0 0 0"></polygon>
    </defs>
    <g id="Homepage-CI" stroke="none" stroke-width="1" fill="none" fill-rule="evenodd">
        <g id="CI-HmPg-1280D_v2" transform="translate(-101.000000, -3327.000000)">
            <g id="Industries" transform="translate(101.000000, 3020.000000)">
                <g id="Education-Icon-bluecircle" transform="translate(0.000000, 307.000000)">
                    <g id="Savings-Icon-bluecircle" fill="#0160A8">
                        <circle id="Oval" cx="36.5" cy="36.5" r="36.5"></circle>
                    </g>
                    <g id="Institutional-icon" transform="translate(17.000000, 12.000000)">
                        <path d="M38.2402469,42 L0.759959617,42 C0.340576729,42 0.000320637429,41.6506957 0.000320637429,41.2282684 C0.000320637429,40.8058958 0.340576729,40.4565915 0.759959617,40.4565915 L38.2402469,40.4565915 C38.6596298,40.4565915 38.9999946,40.8058958 38.9999946,41.2282684 C38.9999946,41.6506957 38.6596298,42 38.2402469,42" id="Fill-1" fill="#FFFFFF"></path>
                        <mask id="mask-2" fill="white">
                            <use xlink:href="#path-1"></use>
                        </mask>
                        <g id="Clip-4"></g>
                        <polygon id="Fill-3" fill="#FFFFFF" mask="url(#mask-2)" points="32.1855851 33.2540365 34.399179 33.2540365 34.399179 30.6817072 32.1855851 30.6817072"></polygon>
                        <polygon id="Fill-5" fill="#FFFFFF" mask="url(#mask-2)" points="28.6097713 33.2540365 30.6531012 33.2540365 30.6531012 30.6817072 28.6097713 30.6817072"></polygon>
                        <polygon id="Fill-6" fill="#FFFFFF" mask="url(#mask-2)" points="32.1855851 28.7952886 34.399179 28.7952886 34.399179 26.2229593 32.1855851 26.2229593"></polygon>
                        <polygon id="Fill-7" fill="#FFFFFF" mask="url(#mask-2)" points="28.6097713 28.7952886 30.6531012 28.7952886 30.6531012 26.2229593 28.6097713 26.2229593"></polygon>
                        <polygon id="Fill-8" fill="#FFFFFF" mask="url(#mask-2)" points="32.1855851 37.5412521 34.399179 37.5412521 34.399179 34.7973903 32.1855851 34.7973903"></polygon>
                        <polygon id="Fill-9" fill="#FFFFFF" mask="url(#mask-2)" points="28.6097713 37.5412521 30.6531012 37.5412521 30.6531012 34.7973903 28.6097713 34.7973903"></polygon>
                        <polygon id="Fill-10" fill="#FFFFFF" mask="url(#mask-2)" points="8.51716267 33.2540365 10.5604926 33.2540365 10.5604926 30.6817072 8.51716267 30.6817072"></polygon>
                        <polygon id="Fill-11" fill="#FFFFFF" mask="url(#mask-2)" points="4.77113929 33.2540365 6.98473314 33.2540365 6.98473314 30.6817072 4.77113929 30.6817072"></polygon>
                        <polygon id="Fill-12" fill="#FFFFFF" mask="url(#mask-2)" points="8.51716267 28.7952886 10.5604926 28.7952886 10.5604926 26.2229593 8.51716267 26.2229593"></polygon>
                        <polygon id="Fill-13" fill="#FFFFFF" mask="url(#mask-2)" points="4.77113929 28.7952886 6.98473314 28.7952886 6.98473314 26.2229593 4.77113929 26.2229593"></polygon>
                        <polygon id="Fill-14" fill="#FFFFFF" mask="url(#mask-2)" points="8.51716267 37.5412521 10.5604926 37.5412521 10.5604926 34.7973903 8.51716267 34.7973903"></polygon>
                        <polygon id="Fill-15" fill="#FFFFFF" mask="url(#mask-2)" points="4.77113929 37.5412521 6.98473314 37.5412521 6.98473314 34.7973903 4.77113929 34.7973903"></polygon>
                        <path d="M38.2405784,19.0921754 L26.5954074,19.0921754 L20.0142427,14.9429959 L20.0142427,13.2614966 L25.1225404,13.2614966 L25.1225404,8.28831565 L18.4817588,8.28831565 L18.4817588,14.9429959 L11.7643503,19.0921754 L0.759421599,19.0921754 C0.340527819,19.0921754 0,19.4420271 0,19.863907 C0,20.2857323 0.340527819,20.6355839 0.759421599,20.6355839 L12.1560171,20.6355839 C12.3199769,20.6498145 12.6605047,20.3925706 13.0579321,20.1353267 L19.2735159,16.2762854 L26.0334767,20.5412794 C26.1458629,20.6047147 26.2735744,20.6355839 26.4012859,20.6355839 L38.2405784,20.6355839 C38.6594722,20.6355839 39,20.2857323 39,19.863907 C39,19.4420271 38.6594722,19.0921754 38.2405784,19.0921754 L38.2405784,19.0921754 Z M20.0142427,11.8896205 L23.5900565,11.8896205 L23.5900565,9.83172419 L20.0142427,9.83172419 L20.0142427,11.8896205 Z" id="Fill-16" fill="#FFFFFF" mask="url(#mask-2)"></path>
                        <path d="M22.9055282,39.2373047 C22.4861453,39.2373047 22.1392591,38.8946778 22.1392591,38.4723052 L22.1392591,26.7399593 C22.1392591,26.3174225 22.4861453,25.9747956 22.9055282,25.9747956 C23.3249111,25.9747956 23.6717429,26.3174225 23.6717429,26.7399593 L23.6717429,38.4723052 C23.6717429,38.8946778 23.3249111,39.2373047 22.9055282,39.2373047" id="Fill-17" fill="#FFFFFF" mask="url(#mask-2)"></path>
                        <path d="M16.2647629,39.2373047 C15.84538,39.2373047 15.4985481,38.8946778 15.4985481,38.4723052 L15.4985481,26.7399593 C15.4985481,26.3174225 15.84538,25.9747956 16.2647629,25.9747956 C16.6841458,25.9747956 17.0309777,26.3174225 17.0309777,26.7399593 L17.0309777,38.4723052 C17.0309777,38.8946778 16.6841458,39.2373047 16.2647629,39.2373047" id="Fill-18" fill="#FFFFFF" mask="url(#mask-2)"></path>
                        <path d="M19.3297307,39.2373047 C18.9103478,39.2373047 18.5634615,38.8946778 18.5634615,38.4723052 L18.5634615,26.7399593 C18.5634615,26.3174225 18.9103478,25.9747956 19.3297307,25.9747956 C19.7491135,25.9747956 20.0959454,26.3174225 20.0959454,26.7399593 L20.0959454,38.4723052 C20.0959454,38.8946778 19.7491135,39.2373047 19.3297307,39.2373047" id="Fill-19" fill="#FFFFFF" mask="url(#mask-2)"></path>
                        <path d="M12.6889654,39.2373047 C12.2695825,39.2373047 11.9226963,38.8946778 11.9226963,38.4723052 L11.9226963,26.7399593 C11.9226963,26.3174225 12.2695825,25.9747956 12.6889654,25.9747956 C13.1083483,25.9747956 13.4552345,26.3174225 13.4552345,26.7399593 L13.4552345,38.4723052 C13.4552345,38.8946778 13.1083483,39.2373047 12.6889654,39.2373047" id="Fill-20" fill="#FFFFFF" mask="url(#mask-2)"></path>
                        <path d="M26.3961883,39.2373047 C25.9768054,39.2373047 25.7150783,38.8946778 25.7150783,38.4723052 L25.7150783,26.7399593 C25.7150783,26.3174225 25.9768054,25.9747956 26.3961883,25.9747956 C26.8155712,25.9747956 27.0772983,26.3174225 27.0772983,26.7399593 L27.0772983,38.4723052 C27.0772983,38.8946778 26.8155712,39.2373047 26.3961883,39.2373047" id="Fill-21" fill="#FFFFFF" mask="url(#mask-2)"></path>
                        <path d="M39.0000109,23.4362254 C39.0000109,23.8581054 38.6594831,24.2079023 38.2405893,24.2079023 L37.212104,24.2079023 L37.212104,38.4724585 C37.212104,38.8943384 36.864783,39.2372938 36.4458892,39.2372938 C36.0269954,39.2372938 35.6796201,38.8943384 35.6796201,38.4724585 L35.6796201,24.2079023 L3.15693091,24.2079023 L3.15693091,38.4724585 C3.15693091,38.8943384 2.89471471,39.2372938 2.47582093,39.2372938 C2.05692715,39.2372938 1.79471095,38.8943384 1.79471095,38.4724585 L1.79471095,24.2079023 L0.759432468,24.2079023 C0.340538688,24.2079023 1.08690656e-05,23.8581054 1.08690656e-05,23.4362254 C1.08690656e-05,23.0143455 0.340538688,22.6644938 0.759432468,22.6644938 L38.2405893,22.6644938 C38.6594831,22.6644938 39.0000109,23.0143455 39.0000109,23.4362254" id="Fill-22" fill="#FFFFFF" mask="url(#mask-2)"></path>
                        <path d="M19.3297307,5.59095487 C18.9103478,5.59095487 18.5634615,5.24816372 18.5634615,4.82579116 L18.5634615,1.76519107 C18.5634615,1.34265432 18.9103478,1.00002737 19.3297307,1.00002737 C19.7491135,1.00002737 20.0959454,1.34265432 20.0959454,1.76519107 L20.0959454,4.82579116 C20.0959454,5.24816372 19.7491135,5.59095487 19.3297307,5.59095487" id="Fill-23" fill="#FFFFFF" mask="url(#mask-2)"></path>
                        <path d="M5.31822826,16.476952 L2.27929192,16.476952 C1.85990903,16.476952 1.51954425,16.1276477 1.51954425,15.7052751 C1.51954425,15.2828479 1.85990903,14.9335435 2.27929192,14.9335435 L5.31822826,14.9335435 C5.73777418,14.9335435 6.07797593,15.2828479 6.07797593,15.7052751 C6.07797593,16.1276477 5.73777418,16.476952 5.31822826,16.476952" id="Fill-24" fill="#FFFFFF" mask="url(#mask-2)"></path>
                        <path d="M36.7206972,16.476952 L33.6817609,16.476952 C33.2622149,16.476952 32.9220132,16.1276477 32.9220132,15.7052751 C32.9220132,15.2828479 33.2622149,14.9335435 33.6817609,14.9335435 L36.7206972,14.9335435 C37.1400801,14.9335435 37.4804992,15.2828479 37.4804992,15.7052751 C37.4804992,16.1276477 37.1400801,16.476952 36.7206972,16.476952" id="Fill-25" fill="#FFFFFF" mask="url(#mask-2)"></path>
                        <path d="M29.0616853,8.80604359 C28.8674007,8.80604359 28.6729532,8.73127867 28.5246448,8.58174882 C28.2278649,8.28301753 28.2278649,7.79868751 28.5246448,7.49979202 L30.6736764,5.33576894 C30.9704562,5.03703765 31.451358,5.03703765 31.7479748,5.33576894 C32.0447546,5.63466443 32.0447546,6.11893972 31.7479748,6.41788994 L29.5988888,8.58174882 C29.4505804,8.73127867 29.2561329,8.80604359 29.0616853,8.80604359" id="Fill-26" fill="#FFFFFF" mask="url(#mask-2)"></path>
                        <path d="M9.93832558,8.80604359 C9.743878,8.80604359 9.54959346,8.73127867 9.40112202,8.58174882 L7.25203607,6.41788994 C6.95525624,6.11893972 6.95525624,5.63466443 7.25203607,5.33576894 C7.54887024,5.03703765 8.02955466,5.03703765 8.32633449,5.33576894 L10.4753661,7.49979202 C10.7721459,7.79868751 10.7721459,8.28301753 10.4753661,8.58174882 C10.3270577,8.73127867 10.1326101,8.80604359 9.93832558,8.80604359" id="Fill-27" fill="#FFFFFF" mask="url(#mask-2)"></path>
                    </g>
                </g>
            </g>
        </g>
    </g>
</svg>