<?xml version="1.0" encoding="UTF-8"?>
<svg width="73px" height="73px" viewBox="0 0 73 73" version="1.1" xmlns="http://www.w3.org/2000/svg" xmlns:xlink="http://www.w3.org/1999/xlink">
    <title>7FB6D814-21C5-4ABF-BDEC-A55C8BF35FF8</title>
    <defs>
        <polygon id="path-1" points="0 0 19.4615385 0 19.4615385 31.3076923 0 31.3076923"></polygon>
        <polygon id="path-3" points="0 44 44 44 44 0 0 0"></polygon>
    </defs>
    <g id="Homepage-CI" stroke="none" stroke-width="1" fill="none" fill-rule="evenodd">
        <g id="CI-HmPg-1280D_v2" transform="translate(-937.000000, -3216.000000)">
            <g id="Industries" transform="translate(101.000000, 3020.000000)">
                <g id="FoodService-Icon-bluecircle" transform="translate(836.000000, 196.000000)">
                    <circle id="Oval" fill="#0160A8" cx="36.5" cy="36.5" r="36.5"></circle>
                    <g id="FoodService-Icon" transform="translate(15.000000, 14.000000)">
                        <path d="M18.4105166,39.3655342 C18.1296582,39.6462485 17.8925112,40.0525807 17.7389351,40.484874 L17.082594,39.8283108 C17.0819241,39.8278083 17.0815892,39.8269709 17.0810867,39.8264684 C16.8735831,39.6120804 16.2604511,38.8491606 17.0774023,38.0318063 C17.3390008,37.7701859 17.3390008,37.3457647 17.0772348,37.0843118 C16.8154687,36.8226915 16.3912503,36.822859 16.1298192,37.0844793 C15.7737638,37.4407319 15.5548718,37.8137335 15.4378056,38.1833853 L15.2624576,38.0080226 C15.2597779,38.0051753 15.2579357,38.0018255 15.2552561,37.9991456 C15.0717016,37.8122261 13.5124938,36.1230831 15.2530789,34.3831905 C15.5148449,34.1215701 15.5150124,33.6974838 15.2534138,33.4358635 C14.9918153,33.1737406 14.5675969,33.1740756 14.3061658,33.4355285 C13.4743091,34.2667845 13.1599554,35.1049076 13.1048556,35.8500734 L11.6104613,34.3555545 C11.6079491,34.3530421 11.6064418,34.3498598 11.6037622,34.3473475 C11.60192,34.3453376 11.3997756,34.1212351 11.3311102,33.7780468 C11.2262698,33.2549736 11.4712882,32.6912001 12.0594662,32.102973 C12.3210648,31.8411852 12.3210648,31.4169314 12.0592988,31.1553111 C11.7975327,30.8938582 11.3733143,30.8940257 11.1118832,31.1554786 C10.5200207,31.7477254 10.212701,32.3131738 10.0710157,32.8158132 L8.86702592,31.6115555 C8.60559484,31.3499352 8.18137643,31.3499352 7.91961039,31.6115555 C7.65801183,31.8731759 7.65801183,32.2974297 7.91961039,32.5588825 L9.11874336,33.7581154 C8.61128904,33.9023249 8.05158201,34.2160348 7.46323646,34.8042619 C7.20147043,35.0657148 7.20130295,35.489801 7.46290151,35.7515889 C7.59370079,35.8825666 7.7651969,35.9480554 7.93669301,35.9480554 C8.10802165,35.9480554 8.27951776,35.8825666 8.41014956,35.7519239 C9.63289674,34.5305822 10.4573844,35.1176369 10.6478054,35.2874724 L12.1566027,36.7965629 C11.4116665,36.8520023 10.5739482,37.1662147 9.74343134,37.9971357 C9.48183278,38.2587561 9.48183278,38.6830099 9.74343134,38.9444627 C9.87406315,39.0754404 10.0457267,39.1407618 10.2170554,39.1407618 C10.3885515,39.1407618 10.5600476,39.0754404 10.6906794,38.9444627 C12.3567373,37.278266 13.9762367,38.635945 14.2753501,38.9154869 L14.4890503,39.1292049 C14.0993321,39.2549904 13.7290412,39.4862949 13.3940878,39.8212762 C13.1323218,40.0827291 13.1323218,40.5069828 13.3940878,40.7686032 C13.6553514,41.0302235 14.0800723,41.0302235 14.3413359,40.7686032 C15.1504157,39.9601259 15.9060704,40.5558901 16.1274746,40.7681007 L16.7883375,41.4290187 C16.3497161,41.5864599 15.9472697,41.8288189 15.6734453,42.1024985 C14.9281741,42.8469944 13.7161455,42.8468269 12.9737214,42.1048434 C12.9413984,42.0721827 12.9022088,42.0209306 12.8608421,41.9666636 L12.8104316,41.9008398 C12.6813071,41.7351916 12.4850245,41.6427368 12.2818752,41.6427368 C12.2220861,41.6427368 12.1614595,41.6507763 12.1018378,41.6673579 C11.432601,41.8542774 10.7169732,41.6715452 10.2359802,41.1910145 C10.0182606,40.9727743 9.85999511,40.6997645 9.76604069,40.3795224 C9.67459843,40.0684923 9.37347538,39.8695135 9.05158521,39.9021742 C8.46977126,39.9661556 7.90252777,39.7691866 7.49890899,39.3665391 C6.98023374,38.8463132 6.81024492,38.0880832 7.05509582,37.3873024 C7.17015229,37.0588532 7.01423151,36.696906 6.69669574,36.5548739 C6.47277943,36.4543796 6.28788518,36.3295991 6.13062459,36.1719904 C5.76954489,35.8115505 5.57075008,35.3321924 5.5705826,34.8221834 C5.5705826,34.3118395 5.76954489,33.8321463 6.13079207,33.4713715 C6.25673452,33.3457535 6.32740968,33.1750806 6.32740968,32.997373 C6.32740968,32.819498 6.25673452,32.648825 6.13079207,32.523207 C5.76954489,32.1624322 5.5705826,31.6827391 5.5705826,31.1727301 C5.57075008,30.6628886 5.76954489,30.1836979 6.1312945,29.8225881 C6.49203925,29.4616458 6.97169243,29.2630019 7.48199385,29.2630019 C7.99229527,29.2630019 8.47194845,29.4616458 8.83286068,29.8225881 C8.95846818,29.9483736 9.12879196,30.0190546 9.30665218,30.0190546 L9.30681966,30.0190546 C9.48467989,30.0190546 9.65517114,29.9482061 9.78077864,29.8222532 C10.1405185,29.4618133 10.6193343,29.2631694 11.1291333,29.2630019 L11.1299707,29.2630019 C11.6401046,29.2630019 12.1197578,29.4616458 12.4820099,29.8240956 C12.6362559,29.977517 12.764878,30.1674513 12.8640242,30.3880365 C13.0063793,30.7049288 13.3679615,30.8600251 13.6952109,30.745964 C14.397608,30.5019301 15.15544,30.6715981 15.6734453,31.1904841 C16.0762267,31.5929641 16.2720069,32.1595849 16.2107105,32.7452996 C16.1772151,33.0662116 16.3771823,33.3656849 16.6866792,33.4573023 C17.0092393,33.5527719 17.2813888,33.7105481 17.4979362,33.9282859 C17.979934,34.408984 18.1626511,35.123499 17.9745748,35.7932941 C17.9007176,36.0569243 17.9948395,36.3393135 18.2120567,36.5059667 L18.2691662,36.5491793 C18.3269457,36.5925593 18.3768537,36.6302447 18.4100141,36.6634079 C19.1546154,37.4090762 19.1547829,38.6213733 18.4105166,39.3655342 M19.3562573,35.7149084 C19.4944256,34.713482 19.1633242,33.6969814 18.4460216,32.9816289 C18.1901173,32.7241958 17.8923437,32.51567 17.5572229,32.3580613 C17.5153538,31.5598009 17.187267,30.8089404 16.6210283,30.2431571 C15.873245,29.493804 14.8348896,29.1688722 13.80943,29.3390427 C13.6960483,29.1702121 13.5685985,29.0151158 13.4282531,28.8755961 C12.8144511,28.2612405 11.9983372,27.9230769 11.1299707,27.9230769 L11.1287984,27.9230769 C10.4689403,27.9232444 9.83956295,28.1188735 9.30648471,28.4823281 C8.7724016,28.118706 8.14218689,27.9230769 7.48199385,27.9230769 C6.61379479,27.9230769 5.79734601,28.2612405 5.18421392,28.8749262 C4.56940706,29.4882768 4.23093671,30.3042912 4.23076923,31.1723951 C4.23076923,31.8328107 4.42638198,32.4632454 4.79064374,32.997373 C4.42638198,33.5315006 4.23076923,34.1619353 4.23076923,34.8225184 C4.23093671,35.6909573 4.56940706,36.5069716 5.18320906,37.1191499 C5.32355451,37.260177 5.47897286,37.3876374 5.6481243,37.5010285 C5.47830296,38.5237263 5.80220284,39.5625032 6.55132599,40.3138661 C7.11974181,40.8808219 7.8700373,41.2086011 8.66638887,41.2494688 C8.82281208,41.5826076 9.03081811,41.8802385 9.28839723,42.1383415 C10.0060348,42.8552014 11.0224507,43.1861629 12.0226214,43.0488206 C12.0231238,43.0493231 12.0236262,43.0498255 12.0241287,43.0501605 C12.6578604,43.6834426 13.490052,44.0001674 14.322411,43.9999999 C15.1546026,43.9999999 15.9869616,43.6832751 16.6205259,43.050328 C16.9878022,42.6831885 17.7732678,42.514693 17.965531,42.6054729 C18.2284694,42.8560389 18.643979,42.8516841 18.9015582,42.5935811 C19.0323574,42.4627709 19.0976733,42.2912605 19.0975059,42.1197501 C19.0973384,41.9534319 19.0355395,41.7869462 18.9121092,41.6578109 C18.8216718,41.4653642 18.9906557,40.6801681 19.3575971,40.3133636 C20.6242232,39.046967 20.6243907,36.9848224 19.3580996,35.7169183 C19.3574297,35.7162484 19.3569272,35.7155784 19.3562573,35.7149084" id="Fill-1" fill="#FFFFFF"></path>
                        <path d="M22.4230769,31.5897436 C22.0341987,31.5897436 21.7179487,31.2734936 21.7179487,30.8846154 C21.7179487,30.4957372 22.0341987,30.1794872 22.4230769,30.1794872 C22.8119551,30.1794872 23.1282051,30.4957372 23.1282051,30.8846154 C23.1282051,31.2734936 22.8119551,31.5897436 22.4230769,31.5897436 M22.4230769,28.7692308 C21.2566186,28.7692308 20.3076923,29.7181571 20.3076923,30.8846154 C20.3076923,32.0510737 21.2566186,33 22.4230769,33 C23.5895353,33 24.5384615,32.0510737 24.5384615,30.8846154 C24.5384615,29.7181571 23.5895353,28.7692308 22.4230769,28.7692308" id="Fill-3" fill="#FFFFFF"></path>
                        <g id="Group-7" transform="translate(24.538462, 12.692308)">
                            <mask id="mask-2" fill="white">
                                <use xlink:href="#path-1"></use>
                            </mask>
                            <g id="Clip-6"></g>
                            <path d="M15.5232121,13.4393824 C12.1568163,19.422954 9.12419029,23.7208278 6.7227526,26.4298207 L5.63917493,25.7871559 C5.31079698,25.5923317 4.88275772,25.6951036 4.68360901,26.016521 C4.48446031,26.3379385 4.58933949,26.7565129 4.91789137,26.9513371 L5.7690999,27.4561786 C4.37471111,28.8825643 3.24382476,29.6909573 2.45314353,29.8980326 C2.1854668,29.9679651 1.976752,29.9606486 1.83326057,29.8757426 C1.25842523,29.5349278 1.0321436,27.7144696 2.28617169,23.7055141 C2.53541194,22.9085213 2.83578732,22.0555485 3.17842745,21.1602077 L4.03346241,21.6669209 C4.1461684,21.7337907 4.27052764,21.7657793 4.39332151,21.7657793 C4.62847352,21.7657793 4.85823373,21.6488848 4.98902833,21.4375558 C5.18800311,21.1161383 5.08312392,20.6975639 4.75439811,20.5029098 L3.68890907,19.8713049 C4.69300118,17.4231554 5.99207687,14.6939144 7.51534705,11.8338265 L11.3816148,14.1259465 C11.4944947,14.1928163 11.6188539,14.2246347 11.7416478,14.2246347 C11.9767998,14.2246347 12.20656,14.1079103 12.3373546,13.8967515 C12.5363294,13.5751639 12.4314502,13.1565895 12.1028983,12.9617653 L8.16618936,10.627958 C8.38742705,10.2241869 8.61127367,9.81922467 8.84051209,9.41154005 C9.39499774,8.42652908 10.0171418,7.85549837 10.7427736,7.66560854 C10.9285297,7.61694502 11.1254174,7.59278341 11.3332625,7.59278341 C12.0430668,7.59278341 12.8796652,7.87608678 13.8293176,8.43895019 C16.8254185,10.2153389 16.3085015,12.0443047 15.5232121,13.4393824 M14.8734134,1.37627355 C15.016383,1.34717752 15.2386643,1.34207296 15.4835563,1.48755307 C15.7597555,1.65140962 15.8702005,1.89268541 15.9138566,2.04378054 L13.7465274,5.89636618 C13.7392224,5.84038611 13.732787,5.78202392 13.7273952,5.7219602 C13.6512143,4.86796641 13.7936621,3.43069096 14.8734134,1.37627355 M18.8193406,4.34134542 C18.6182786,4.02128917 18.1909351,3.92140984 17.8637746,4.1175953 C17.5362663,4.31361061 17.4333004,4.73235512 17.6331448,5.05292183 C17.8914294,5.46741254 18.1008399,6.03146701 18.0723155,6.22595095 C17.7999427,6.51623057 16.5026063,7.21980983 15.315193,7.77501639 C15.0809107,7.60554482 14.8283657,7.43998675 14.5570365,7.27885264 L17.2468485,2.49740625 C17.3059843,2.39259251 17.3357262,2.27433675 17.3329433,2.15471976 C17.3233772,1.71725851 17.0750066,0.839443421 16.2046659,0.323371862 C15.3146712,-0.204270045 14.4215458,0.0230532664 14.0338581,0.240677903 C13.9208042,0.304144666 13.8284479,0.39738806 13.7668771,0.509688498 C12.2837845,3.22089332 12.1865582,5.15212055 12.422232,6.3698997 C11.6915562,6.1944728 11.0095806,6.1866458 10.3832623,6.3506725 C9.27202994,6.64146257 8.36864272,7.42790594 7.62161767,8.75509294 C2.53332479,17.7991917 -2.22450298,29.0620749 1.11232487,31.0397537 C1.41322204,31.2182433 1.75047037,31.3077434 2.12024342,31.3077434 C2.33991575,31.3077434 2.57106739,31.276095 2.8128287,31.2127984 C5.9226792,30.3991307 11.2598645,23.8401045 16.7421065,14.0958295 C17.887429,12.0611498 17.7785494,10.2747221 16.4265993,8.76223933 C17.6981942,8.14816012 18.9929217,7.42109986 19.2955582,6.88409958 C19.7863858,6.01019799 19.0551883,4.71687128 18.8193406,4.34134542" id="Fill-5" fill="#FFFFFF" mask="url(#mask-2)"></path>
                        </g>
                        <mask id="mask-4" fill="white">
                            <use xlink:href="#path-3"></use>
                        </mask>
                        <g id="Clip-9"></g>
                        <path d="M18.5957226,9 L26.8604691,9 L26.8604691,7.61538462 L18.5957226,7.61538462 L18.5957226,9 Z M16.9818587,7.61538462 L17.2182649,7.61538462 L17.2182649,9 C17.2182649,9.76344231 17.8362269,10.3846154 18.5957226,10.3846154 L26.8604691,10.3846154 C27.6199649,10.3846154 28.2379269,9.76344231 28.2379269,9 L28.2379269,7.61538462 L28.9266557,7.61538462 C29.3070063,7.61538462 29.6153846,7.30540385 29.6153846,6.92307692 L29.6153846,3.46153846 C29.6153846,1.55284615 28.0705658,0 26.1717402,0 L16.9949446,0 C15.1989118,0 13.4564278,0.643846154 12.0882679,1.81298077 L0.242647791,11.934 C-0.0469627001,12.1816731 -0.0824322371,12.6185192 0.163960517,12.9099808 C0.410353272,13.2014423 0.844769009,13.23675 1.13489605,12.9890769 L12.9805161,2.86788462 C14.0998727,1.91146154 15.5255415,1.38461538 16.9949446,1.38461538 L26.1717402,1.38461538 C27.31107,1.38461538 28.2379269,2.31628846 28.2379269,3.46153846 L28.2379269,6.23076923 L16.9818587,6.23076923 C16.0618891,6.23076923 15.19719,6.59094231 14.5468578,7.24482692 L0.201840606,21.6643846 C-0.0672802019,21.9347308 -0.0672802019,22.3731346 0.201840606,22.6433077 C0.336142736,22.7784808 0.51262951,22.8461538 0.688771919,22.8461538 C0.864914329,22.8461538 1.0414011,22.7784808 1.17570323,22.6433077 L15.5210648,8.22375 C15.9110575,7.83138462 16.4298425,7.61538462 16.9818587,7.61538462 L16.9818587,7.61538462 Z" id="Fill-8" fill="#FFFFFF" mask="url(#mask-4)"></path>
                        <path d="M22.8461538,19.4615385 C22.3788654,19.4615385 22,19.7772596 22,20.1666667 L22,27.2179487 C22,27.6073558 22.3788654,27.9230769 22.8461538,27.9230769 C23.3134423,27.9230769 23.6923077,27.6073558 23.6923077,27.2179487 L23.6923077,20.1666667 C23.6923077,19.7772596 23.3134423,19.4615385 22.8461538,19.4615385" id="Fill-10" fill="#FFFFFF" mask="url(#mask-4)"></path>
                        <path d="M23.6923077,15.8653846 C23.6923077,15.5149183 23.3134423,15.2307692 22.8461538,15.2307692 C22.3788654,15.2307692 22,15.5149183 22,15.8653846 L22,17.1346154 C22,17.4850817 22.3788654,17.7692308 22.8461538,17.7692308 C23.3134423,17.7692308 23.6923077,17.4850817 23.6923077,17.1346154 L23.6923077,15.8653846 Z" id="Fill-11" fill="#FFFFFF" mask="url(#mask-4)"></path>
                        <path d="M23.6923077,12.4102564 C23.6923077,12.0987308 23.3134423,11.8461538 22.8461538,11.8461538 C22.3788654,11.8461538 22,12.0987308 22,12.4102564 L22,12.974359 C22,13.2858846 22.3788654,13.5384615 22.8461538,13.5384615 C23.3134423,13.5384615 23.6923077,13.2858846 23.6923077,12.974359 L23.6923077,12.4102564 Z" id="Fill-12" fill="#FFFFFF" mask="url(#mask-4)"></path>
                        <path d="M18.1974067,17.5146199 L16.9295626,27.1370068 C16.8798588,27.5133426 17.1212319,27.8621332 17.4685234,27.9160185 C17.4990126,27.9206667 17.5291843,27.9230769 17.5590383,27.9230769 C17.869965,27.9230769 18.1418273,27.6751704 18.1872436,27.3315445 L19.4550876,17.7093298 C19.5046327,17.3328218 19.2634183,16.9840311 18.9159681,16.9301459 C18.5696294,16.8760885 18.2469517,17.1379398 18.1974067,17.5146199" id="Fill-13" fill="#FFFFFF" mask="url(#mask-4)"></path>
                        <path d="M20.0073542,14.6414963 L20.3005891,12.6292907 C20.3551445,12.2542209 20.0895369,11.9067625 19.7069501,11.8530831 C19.3255872,11.7997467 18.9702781,12.0600832 18.9157228,12.4353245 L18.6224878,14.4475302 C18.5679324,14.8226 18.83354,15.1700583 19.2161268,15.2237377 C19.2495245,15.2283682 19.2827473,15.2307692 19.3157953,15.2307692 C19.658165,15.2307692 19.95752,14.9836382 20.0073542,14.6414963" id="Fill-14" fill="#FFFFFF" mask="url(#mask-4)"></path>
                        <path d="M27.4286719,23.953947 C27.4865785,24.2969471 27.7713845,24.5384615 28.0929942,24.5384615 C28.1318237,24.5384615 28.1713286,24.5347487 28.211171,24.5274997 C28.578532,24.4596069 28.8236644,24.0927383 28.758836,23.7080124 L27.5713281,16.6611291 C27.5064997,16.27658 27.1565276,16.0205676 26.788829,16.0875764 C26.421468,16.1554692 26.1763356,16.5223378 26.241164,16.9070636 L27.4286719,23.953947 Z" id="Fill-15" fill="#FFFFFF" mask="url(#mask-4)"></path>
                        <path d="M27.0665934,14.4276714 L26.7174591,12.411376 C26.6530035,12.0392421 26.3050442,11.7912669 25.9394603,11.8565955 C25.57438,11.9222662 25.3304895,12.2771274 25.3949451,12.6492613 L25.7440794,14.6655567 C25.801653,14.9973305 26.084821,15.2307692 26.404581,15.2307692 C26.4431872,15.2307692 26.4826327,15.2273489 26.5220781,15.2203372 C26.8871585,15.1546665 27.1310489,14.7998053 27.0665934,14.4276714" id="Fill-16" fill="#FFFFFF" mask="url(#mask-4)"></path>
                    </g>
                </g>
            </g>
        </g>
    </g>
</svg>