<?xml version="1.0" encoding="UTF-8"?>
<svg width="73px" height="73px" viewBox="0 0 73 73" version="1.1" xmlns="http://www.w3.org/2000/svg" xmlns:xlink="http://www.w3.org/1999/xlink">
    <title>3BFB545A-CF1A-49A9-8C45-4E91F7DD5635</title>
    <defs>
        <polygon id="path-1" points="0 0 40 0 40 34.0044582 0 34.0044582"></polygon>
        <polygon id="path-3" points="0 0 9.50041611 0 9.50041611 9.52125265 0 9.52125265"></polygon>
    </defs>
    <g id="Homepage-CI" stroke="none" stroke-width="1" fill="none" fill-rule="evenodd">
        <g id="CI-HmPg-1280D_v2" transform="translate(-377.000000, -3216.000000)">
            <g id="Industries" transform="translate(101.000000, 3020.000000)">
                <g id="Healthcare-Icon-bluecircle" transform="translate(276.000000, 196.000000)">
                    <g id="Savings-Icon-bluecircle" fill="#0160A8">
                        <circle id="Oval" cx="36.5" cy="36.5" r="36.5"></circle>
                    </g>
                    <g id="Healthcare-icon" transform="translate(17.000000, 16.000000)">
                        <g id="Group-3" transform="translate(0.000000, 3.995542)">
                            <mask id="mask-2" fill="white">
                                <use xlink:href="#path-1"></use>
                            </mask>
                            <g id="Clip-2"></g>
                            <path d="M39.2501504,32.4742565 L38.2339484,32.4742565 C38.2373596,32.4555353 38.2373596,32.4368684 38.2373596,32.416465 L38.2373596,7.61020171 C38.2373596,7.1953504 37.9149776,6.97091286 37.5010897,6.97091286 L28.7369435,6.97091286 L28.7369435,0.595063368 C28.7369435,0.18021206 28.4146156,0 28.0006736,0 L26.1922153,0 L26.1922153,1.36013709 L27.2100957,1.36013709 L27.2100957,32.416465 C27.2100957,32.4368684 27.2100957,32.4555353 27.2135069,32.4742565 L12.2775366,32.4742565 C12.2809478,32.4555353 12.2809478,32.4368684 12.2809478,32.416465 L12.2809478,1.36013709 L13.8077955,1.36013709 L13.8077955,0 L11.4988708,0 C11.0849288,0 10.7541,0.18021206 10.7541,0.595063368 L10.7541,6.97091286 L1.99845469,6.97091286 C1.58451267,6.97091286 1.25368392,7.1953504 1.25368392,7.61020171 L1.25368392,32.416465 C1.25368392,32.4368684 1.25368392,32.4555353 1.25709509,32.4742565 L0.74986044,32.4742565 C0.335918418,32.4742565 0,32.824479 0,33.2393845 C0,33.6542358 0.335918418,34.0044582 0.74986044,34.0044582 L39.2501504,34.0044582 C39.6640924,34.0044582 40.0000108,33.6542358 40.0000108,33.2393845 C40.0000108,32.824479 39.6640924,32.4742565 39.2501504,32.4742565 L39.2501504,32.4742565 Z M2.77717466,32.4742565 C2.78053168,32.4555353 2.78053168,32.4368684 2.78053168,32.416465 L2.78053168,8.50111456 L10.7541,8.50111456 L10.7541,32.416465 C10.7541,32.4368684 10.7541,32.4555353 10.757457,32.4742565 L2.77717466,32.4742565 Z M28.7335865,32.4742565 C28.7369435,32.4555353 28.7369435,32.4368684 28.7369435,32.416465 L28.7369435,8.50111456 L36.7105119,8.50111456 L36.7105119,32.416465 C36.7105119,32.4368684 36.7105119,32.4555353 36.7138689,32.4742565 L28.7335865,32.4742565 Z" id="Fill-1" fill="#FFFFFF" mask="url(#mask-2)"></path>
                        </g>
                        <path d="M22.0001657,17.5123036 L17.499866,17.5123036 C17.0857615,17.5123036 16.6918533,17.1176929 16.6918533,16.7024617 L16.6918533,12.1922765 C16.6918533,11.7772624 17.0857615,11.5615071 17.499866,11.5615071 L22.0001657,11.5615071 C22.4141077,11.5615071 22.7992443,11.7772624 22.7992443,12.1922765 L22.7992443,16.7024617 C22.7992443,17.1176929 22.4141077,17.5123036 22.0001657,17.5123036 L22.0001657,17.5123036 Z M18.2187011,15.9821019 L21.2723966,15.9821019 L21.2723966,13.0917088 L18.2187011,13.0917088 L18.2187011,15.9821019 Z" id="Fill-4" fill="#FFFFFF"></path>
                        <g id="Group-8" transform="translate(15.164962, 0.000000)">
                            <mask id="mask-4" fill="white">
                                <use xlink:href="#path-3"></use>
                            </mask>
                            <g id="Clip-7"></g>
                            <path d="M6.33507267,9.52125265 L3.33498116,9.52125265 C2.9208767,9.52125265 2.54478235,9.09978109 2.54478235,8.68454993 L2.54478235,7.48096562 L0.834868808,7.48096562 C0.42076435,7.48096562 0,7.09520003 0,6.68018593 L0,3.17226404 C0,2.75708714 0.42076435,2.5503398 0.834868808,2.5503398 L2.54478235,2.5503398 L2.54478235,0.666659812 C2.54478235,0.251482917 2.9208767,-3.25586377e-05 3.33498116,-3.25586377e-05 L6.33507267,-3.25586377e-05 C6.74917712,-3.25586377e-05 7.12532562,0.251482917 7.12532562,0.666659812 L7.12532562,2.5503398 L8.83518502,2.5503398 C9.24934362,2.5503398 9.50041611,2.75708714 9.50041611,3.17226404 L9.50041611,6.68018593 C9.50041611,7.09520003 9.24934362,7.48096562 8.83518502,7.48096562 L7.12532562,7.48096562 L7.12532562,8.68454993 C7.12532562,9.09978109 6.74917712,9.52125265 6.33507267,9.52125265 L6.33507267,9.52125265 Z M4.07163011,7.99105094 L5.59847786,7.99105094 L5.59847786,6.68018593 C5.59847786,6.26479197 5.92096821,5.95076391 6.33507267,5.95076391 L8.14320607,5.95076391 L8.14320607,4.0805415 L6.33507267,4.0805415 C5.92096821,4.0805415 5.59847786,3.58744093 5.59847786,3.17226404 L5.59847786,1.53016915 L4.07163011,1.53016915 L4.07163011,3.17226404 C4.07163011,3.58744093 3.74908562,4.0805415 3.33498116,4.0805415 L1.52684775,4.0805415 L1.52684775,5.95076391 L3.33498116,5.95076391 C3.74908562,5.95076391 4.07163011,6.26479197 4.07163011,6.68018593 L4.07163011,7.99105094 Z" id="Fill-6" fill="#FFFFFF" mask="url(#mask-4)"></path>
                        </g>
                        <path d="M22.0001657,33.4944109 L17.499866,33.4944109 C17.0857615,33.4944109 16.6918533,33.153522 16.6918533,32.7382908 L16.6918533,28.7293458 C16.6918533,28.3141689 17.0857615,28.0536998 17.499866,28.0536998 L22.0001657,28.0536998 C22.4141077,28.0536998 22.7992443,28.3141689 22.7992443,28.7293458 L22.7992443,32.7382908 C22.7992443,33.153522 22.4141077,33.4944109 22.0001657,33.4944109 L22.0001657,33.4944109 Z M18.2187011,32.1342196 L21.2723966,32.1342196 L21.2723966,29.5839015 L18.2187011,29.5839015 L18.2187011,32.1342196 Z" id="Fill-9" fill="#FFFFFF"></path>
                        <path d="M22.0001657,25.5033545 L17.499866,25.5033545 C17.0857615,25.5033545 16.6918533,25.1356047 16.6918533,24.7203736 L16.6918533,20.2102425 C16.6918533,19.7950114 17.0857615,19.5525581 17.499866,19.5525581 L22.0001657,19.5525581 C22.4141077,19.5525581 22.7992443,19.7950114 22.7992443,20.2102425 L22.7992443,24.7203736 C22.7992443,25.1356047 22.4141077,25.5033545 22.0001657,25.5033545 L22.0001657,25.5033545 Z M18.2187011,23.9731528 L21.2723966,23.9731528 L21.2723966,21.0827598 L18.2187011,21.0827598 L18.2187011,23.9731528 Z" id="Fill-11" fill="#FFFFFF"></path>
                        <path d="M34.0005101,19.5525743 L31.2505164,19.5525743 C30.8363578,19.5525743 30.5004394,19.2026775 30.5004394,18.7875006 C30.5004394,18.3722695 30.8363578,18.0223726 31.2505164,18.0223726 L33.1478274,18.0223726 L33.1478274,15.4720545 L31.2505164,15.4720545 C30.8363578,15.4720545 30.5004394,15.2071358 30.5004394,14.7919589 C30.5004394,14.3767277 30.8363578,14.1118632 31.2505164,14.1118632 L34.0005101,14.1118632 C34.4146145,14.1118632 34.6746751,14.2827418 34.6746751,14.6979187 L34.6746751,18.7068637 C34.6746751,19.1222577 34.4146145,19.5525743 34.0005101,19.5525743" id="Fill-13" fill="#FFFFFF"></path>
                        <path d="M34.0005101,35.5346762 L31.2505164,35.5346762 C30.8363578,35.5346762 30.5004394,35.1847794 30.5004394,34.7695482 C30.5004394,34.3543714 30.8363578,34.0044745 31.2505164,34.0044745 L33.1478274,34.0044745 L33.1478274,31.6241668 L31.2505164,31.6241668 C30.8363578,31.6241668 30.5004394,31.27427 30.5004394,30.8590388 C30.5004394,30.4438619 30.8363578,30.0939651 31.2505164,30.0939651 L34.0005101,30.0939651 C34.4146145,30.0939651 34.6746751,30.3185654 34.6746751,30.7337423 L34.6746751,34.7427416 C34.6746751,35.1579185 34.4146145,35.5346762 34.0005101,35.5346762" id="Fill-15" fill="#FFFFFF"></path>
                        <path d="M34.0005101,27.5436199 L31.2505164,27.5436199 C30.8363578,27.5436199 30.5004394,27.193723 30.5004394,26.7785461 C30.5004394,26.363315 30.8363578,26.0134182 31.2505164,26.0134182 L33.1478274,26.0134182 L33.1478274,23.1230251 L31.2505164,23.1230251 C30.8363578,23.1230251 30.5004394,22.7731283 30.5004394,22.3579514 C30.5004394,21.9427745 30.8363578,21.5928234 31.2505164,21.5928234 L34.0005101,21.5928234 C34.4146145,21.5928234 34.6746751,21.7995707 34.6746751,22.2148019 L34.6746751,26.7248244 C34.6746751,27.1400013 34.4146145,27.5436199 34.0005101,27.5436199" id="Fill-17" fill="#FFFFFF"></path>
                        <path d="M8.74950525,19.5525743 L5.49937002,19.5525743 C5.08526556,19.5525743 4.64668735,19.1222577 4.64668735,18.7068637 L4.64668735,14.6979187 C4.64668735,14.2827418 5.08526556,14.1118632 5.49937002,14.1118632 L8.74950525,14.1118632 C9.1636097,14.1118632 9.49952812,14.3767277 9.49952812,14.7919589 C9.49952812,15.2071358 9.1636097,15.4720545 8.74950525,15.4720545 L6.17353511,15.4720545 L6.17353511,18.0223726 L8.74950525,18.0223726 C9.1636097,18.0223726 9.49952812,18.3722695 9.49952812,18.7875006 C9.49952812,19.2026775 9.1636097,19.5525743 8.74950525,19.5525743" id="Fill-19" fill="#FFFFFF"></path>
                        <path d="M8.24954234,35.5346762 L5.49933212,35.5346762 C5.08522766,35.5346762 4.6467036,35.1579185 4.6467036,34.7427416 L4.6467036,30.7337423 C4.6467036,30.3185654 5.08522766,30.0939651 5.49933212,30.0939651 L8.24954234,30.0939651 C8.66364679,30.0939651 8.99956521,30.4438619 8.99956521,30.8590388 C8.99956521,31.27427 8.66364679,31.6241668 8.24954234,31.6241668 L6.17355135,31.6241668 L6.17355135,34.0044745 L8.24954234,34.0044745 C8.66364679,34.0044745 8.99956521,34.3543714 8.99956521,34.7695482 C8.99956521,35.1847794 8.66364679,35.5346762 8.24954234,35.5346762" id="Fill-21" fill="#FFFFFF"></path>
                        <path d="M8.24954234,27.5436199 L5.49933212,27.5436199 C5.08522766,27.5436199 4.6467036,27.1400013 4.6467036,26.7248244 L4.6467036,22.2148019 C4.6467036,21.7995707 5.08522766,21.5928234 5.49933212,21.5928234 L8.74952149,21.5928234 C9.16362595,21.5928234 9.49954437,21.9427745 9.49954437,22.3579514 C9.49954437,22.7731283 9.16362595,23.1230251 8.74952149,23.1230251 L6.17355135,23.1230251 L6.17355135,26.0134182 L8.24954234,26.0134182 C8.66364679,26.0134182 8.99956521,26.363315 8.99956521,26.7785461 C8.99956521,27.193723 8.66364679,27.5436199 8.24954234,27.5436199" id="Fill-23" fill="#FFFFFF"></path>
                    </g>
                </g>
            </g>
        </g>
    </g>
</svg>