<?xml version="1.0" encoding="UTF-8"?>
<svg width="73px" height="73px" viewBox="0 0 73 73" version="1.1" xmlns="http://www.w3.org/2000/svg" xmlns:xlink="http://www.w3.org/1999/xlink">
    <title>954F2337-4B07-48A4-9A09-DF95B520D6C5</title>
    <defs>
        <polygon id="path-1" points="0 0 37 0 37 37 0 37"></polygon>
    </defs>
    <g id="Homepage-CI" stroke="none" stroke-width="1" fill="none" fill-rule="evenodd">
        <g id="CI-HmPg-1280D_v2" transform="translate(-101.000000, -3216.000000)">
            <g id="Industries" transform="translate(101.000000, 3020.000000)">
                <g id="Hospitality-Icon-bluecircle" transform="translate(0.000000, 196.000000)">
                    <g id="Savings-Icon-bluecircle" fill="#0160A8">
                        <circle id="Oval" cx="36.5" cy="36.5" r="36.5"></circle>
                    </g>
                    <g id="Hospitality-Icon" transform="translate(16.000000, 17.000000)">
                        <mask id="mask-2" fill="white">
                            <use xlink:href="#path-1"></use>
                        </mask>
                        <g id="Clip-2"></g>
                        <path d="M33.2395238,35.4816118 L33.2395238,2.87741565 C33.2395238,2.49767719 32.9636986,2.17885907 32.5928074,2.12815052 C32.5928074,2.12815052 20.0350252,0.172041916 19.0749433,0.116377644 C19.0749433,0.116377644 18.0671548,-0.113888231 17.7863705,0.0733779947 L10.5160312,4.8915913 C10.3005086,5.03335499 10.175093,5.27127971 10.175093,5.52947783 L10.175093,35.4816118 L7.61292395,35.4816118 C7.60295616,33.0877478 7.4273544,28.567979 5.09092364,26.1082389 C5.1308444,25.6123163 5.45189659,25.1163937 5.93823561,24.8480338 C6.61520246,24.4785072 7.57776393,24.5391772 8.18951861,24.9846416 C8.52544809,25.2275721 8.99671145,25.1516844 9.23737661,24.8125929 C9.48319924,24.4735014 9.4078209,23.9978021 9.07189141,23.7548216 C7.99403085,22.96531 6.40964773,22.863993 5.2212984,23.5118911 C4.66473851,23.8205475 4.22342813,24.2811793 3.93768474,24.8125929 C3.73213001,24.4582838 3.63671691,24.1191923 3.66686825,23.835765 C3.70197868,23.5221029 3.90257431,23.2436814 4.27346546,22.9956951 C4.61951152,22.7628262 4.70976715,22.2921327 4.47921855,21.9428294 C4.24847159,21.5937263 3.78216734,21.4974151 3.43627006,21.730334 C2.50371115,22.3630145 2.23289465,23.1323028 2.17274076,23.6637164 C2.08744423,24.4127813 2.34318506,25.2175605 2.90475363,25.9866986 C2.30807462,26.0980772 1.76143294,26.3107227 1.31040272,26.6194292 C0.227235918,27.3532765 -0.254143999,28.6236934 0.131971591,29.706844 C0.247270685,30.0155004 0.711095385,30.4203178 1.09969053,30.1623199 C1.44290989,29.9342566 1.69136084,29.5853037 1.54596001,29.1904978 C1.40050958,28.7755187 1.65625041,28.21372 2.14754853,27.8796342 C2.33807718,27.7532383 2.55870758,27.6468655 2.80453021,27.5759836 C2.43844938,28.6843634 2.46359202,29.9193394 2.9297475,31.0075459 C3.05015447,31.2959789 3.53153439,31.6857289 3.9175012,31.4023017 C4.29865769,31.2402646 4.47406109,30.7898445 4.30877426,30.4052504 C3.93768474,29.5346452 3.98772207,28.4920914 4.39888112,27.6367038 C5.95326168,29.7877875 6.09871211,33.5280061 6.1086799,35.4816118 L1.65114254,35.4816118 C1.23502439,35.4816118 0.899094897,35.8207033 0.899094897,36.2407383 C0.899094897,36.6609235 1.23502439,37.000015 1.65114254,37.000015 L36.2479623,37.000015 C36.6640804,37.000015 37.0000099,36.6609235 37.0000099,36.2407383 C37.0000099,35.8207033 36.6640804,35.4816118 36.2479623,35.4816118 L33.2395238,35.4816118 Z M13.6847974,35.4816118 L11.679337,35.4816118 L11.679337,32.7232269 L13.6847974,32.5816133 L13.6847974,35.4816118 Z M13.6847974,31.0580041 L11.679337,31.1948121 L11.679337,28.315037 L13.6847974,28.0366155 L13.6847974,31.0580041 Z M13.6847974,26.5082007 L11.679337,26.786422 L11.679337,23.9066469 L13.6847974,23.349854 L13.6847974,26.5082007 Z M13.6847974,21.7808423 L11.679337,22.3375852 L11.679337,19.5185302 L13.6847974,18.67831 L13.6847974,21.7808423 Z M13.6847974,17.0385667 L11.679337,17.8687252 L11.679337,14.6446526 L13.6847974,13.8044324 L13.6847974,17.0385667 Z M13.6847974,12.1644889 L11.679337,12.9946975 L11.679337,10.2515301 C11.6944127,10.2515301 11.7043309,10.2413183 11.7194066,10.2363125 L13.6847974,9.21898789 L13.6847974,12.1644889 Z M13.6847974,7.50831268 L11.679337,8.55086645 L11.679337,5.93945121 L13.6847974,4.60816405 L13.6847974,7.50831268 Z M17.6961149,35.4816118 L15.1890415,35.4816118 L15.1890415,32.4752405 L17.6961149,32.3031919 L17.6961149,35.4816118 Z M17.6961149,30.7797829 L15.1890415,30.9518315 L15.1890415,27.8289758 L17.6961149,27.4798226 L17.6961149,30.7797829 Z M17.6961149,25.9464021 L15.1890415,26.2955051 L15.1890415,22.9348748 L17.6961149,22.2414742 L17.6961149,25.9464021 Z M17.6961149,20.6674067 L15.1890415,21.3608073 L15.1890415,18.0557912 L17.6961149,17.0082817 L17.6961149,20.6674067 Z M17.6961149,15.3683382 L15.1890415,16.4109921 L15.1890415,13.1819637 L17.6961149,12.134254 L17.6961149,15.3683382 Z M17.6961149,10.4944606 L15.1890415,11.5369643 L15.1890415,8.43948785 L17.6961149,7.13883606 L17.6961149,10.4944606 Z M17.6961149,5.43316663 L15.1890415,6.72881263 L15.1890415,3.61111281 L17.6961149,1.94609031 L17.6961149,5.43316663 Z M22.2086487,5.37244652 L20.2029899,5.08401348 L20.2029899,6.61247831 L22.2086487,6.9060673 L22.2086487,10.6564476 L20.2029899,10.4488079 L20.2029899,11.9722169 L22.2086487,12.1798566 L22.2086487,15.5303252 L20.2029899,15.3228356 L20.2029899,16.8462446 L22.2086487,17.0537342 L22.2086487,20.7585119 L20.2029899,20.6219042 L20.2029899,22.1453132 L22.2086487,22.2819209 L22.2086487,25.9918545 L20.2029899,25.9209727 L20.2029899,27.4393759 L22.2086487,27.5102578 L22.2086487,30.8657321 L20.2029899,30.7950005 L20.2029899,32.3132535 L22.2086487,32.3841353 L22.2086487,35.4816118 L19.2003589,35.4816118 L19.2003589,1.72838894 L20.2029899,1.87520846 L22.2086487,2.1636415 L22.2086487,5.37244652 Z M26.7213312,35.4816118 L23.7128927,35.4816118 L23.7128927,32.4347938 L26.7213312,32.5409664 L26.7213312,35.4816118 Z M26.7213312,31.0227634 L23.7128927,30.9163906 L23.7128927,27.5609162 L26.7213312,27.6670888 L26.7213312,31.0227634 Z M26.7213312,26.1487357 L23.7128927,26.0423629 L23.7128927,22.3882437 L26.7213312,22.5957833 L26.7213312,26.1487357 Z M26.7213312,21.0723743 L23.7128927,20.8648347 L23.7128927,17.2106154 L26.7213312,17.5244277 L26.7213312,21.0723743 Z M26.7213312,16.0010187 L23.7128927,15.6872064 L23.7128927,12.3367378 L26.7213312,12.6505501 L26.7213312,16.0010187 Z M26.7213312,11.1271411 L23.7128927,10.8133288 L23.7128927,7.11856266 L26.7213312,7.55381522 L26.7213312,11.1271411 Z M26.7213312,6.02039467 L23.7128927,5.58999771 L23.7128927,2.38129281 L26.7213312,2.81153959 L26.7213312,6.02039467 Z M31.7352797,35.4816118 L28.2255753,35.4816118 L28.2255753,32.5916249 L31.7352797,32.7131652 L31.7352797,35.4816118 Z M31.7352797,31.1948121 L28.2255753,31.0734219 L28.2255753,27.7177473 L31.7352797,27.8391875 L31.7352797,31.1948121 Z M31.7352797,26.3207843 L28.2255753,26.1993942 L28.2255753,22.7021061 L31.7352797,22.9448864 L31.7352797,26.3207843 Z M31.7352797,21.4214774 L28.2255753,21.1786971 L28.2255753,17.6812588 L31.7352797,18.0457797 L31.7352797,21.4214774 Z M31.7352797,16.5223707 L28.2255753,16.1578498 L28.2255753,12.8073812 L31.7352797,13.1717519 L31.7352797,16.5223707 Z M31.7352797,11.6483429 L28.2255753,11.2840223 L28.2255753,7.77151658 L31.7352797,8.27765099 L31.7352797,11.6483429 Z M31.7352797,6.74403021 L28.2255753,6.2378958 L28.2255753,3.02909078 L31.7352797,3.53522519 L31.7352797,6.74403021 Z" id="Fill-1" fill="#FFFFFF" mask="url(#mask-2)"></path>
                    </g>
                </g>
            </g>
        </g>
    </g>
</svg>