<?xml version="1.0" encoding="UTF-8"?>
<svg width="73px" height="73px" viewBox="0 0 73 73" version="1.1" xmlns="http://www.w3.org/2000/svg" xmlns:xlink="http://www.w3.org/1999/xlink">
    <title>B2C90FA5-E8C3-4B66-AE7B-81D97D552A66</title>
    <g id="Homepage-CI" stroke="none" stroke-width="1" fill="none" fill-rule="evenodd">
        <g id="CI-HmPg-1280D_v2" transform="translate(-377.000000, -3327.000000)">
            <g id="Industries" transform="translate(101.000000, 3020.000000)">
                <g id="Industrial-Icon-bluecircle" transform="translate(276.000000, 307.000000)">
                    <circle id="Oval" fill="#0160A8" cx="36.5" cy="36.5" r="36.5"></circle>
                    <g id="Industrial-Icon" transform="translate(19.406428, 10.564259)" stroke="#FFFFFF" stroke-linecap="round" stroke-linejoin="round" stroke-width="1.2">
                        <path d="M26.8895206,25.9278955 C27.700163,26.3876637 28.5658821,26.6583381 29.4380179,26.7534253 L29.9818328,28.7405317 C30.9026286,28.7589008 31.8191465,28.6297767 32.6934212,28.3574815 L32.67631,26.2952778 C33.4997858,25.9576102 34.2606989,25.4529997 34.905042,24.7954933 L36.7813906,25.6048151 C37.0696071,25.2536407 37.3353653,24.8759933 37.5722482,24.4707921 C37.809666,24.065591 38.009653,23.6485039 38.1748829,23.2238531 L36.5696397,21.9526021 C36.8295158,21.0654817 36.9000995,20.1486466 36.7963629,19.2566638 L38.5935722,18.2787783 C38.4080228,17.3732888 38.0791672,16.5002154 37.619304,15.6930548 L35.6344064,16.169031 C35.1317653,15.4423703 34.4794013,14.8059344 33.6901478,14.3099682 L34.0542952,12.2807208 C33.2153124,11.8501271 32.3356904,11.5713487 31.4464435,11.4357414 L30.5764466,13.3012875 C29.6732967,13.2450996 28.7706817,13.3742237 27.9252821,13.6767739 L26.5825887,12.1251236 C25.7559045,12.5054724 24.9848316,13.0192675 24.3030578,13.6578645 L25.2040687,15.5072025 C24.9078313,15.8383869 24.6393995,16.2036082 24.4062596,16.6028664 C24.172585,17.0021246 23.9843619,17.4154298 23.8399863,17.836839 L21.8021509,17.9303054 C21.5764971,18.8411975 21.5021704,19.7720796 21.5706152,20.6867537 L23.562999,21.1286931 C23.708444,22.0228369 24.030883,22.8840244 24.5148087,23.656608 L23.3154215,25.3254964 C23.8613753,26.0472947 24.5271074,26.692375 25.3045969,27.2272405 L26.8895206,25.9278955 Z" id="Stroke-1"></path>
                        <path d="M8.88952058,17.9278955 C9.70016304,18.3876637 10.5658821,18.6583381 11.4380179,18.7534253 L11.9818328,20.7405317 C12.9026286,20.7589008 13.8191465,20.6297767 14.6934212,20.3574815 L14.67631,18.2952778 C15.4997858,17.9576102 16.2606989,17.4529997 16.905042,16.7954933 L18.7813906,17.6048151 C19.0696071,17.2536407 19.3353653,16.8759933 19.5722482,16.4707921 C19.809666,16.065591 20.009653,15.6485039 20.1748829,15.2238531 L18.5696397,13.9526021 C18.8295158,13.0654817 18.9000995,12.1486466 18.7963629,11.2566638 L20.5935722,10.2787783 C20.4080228,9.37328885 20.0791672,8.50021544 19.619304,7.69305476 L17.6344064,8.16903104 C17.1317653,7.44237032 16.4794013,6.80593438 15.6901478,6.30996818 L16.0542952,4.28072084 C15.2153124,3.85012709 14.3356904,3.5713487 13.4464435,3.43574138 L12.5764466,5.30128746 C11.6732967,5.24509957 10.7706817,5.37422367 9.92528209,5.67677386 L8.58258867,4.1251236 C7.75590447,4.50547241 6.98483162,5.01926746 6.30305778,5.65786447 L7.2040687,7.5072025 C6.90783128,7.83838691 6.63939954,8.20360821 6.40625962,8.6028664 C6.17258498,9.0021246 5.98436193,9.41542977 5.83998629,9.83683896 L3.80215092,9.93030536 C3.57649714,10.8411975 3.50217043,11.7720796 3.57061517,12.6867537 L5.56299896,13.1286931 C5.70844405,14.0228369 6.03088297,14.8840244 6.51480871,15.656608 L5.31542148,17.3254964 C5.86137528,18.0472947 6.52710738,18.692375 7.30459692,19.2272405 L8.88952058,17.9278955 Z" id="Stroke-1" transform="translate(12.069847, 12.088995) rotate(39.000000) translate(-12.069847, -12.088995) "></path>
                        <path d="M28.443858,22.9700351 C26.8423579,22.0132202 26.3119111,19.9256239 27.259443,18.3080609 C28.2064403,16.6899576 30.2720813,16.1540116 31.8735814,17.1108266 C33.4750816,18.0681818 34.0049936,20.1552378 33.0579964,21.7733411 C32.1109992,23.3909041 30.0453581,23.9268501 28.443858,22.9700351 Z" id="Stroke-3"></path>
                        <path d="M10.443858,14.9700351 C8.84235787,14.0132202 8.31191108,11.9256239 9.25944304,10.3080609 C10.2064403,8.68995763 12.2720813,8.15401159 13.8735814,9.11082656 C15.4750816,10.0681818 16.0049936,12.1552378 15.0579964,13.7733411 C14.1109992,15.3909041 12.0453581,15.9268501 10.443858,14.9700351 Z" id="Stroke-3"></path>
                        <path d="M15.6065646,46.4947171 C15.7605652,46.4758077 15.9145659,46.4541969 16.0691013,46.4277238 C16.9198481,46.2823917 17.7251433,46.0273851 18.4748272,45.6816134 L20.7383164,47.4439683 C21.3238398,47.0630792 21.8719325,46.633566 22.381525,46.1640729 L21.4206249,43.5713259 C22.1489198,42.8057658 22.7499502,41.9240481 23.1996536,40.962911 L25.8096443,40.8532366 C26.0331592,40.1806027 26.1989238,39.4847372 26.3069381,38.7726637 L24.0995951,37.512218 C24.1552064,36.7439567 24.123123,35.9573262 23.9899765,35.1636722 C23.9348999,34.8324878 23.8632468,34.5083269 23.7771562,34.1917297 L25.6577825,32.4574688 C25.4134134,31.7972611 25.1182454,31.1656876 24.7754869,30.5686912 L22.2697676,31.0387245 C21.5938757,30.1035203 20.7607748,29.3017623 19.8169859,28.6658666 L20.1757861,25.9548008 C19.6137906,25.6300996 19.0250588,25.3518615 18.417077,25.1184656 L16.6562289,27.2779176 C15.5771547,27.022911 14.4387261,26.9532164 13.2815821,27.0969278 L11.6709916,24.5311941 C11.0715654,24.6468115 10.489785,24.8040296 9.92832424,25.0001469 L9.95719937,28.1450481 C8.97972283,28.6637055 8.10919121,29.3428227 7.37394492,30.1429599 L4.21372264,29.1288765 C3.86240859,29.583242 3.54210857,30.0619196 3.2554962,30.5611274 L5.47032541,33.1792671 C5.09227513,34.1355418 4.86394773,35.1604306 4.80298913,36.218816 L1.5935722,37.554359 C1.61923898,38.0227715 1.66843364,38.4938854 1.7481076,38.9671603 C1.76521879,39.0708918 1.78767722,39.1724622 1.80746203,39.2751132 L5.27247731,39.8591431 C5.58636064,40.8240621 6.04301543,41.7133435 6.61089294,42.5086183 L5.02917763,45.5632947 C5.4484017,46.0052341 5.89917452,46.4142171 6.37561412,46.7891632 L9.29039781,45.0527412 C10.1069222,45.5746403 11.0025859,45.972818 11.9474443,46.2299856 L12.6270792,49.3586788 C13.2687487,49.4310747 13.9216474,49.4532257 14.5820323,49.4218901 L15.6065646,46.4947171 Z" id="Stroke-5"></path>
                        <path d="M15.3754031,42.5172086 C12.2269448,43.055856 9.24211218,40.9131523 8.7095265,37.7320532 C8.17640609,34.5504138 10.2971238,31.535177 13.4455821,30.9965296 C16.5940404,30.4584225 19.5788731,32.6005859 20.1114587,35.7822253 C20.6445791,38.9633244 18.5238615,41.9785612 15.3754031,42.5172086 Z" id="Stroke-7"></path>
                    </g>
                </g>
            </g>
        </g>
    </g>
</svg>