<?xml version="1.0" encoding="UTF-8"?>
<svg width="73px" height="73px" viewBox="0 0 73 73" version="1.1" xmlns="http://www.w3.org/2000/svg" xmlns:xlink="http://www.w3.org/1999/xlink">
    <title>28FF3E07-7A83-4601-89B4-765F8E6BB347</title>
    <g id="Homepage-CI" stroke="none" stroke-width="1" fill="none" fill-rule="evenodd">
        <g id="CI-HmPg-1280D_v2" transform="translate(-654.000000, -3216.000000)">
            <g id="Industries" transform="translate(101.000000, 3020.000000)">
                <g id="Manufacturing-Icon-bluecircle" transform="translate(553.000000, 196.000000)">
                    <g id="Savings-Icon-bluecircle" fill="#0160A8">
                        <circle id="Oval" cx="36.5" cy="36.5" r="36.5"></circle>
                    </g>
                    <g id="Manufacturing-icon" transform="translate(17.000000, 17.000000)" stroke="#FFFFFF" stroke-linecap="round" stroke-linejoin="round" stroke-width="1.3">
                        <polyline id="Stroke-1" points="14.3802768 16.2439597 5.68188687 7.17690811 3.44839164 5.90166524 0.989121683 2.50907054 3.50844425 0 6.71259757 2.09894507 8.16367655 4.6333249 17.1398098 13.7360396"></polyline>
                        <path d="M21.1475218,27.273857 C21.3224827,27.794423 21.5037954,28.1516291 21.5037954,28.1516291 L32.253213,39.0524534 C32.253213,39.0524534 37.9668726,38.5698514 40,31.4314824 L29.6386147,21.1196741 C29.6386147,21.1196741 29.0045977,20.7400348 28.3099506,20.383404" id="Stroke-3"></path>
                        <path d="M14.6659309,29.6823275 L28.5536749,15.8479269 C31.0331548,16.4956145 33.7817167,15.8531038 35.7253426,13.9169434 C37.9623024,11.6891511 38.4808336,8.39779354 37.2803588,5.67762054 L32.7458092,10.1947528 C32.1094824,10.8280602 31.0689554,10.8280602 30.4326287,10.1947528 L29.0485315,8.81539675 C28.4122048,8.1820894 28.4122048,7.14555911 29.0485315,6.51167655 L33.6310078,1.94680176 C30.8674327,0.648550444 27.4657987,1.13690461 25.1809123,3.41301469 C23.2378638,5.34917504 22.5928757,8.08717958 23.2430607,10.5571358 L9.35531671,24.3915364 C6.87641417,23.7438488 4.12727487,24.3857843 2.18364898,26.3225199 C-0.0533108244,28.5503122 -0.571842033,31.8416698 0.62921021,34.5618428 L5.16375986,30.0447105 C5.79950915,29.4108279 6.84061357,29.4114031 7.47636286,30.0447105 L8.86103751,31.4234914 C9.4967868,32.0573739 9.4967868,33.0939042 8.86103751,33.7277868 L4.27856126,38.2926616 C7.04213628,39.5909129 10.4437703,39.1019835 12.7280793,36.8264486 C14.6717052,34.8902883 15.3161159,32.1522837 14.6659309,29.6823275 Z" id="Stroke-5"></path>
                        <line x1="25.6717269" y1="28.4648359" x2="33.0131588" y2="35.778069" id="Stroke-7"></line>
                        <line x1="25.1333899" y1="24.2533707" x2="35.3001817" y2="34.3811115" id="Stroke-9"></line>
                        <line x1="29.3610938" y1="24.7895825" x2="36.7025256" y2="32.1028156" id="Stroke-11"></line>
                    </g>
                </g>
            </g>
        </g>
    </g>
</svg>